<svg width="35" height="31" viewBox="0 0 35 31" fill="none" xmlns="http://www.w3.org/2000/svg">
<path d="M0.000873856 15.0996V15.0956V15.0606L0.00166827 15.0265L0.00246269 15.0085L0.0032571 14.9922L0.00492537 14.9581L0.00571979 14.9573C0.0488343 14.2739 0.410817 13.6777 0.945274 13.314L13.6299 0.630244C14.4703 -0.210081 15.8336 -0.210081 16.674 0.630244C17.5143 1.47057 17.5143 2.83396 16.674 3.67428L7.40434 12.9431H32.8475C34.036 12.9431 35 13.9071 35 15.0956C35 16.2841 34.036 17.248 32.8475 17.248H7.33276L16.674 26.5893C17.5143 27.4296 17.5143 28.793 16.674 29.6333C15.8336 30.4736 14.4703 30.4736 13.6299 29.6333L0.894829 16.8983C0.802092 16.8316 0.713422 16.7559 0.630447 16.6729C0.210691 16.2531 0 15.7033 0 15.1525V15.1265V15.1119L0.000873856 15.0996Z" fill="#264B87"/>
</svg>
