<svg width="13" height="23" viewBox="0 0 13 23" fill="none" xmlns="http://www.w3.org/2000/svg">
<path d="M1.57302 10.6464C1.59624 10.5821 1.62917 10.5307 1.64143 10.5117C1.65948 10.4837 1.68003 10.4548 1.70078 10.4268C1.74262 10.3703 1.79936 10.2986 1.87086 10.2111C2.01466 10.0351 2.23281 9.77735 2.54467 9.41513C3.16922 8.68972 4.18047 7.53266 5.74969 5.74492C6.85732 4.48303 7.87393 3.32949 8.61962 2.48742C8.99238 2.06649 9.2979 1.72288 9.51339 1.48232C9.62099 1.36221 9.70702 1.26681 9.76806 1.20002C9.79835 1.16688 9.824 1.13911 9.84368 1.11833C9.85322 1.10824 9.86365 1.09737 9.87357 1.08748C9.87832 1.08274 9.8857 1.07549 9.89434 1.06754L9.89444 1.06745C9.89633 1.06566 9.9247 1.03889 9.96341 1.01368L9.96365 1.01353L1.57311 11.7746L2.04342 11.6049L1.57306 11.7745C1.5089 11.5966 1.48817 11.3862 1.48816 11.2105C1.48815 11.0348 1.50884 10.8243 1.57302 10.6464ZM1.57302 10.6464L2.04336 10.8161L1.57304 10.6464C1.57304 10.6464 1.57303 10.6464 1.57302 10.6464ZM11.1382 1.82533L11.6054 1.64795C11.5412 1.47873 11.4346 1.3255 11.3233 1.20708C11.2175 1.09447 11.0633 0.966312 10.8765 0.903414L11.1382 1.82533ZM11.1382 1.82533L11.6054 1.64796C11.6733 1.82677 11.6939 2.02635 11.6891 2.19987C11.6842 2.37351 11.6526 2.57137 11.5754 2.74608M11.1382 1.82533L11.5567 19.6296M11.5567 19.6296L11.5566 19.6295C11.5407 19.5954 11.524 19.5699 11.5194 19.5629L11.5192 19.5626C11.512 19.5515 11.5053 19.5421 11.5006 19.5355C11.491 19.5223 11.4808 19.5091 11.4717 19.4975C11.4531 19.4737 11.4291 19.4441 11.4013 19.4104C11.3453 19.3425 11.2663 19.2486 11.1679 19.1328C10.9706 18.9007 10.6902 18.5746 10.3477 18.1789C9.66246 17.3871 8.72613 16.3134 7.70397 15.1487C6.68266 13.9849 5.75438 12.9232 5.08161 12.1503C4.74513 11.7637 4.47302 11.4499 4.28525 11.2318C4.27903 11.2246 4.27289 11.2174 4.26686 11.2104C4.27293 11.2034 4.2791 11.1962 4.28537 11.1889C4.47322 10.9707 4.74546 10.6568 5.08208 10.2701C5.75515 9.49684 6.68383 8.43476 7.7056 7.27057C9.01649 5.77696 9.95221 4.70489 10.5669 3.99152C10.8739 3.63515 11.1026 3.36628 11.2584 3.17834C11.336 3.08476 11.398 3.00826 11.4434 2.94968C11.4659 2.92067 11.4871 2.8925 11.5051 2.86688L11.506 2.86553C11.5173 2.84948 11.5506 2.80214 11.5754 2.74608M11.5567 19.6296C11.6822 19.8987 11.7159 20.1986 11.6748 20.492L11.5567 19.6296ZM11.5754 2.74608L11.118 2.54407L11.5753 2.74622C11.5753 2.74618 11.5754 2.74613 11.5754 2.74608ZM11.6747 20.4921C11.6303 20.8087 11.445 21.1281 11.205 21.3324L11.6747 20.4921ZM11.205 21.3324C10.8438 21.6399 10.283 21.6527 9.90739 21.3654L11.205 21.3324Z" fill="#264B87" stroke="#264B87"/>
</svg>
