<svg width="13" height="23" viewBox="0 0 13 23" fill="none" xmlns="http://www.w3.org/2000/svg">
<path d="M1.10401 1.82542L0.645326 1.6264C0.720984 1.45203 0.844207 1.29877 0.967931 1.18355C1.0887 1.07108 1.25442 0.953478 1.44392 0.897655L1.10401 1.82542ZM1.10401 1.82542L0.645321 1.62642C0.56444 1.81284 0.539925 2.02124 0.545665 2.20185M1.10401 1.82542L0.545665 2.20185M0.702183 19.6057L0.70222 19.6056C0.721051 19.5703 0.740586 19.5442 0.745739 19.5373L0.74605 19.5369C0.754307 19.5258 0.761932 19.5164 0.767249 19.51C0.778069 19.4969 0.78961 19.4838 0.7999 19.4723C0.821027 19.4487 0.848384 19.4192 0.880035 19.3856C0.943945 19.3178 1.03411 19.224 1.14658 19.1083C1.37197 18.8762 1.69242 18.5502 2.08381 18.1545C2.86688 17.3627 3.93692 16.2891 5.10507 15.1244C6.2723 13.9606 7.33322 12.8989 8.10214 12.126C8.48488 11.7412 8.7948 11.4285 9.00933 11.2104C8.7947 10.9923 8.4846 10.6794 8.1016 10.2944C7.33234 9.52115 6.27096 8.45905 5.10321 7.29485C3.60505 5.80124 2.53573 4.72925 1.83337 4.01597C1.48249 3.65963 1.22129 3.39089 1.04338 3.20312C0.954778 3.10961 0.884081 3.03328 0.832351 2.97491C0.806742 2.94601 0.78264 2.91798 0.762172 2.89249L0.760918 2.89093C0.748337 2.87529 0.709806 2.8274 0.68057 2.76953L0.702183 19.6057ZM0.702183 19.6057C0.554656 19.8825 0.513623 20.1953 0.562764 20.5017L0.702183 19.6057ZM2.4895 21.3475C2.4857 21.3507 2.46645 21.367 2.44151 21.3837L2.4895 21.3475ZM2.4895 21.3475C2.48968 21.3473 2.48982 21.3472 2.48993 21.3471M2.4895 21.3475L2.48993 21.3471M2.48993 21.3471C2.4972 21.341 2.50372 21.3352 2.50849 21.3309M2.48993 21.3471L2.50849 21.3309M2.50849 21.3309C2.51826 21.3221 2.52904 21.3122 2.53969 21.3022M2.50849 21.3309L2.53969 21.3022M2.53969 21.3022C2.56142 21.2818 2.59019 21.2543 2.62473 21.2209M2.53969 21.3022L2.62473 21.2209M2.62473 21.2209C2.69421 21.1539 2.79223 21.0583 2.91505 20.9379M2.62473 21.2209L2.91505 20.9379M2.91505 20.9379C3.16094 20.6968 3.50931 20.3531 3.93425 19.9325M2.91505 20.9379L3.93425 19.9325M3.93425 19.9325C4.78427 19.0912 5.94228 17.9405 7.20318 16.6834M3.93425 19.9325L7.20318 16.6834M7.20318 16.6834C8.99084 14.9012 10.142 13.7485 10.8528 13.026M7.20318 16.6834L10.8528 13.026M10.8528 13.026C11.2076 12.6653 11.4557 12.4088 11.6191 12.2337M10.8528 13.026L11.6191 12.2337M11.6191 12.2337C11.7003 12.1466 11.7647 12.0753 11.8122 12.0192M11.6191 12.2337L11.8122 12.0192M11.8122 12.0192C11.8357 11.9914 11.8591 11.9626 11.8797 11.9346M11.8122 12.0192L11.8797 11.9346M11.8797 11.9346L11.8799 11.9344M11.8797 11.9346L11.8799 11.9344M11.8799 11.9344C11.8934 11.9159 11.9322 11.8632 11.9601 11.7954M11.8799 11.9344L11.9601 11.7954M11.9601 11.7954C12.0366 11.6098 12.0609 11.3912 12.061 11.2105M11.9601 11.7954L12.061 11.2105M12.061 11.2105C12.061 11.0298 12.0367 10.8112 11.9601 10.6255L12.061 11.2105ZM0.545665 2.20185C0.551414 2.38277 0.589187 2.58857 0.680497 2.76938L0.545665 2.20185ZM2.3821 0.998247L2.38187 0.998119L11.9601 10.6255C11.9321 10.5576 11.8932 10.5047 11.8797 10.4863L11.8795 10.486C11.8589 10.458 11.8354 10.4292 11.8118 10.4013C11.7642 10.3451 11.6996 10.2736 11.618 10.1862C11.4538 10.0104 11.2047 9.75285 10.8483 9.39068C10.1346 8.66537 8.97902 7.5084 7.18561 5.72064C5.91977 4.45878 4.75796 3.30527 3.90578 2.46324C3.47978 2.04232 3.13066 1.69875 2.88445 1.45825C2.7615 1.33817 2.66327 1.24285 2.59362 1.17617C2.55905 1.14307 2.52989 1.11546 2.50764 1.09489C2.49681 1.08488 2.4852 1.0743 2.4743 1.06478C2.46905 1.0602 2.46114 1.05339 2.45198 1.04603L2.45173 1.04582C2.44862 1.04327 2.42008 1.01989 2.3821 0.998247ZM0.56277 20.5017C0.616558 20.8371 0.836495 21.157 1.09913 21.3527L0.56277 20.5017ZM1.09915 21.3527C1.3015 21.5034 1.54506 21.5672 1.76616 21.572C1.98749 21.5768 2.23268 21.5234 2.44136 21.3838L1.09915 21.3527Z" fill="#264B87" stroke="#264B87"/>
</svg>
