<svg width="24" height="25" viewBox="0 0 24 25" fill="none" xmlns="http://www.w3.org/2000/svg">
<path fill-rule="evenodd" clip-rule="evenodd" d="M9.0793 0.0920919C8.42834 0.280759 8.01054 0.530439 7.5451 1.00904C6.96409 1.60656 6.74138 2.21626 6.78984 3.07724C6.83414 3.86393 7.08014 4.39321 7.66123 4.95215L8.07805 5.35302V9.48917C8.07805 11.9277 8.11082 13.7426 8.15781 13.9113C8.25009 14.2422 8.50492 14.5474 8.85447 14.7456C9.06803 14.8667 9.54123 14.8902 12.5188 14.9267L15.938 14.9688L17.3685 18.1202C18.1553 19.8535 18.8602 21.3431 18.9348 21.4304C19.1793 21.7162 19.5496 21.8241 19.9847 21.7362C20.6752 21.5967 23.2975 20.4224 23.504 20.1602C23.7731 19.8183 23.8245 19.4141 23.643 19.0674C23.333 18.4755 22.9252 18.4614 21.6572 18.9988C21.1469 19.215 20.7208 19.38 20.7102 19.3653C20.6995 19.3507 20.0567 17.9395 19.2818 16.2293C18.5068 14.5192 17.7929 13.0308 17.6953 12.9219C17.3598 12.5478 17.2417 12.5335 14.126 12.4896L11.1429 12.4476L11.1202 11.255L11.0976 10.0624L13.3334 10.0364L15.5693 10.0105L15.8692 9.77507C16.1585 9.54808 16.1692 9.52085 16.1692 9.01233C16.1692 8.56818 16.139 8.45591 15.9779 8.30027C15.6608 7.99394 15.3185 7.9515 13.1662 7.9515H11.102V6.81841V5.68531L11.518 5.46849C12.106 5.16208 12.6141 4.64986 12.878 4.09764C13.0687 3.69812 13.1043 3.51643 13.1043 2.9432C13.1043 2.33148 13.0755 2.20492 12.8183 1.6869C12.4787 1.00316 11.9246 0.496404 11.2198 0.225294C10.6044 -0.0114442 9.64299 -0.07128 9.0793 0.0920919ZM6.64706 6.47948C5.49739 6.79849 4.29034 7.40449 3.29693 8.16127C1.64062 9.42294 0.511463 11.4364 0.0982433 13.8648C-0.154543 15.3506 0.0903156 17.2968 0.719707 18.8038C1.48722 20.6416 2.55999 21.9686 4.18205 23.0868C8.41019 26.0018 14.0494 25.546 17.7401 21.9911L18.3304 21.4225L17.8036 20.2966C17.5139 19.6774 17.2677 19.1559 17.2564 19.1379C17.2451 19.1199 17.0943 19.2367 16.9212 19.3975C15.6338 20.5936 13.8007 21.5431 12.0827 21.9041C10.9345 22.1453 9.03999 22.1085 8.03718 21.8255C3.95452 20.6732 1.69653 16.6195 3.11958 12.9968C3.47085 12.1024 3.84688 11.546 4.68632 10.6784C5.5081 9.8291 6.08036 9.41689 6.95428 9.04502L7.42422 8.84501V7.59989C7.42422 6.17837 7.47383 6.24997 6.64706 6.47948Z" fill="#264B87"/>
</svg>
