<svg width="25" height="16" viewBox="0 0 25 16" fill="none" xmlns="http://www.w3.org/2000/svg">
<path fill-rule="evenodd" clip-rule="evenodd" d="M0.347193 0.131519C0.237625 0.197618 0.115009 0.30344 0.0747672 0.366678C0.0345259 0.429917 0.000958216 3.86727 6.17503e-05 8.00533C-0.00123314 14.6453 0.0167958 15.5568 0.153656 15.7645C0.294899 15.9791 0.390722 16 1.2339 16C2.46903 16 2.48875 15.9761 2.48875 14.4822V13.3518H12.4993H22.5098V14.5006C22.5098 15.9772 22.5291 16 23.782 16C24.6072 16 24.704 15.9786 24.8449 15.7645C24.979 15.561 25 14.9541 25 11.2771C25 8.84904 24.9567 6.78027 24.899 6.45444C24.6237 4.89911 23.5072 3.52978 22.035 2.9422C21.4846 2.7224 21.2896 2.71287 16.6291 2.67738C11.8194 2.64073 11.7928 2.64168 11.5242 2.86636L11.2542 3.09219V6.20943V9.32656H6.87147H2.48875V4.8776C2.48875 -0.383395 2.58158 0.0029231 1.31836 0.00811355C0.893738 0.00991432 0.456761 0.0654203 0.347193 0.131519ZM5.90458 1.52913C5.00871 1.84045 4.13576 2.8063 3.88325 3.76547C3.68713 4.51014 3.79769 5.58223 4.13944 6.2499C4.72175 7.38766 5.73336 8.00723 6.97108 7.98425C8.10381 7.96317 9.10487 7.29741 9.64135 6.20837C9.86975 5.74494 9.90591 5.54262 9.9076 4.71871C9.90919 3.92182 9.86995 3.67999 9.66854 3.24473C9.37191 2.60387 8.80096 2.00082 8.19605 1.6894C7.62859 1.39725 6.5092 1.31897 5.90458 1.52913Z" fill="#264B87"/>
</svg>
