<svg width="50" height="55" viewBox="0 0 50 55" fill="none" xmlns="http://www.w3.org/2000/svg">
<path d="M18.123 4.8363H31.877V3.7273C31.877 1.6688 33.5553 0 35.6255 0C37.6957 0 39.374 1.6688 39.374 3.7273V4.9435C42.1 5.3054 44.5484 6.5653 46.4048 8.4112C48.623 10.6167 50 13.6626 50 17.016V42.8201C50 46.1734 48.623 49.2195 46.4048 51.4251C44.1865 53.6308 41.1233 55 37.7509 55H12.2491C8.8767 55 5.8134 53.6308 3.5952 51.4251C1.377 49.2195 0 46.1734 0 42.8201V17.016C0 13.6626 1.377 10.6167 3.5952 8.4112C5.4516 6.5653 7.9 5.3054 10.6259 4.9435V3.8749C10.6259 1.8164 12.3043 0.1476 14.3745 0.1476C16.4447 0.1476 18.123 1.8164 18.123 3.8749V4.8363ZM13.0633 31.7028C11.6643 30.1911 11.7626 27.8378 13.2829 26.4468C14.8032 25.0557 17.1699 25.1534 18.5689 26.6652L22.3311 30.7275L31.4603 21.1064C32.8755 19.6107 35.2422 19.5391 36.7464 20.9462C38.2506 22.3533 38.3226 24.7067 36.9075 26.2024L25.0917 38.6549C25.0097 38.7463 24.9225 38.8345 24.8301 38.9191C23.3098 40.3102 20.9431 40.2125 19.5441 38.7008L13.0633 31.7028ZM39.374 12.5785V13.3998C39.374 15.4583 37.6957 17.1272 35.6255 17.1272C33.5553 17.1272 31.877 15.4583 31.877 13.3998V12.291H18.123V13.5474C18.123 15.6059 16.4447 17.2748 14.3745 17.2748C12.3043 17.2748 10.6259 15.6059 10.6259 13.5474V12.5785C9.9713 12.8183 9.3822 13.1984 8.896 13.6819C8.0329 14.5401 7.4971 15.7207 7.4971 17.016V42.8201C7.4971 44.1155 8.0329 45.2962 8.896 46.1544C9.759 47.0125 10.9463 47.5453 12.2491 47.5453H37.7509C39.0537 47.5453 40.241 47.0125 41.104 46.1544C41.967 45.2962 42.5029 44.1155 42.5029 42.8201V17.016C42.5029 15.7207 41.967 14.5401 41.104 13.6819C40.6178 13.1984 40.0287 12.8183 39.374 12.5785Z" fill="#B0B5BD"/>
</svg>
