<svg width="18" height="19" viewBox="0 0 18 19" fill="none" xmlns="http://www.w3.org/2000/svg">
<path d="M6.4134 2.01845H12.0157V1.21742C12.0157 0.727136 12.4133 0.330566 12.9035 0.330566C13.3938 0.330566 13.7914 0.727136 13.7914 1.21742V2.02142C14.7848 2.06088 15.6864 2.48408 16.3484 3.14503C17.0468 3.84446 17.4789 4.80431 17.4789 5.8569V14.8665C17.4789 15.925 17.0458 16.8859 16.3523 17.5794L16.2921 17.6337C15.6016 18.2956 14.6644 18.706 13.6405 18.706H4.78767C3.73015 18.706 2.7693 18.2729 2.0758 17.5794C1.38229 16.8859 0.949219 15.925 0.949219 14.8665V5.8569C0.949219 4.80431 1.38131 3.84446 2.0758 3.14898C2.73576 2.48507 3.63939 2.05989 4.63772 2.02142V1.26872C4.63772 0.779422 5.03527 0.381866 5.52556 0.381866C6.01585 0.381866 6.4134 0.779422 6.4134 1.26872V2.01845V2.01845ZM5.37462 10.7055C5.04316 10.3464 5.06783 9.78413 5.42691 9.45365C5.78599 9.12219 6.3473 9.14685 6.67876 9.50594L8.28379 11.2491L11.7572 7.56846C12.0926 7.21234 12.653 7.19458 13.0091 7.52999C13.3652 7.8654 13.383 8.42573 13.0476 8.78186L8.87569 13.2003C8.5166 13.5318 7.95529 13.5072 7.62383 13.1481L5.37462 10.7055V10.7055ZM13.7914 3.79908V4.59419C13.7914 5.08447 13.3938 5.48203 12.9035 5.48203C12.4133 5.48203 12.0157 5.08447 12.0157 4.59419V3.79414H6.4134V4.64647C6.4134 5.13676 6.01585 5.53432 5.52556 5.53432C5.03527 5.53432 4.63772 5.13676 4.63772 4.64647V3.79908C4.13165 3.83657 3.67194 4.0605 3.3316 4.40084C2.95673 4.77373 2.72491 5.29065 2.72491 5.8569V14.8665C2.72491 15.4328 2.95772 15.9497 3.3316 16.3236C3.7045 16.6965 4.22241 16.9303 4.78767 16.9303H13.6405C14.187 16.9303 14.6871 16.7142 15.0571 16.364L15.0965 16.3236C15.4704 15.9497 15.7032 15.4328 15.7032 14.8665V5.8569C15.7032 5.29065 15.4714 4.77373 15.0985 4.39886C14.7572 4.05951 14.2984 3.83657 13.7914 3.79908V3.79908Z" fill="#B0B5BD"/>
</svg>
