<svg width="14" height="15" viewBox="0 0 14 15" fill="none" xmlns="http://www.w3.org/2000/svg">
<path fill-rule="evenodd" clip-rule="evenodd" d="M3.97766 0.0142825C3.80618 0.0487992 3.62788 0.19539 3.54314 0.371533L3.49428 0.473069V2.11259V3.75211L3.543 3.85735C3.60631 3.99407 3.71617 4.10632 3.84892 4.16987C3.93242 4.20985 3.97571 4.22015 4.08148 4.22523C4.35649 4.23843 4.58245 4.0982 4.70543 3.83797L4.76076 3.72089L4.7654 2.17536C4.76874 1.06351 4.76516 0.603549 4.75261 0.53617C4.68639 0.180387 4.33339 -0.057358 3.97766 0.0142825ZM9.7158 0.0141264C9.54188 0.0492051 9.33532 0.226456 9.26724 0.399024L9.23161 0.489336V2.12105V3.75277L9.28237 3.85828C9.42454 4.15371 9.73825 4.29435 10.0435 4.19948C10.232 4.1409 10.3888 3.99337 10.4654 3.80236C10.498 3.7212 10.4981 3.71478 10.5023 2.15975C10.5051 1.12985 10.5012 0.572997 10.4908 0.523306C10.4654 0.401912 10.4001 0.284515 10.308 0.194594C10.1406 0.0312364 9.93763 -0.0306002 9.7158 0.0141264ZM5.39401 2.11292V2.60468H6.98856H8.58311V2.11292V1.62116H6.98856H5.39401V2.11292ZM11.1466 2.11259V2.60468H11.8166C12.4222 2.60468 12.4952 2.60741 12.5758 2.63313C12.7825 2.69915 12.936 2.85379 13.0109 3.07136C13.0398 3.15529 13.0412 3.20773 13.0437 4.34921L13.0463 5.53953L6.99202 5.54348L0.937702 5.54742L0.941883 4.33754L0.946049 3.12766L0.980275 3.04179C1.04932 2.86857 1.19636 2.71814 1.36567 2.6475C1.44778 2.61323 1.46465 2.61239 2.14768 2.60798L2.84578 2.60349V2.12013V1.63677L2.15531 1.63697C1.5409 1.63716 1.44973 1.64039 1.32752 1.66634C0.703555 1.79879 0.217301 2.26966 0.0420839 2.91113L0 3.06521V8.31843V13.5717L0.040909 13.7232C0.225801 14.4079 0.766819 14.8989 1.43023 14.984C1.51417 14.9948 3.35336 15.0001 6.99579 15C11.658 14.9999 12.4567 14.9967 12.5809 14.9774C13.2731 14.8698 13.8297 14.3279 13.9697 13.6253C13.9996 13.4752 14 13.3999 14 8.3138C14 3.70851 13.9975 3.14075 13.9762 3.02635C13.896 2.59384 13.6295 2.17422 13.2812 1.93225C13.1503 1.84131 12.9014 1.72455 12.7546 1.68517C12.5623 1.6336 12.4212 1.62472 11.7608 1.62253L11.1466 1.6205V2.11259ZM13.0536 9.9225C13.0534 12.1042 13.0479 13.3606 13.0381 13.4299C13.006 13.6571 12.8643 13.8516 12.6572 13.9528L12.5428 14.0088H6.98856H1.43433L1.33515 13.9603C1.15383 13.8716 1.02526 13.7216 0.967335 13.5312C0.93932 13.4391 0.93842 13.3282 0.93842 9.97965V6.52313H6.99619H13.054L13.0536 9.9225ZM3.2612 7.51374C2.8921 7.59976 2.59927 7.91713 2.53097 8.30516C2.47526 8.62162 2.57125 8.92743 2.8002 9.16291C3.17872 9.55224 3.76248 9.5519 4.14345 9.16213C4.5264 8.77033 4.52289 8.15918 4.13544 7.76951C4.03314 7.66663 3.89061 7.57764 3.76154 7.53604C3.63144 7.49412 3.39133 7.48343 3.2612 7.51374ZM6.77074 7.51479C6.60011 7.55269 6.45642 7.63604 6.31741 7.77772C6.1809 7.91683 6.12909 8.00038 6.06921 8.17793C6.01858 8.32808 6.01242 8.58412 6.05589 8.73213C6.13394 8.99792 6.32269 9.23042 6.5542 9.34594C6.94131 9.53913 7.34854 9.47085 7.65352 9.16162C7.83739 8.97517 7.92211 8.78623 7.93709 8.52918C7.95615 8.20175 7.81714 7.89308 7.55896 7.68961C7.34396 7.52014 7.04501 7.45384 6.77074 7.51479ZM10.2768 7.51538C10.0813 7.55852 9.87198 7.69376 9.74678 7.8579C9.65826 7.97395 9.62739 8.03213 9.58113 8.17012C9.5457 8.27583 9.53916 8.3214 9.53858 8.46674C9.53746 8.75349 9.62092 8.96087 9.81825 9.16162C10.1221 9.47067 10.5377 9.54024 10.9177 9.34563C11.1518 9.22578 11.3238 9.01518 11.4061 8.74774C11.4494 8.60738 11.4533 8.37237 11.4149 8.22601C11.2799 7.7119 10.7855 7.4032 10.2768 7.51538ZM3.26539 11.1047C2.90886 11.1851 2.6382 11.4445 2.53112 11.8085C2.49389 11.9351 2.49391 12.1953 2.53115 12.3219C2.69537 12.8803 3.24089 13.1751 3.7668 12.9896C3.83586 12.9652 3.93111 12.919 3.97847 12.8868C4.16516 12.7601 4.32276 12.5357 4.38021 12.3149C4.41504 12.1811 4.41504 11.9492 4.38021 11.8154C4.31128 11.5505 4.11621 11.3063 3.88176 11.1912C3.67125 11.088 3.46709 11.0593 3.26539 11.1047ZM6.78256 11.1059C6.44896 11.1792 6.15734 11.4608 6.05603 11.8076C6.01867 11.9353 6.01867 12.195 6.05603 12.3227C6.1486 12.6395 6.39195 12.9007 6.6826 12.9951C7.07668 13.1231 7.47511 12.9996 7.73326 12.6694C7.96463 12.3735 8.00556 11.9805 7.84139 11.6313C7.76338 11.4654 7.57106 11.2685 7.40817 11.188C7.20856 11.0892 6.9894 11.0605 6.78256 11.1059Z" fill="#B0B5BD"/>
</svg>
