<svg width="65" height="55" viewBox="0 0 65 55" fill="none" xmlns="http://www.w3.org/2000/svg">
<path d="M61.7429 16.4289C62.5214 16.8006 63.2114 17.3416 63.7591 18.0257C64.2997 18.7011 64.6704 19.4755 64.858 20.2925C65.0458 21.1105 65.0493 21.9686 64.8559 22.8105L58.4738 50.5662C58.1747 51.8674 57.4433 52.9754 56.4459 53.7595C55.4489 54.5432 54.1956 55 52.8511 55H12.1489C10.8044 55 9.55111 54.5432 8.55411 53.7595C7.55651 52.9753 6.82531 51.8674 6.52611 50.5662L0.144113 22.8106C-0.0494871 21.9688 -0.0458868 21.1106 0.142013 20.2927C0.329813 19.4755 0.700313 18.7011 1.24091 18.0259C1.78841 17.3417 2.47851 16.8008 3.25691 16.429C4.03571 16.0572 4.89031 15.8583 5.76681 15.8583V15.864L16.7539 15.8641L22.8493 1.96738C23.2138 1.13618 23.8809 0.531381 24.6646 0.225881C25.446 -0.079319 26.3464 -0.0868172 27.1793 0.275183C28.0141 0.638183 28.6216 1.30238 28.9287 2.08278C29.2351 2.86098 29.2428 3.75768 28.8791 4.58718L23.9355 15.8583H41.0644L36.1211 4.58788C35.757 3.75778 35.7646 2.86118 36.0711 2.08278C36.3784 1.30248 36.9857 0.638183 37.82 0.275383C38.6535 -0.087117 39.5539 -0.079319 40.3354 0.225881C41.119 0.531781 41.7861 1.13668 42.1505 1.96708L48.2435 15.8582H59.2331C60.1096 15.8582 60.9642 16.0571 61.7429 16.4289ZM12.7889 48.4409H52.2114L58.1952 22.4173H50.9537C51.0099 22.9452 50.9346 23.4715 50.7451 23.9527C50.4378 24.7329 49.8305 25.3972 48.9964 25.76C48.7849 25.8519 48.5689 25.92 48.3517 25.9654C48.1176 26.0144 47.8932 26.0382 47.6815 26.0382C47.039 26.0382 46.4107 25.8484 45.8764 25.5005C45.3605 25.1645 44.9328 24.6776 44.6656 24.0682L43.9416 22.4176H21.0586L20.3346 24.0682C20.0674 24.6776 19.6394 25.1645 19.1238 25.5005C18.5895 25.8484 17.9612 26.0382 17.3187 26.0382C17.107 26.0382 16.8826 26.0144 16.6485 25.9654C16.4313 25.9202 16.2153 25.8519 16.0042 25.7601C15.1697 25.3973 14.5623 24.7331 14.2553 23.9527C14.0659 23.4715 13.9906 22.9452 14.0467 22.4173H6.80501L12.7889 48.4409Z" fill="#B0B5BD"/>
</svg>
