<svg width="23" height="19" viewBox="0 0 23 19" fill="none" xmlns="http://www.w3.org/2000/svg">
<path d="M20.086 7.89372H18.0479L18.2057 8.16599C18.4425 8.57835 18.3004 9.1071 17.8881 9.34386C17.4747 9.5816 16.946 9.43955 16.7092 9.0272L16.0542 7.89372H6.56707L5.85186 9.13176C5.61511 9.5451 5.08635 9.68618 4.674 9.44942C4.26066 9.21266 4.11959 8.68389 4.35635 8.27055L4.57436 7.89372H2.28767L4.63157 16.641H17.7411L20.086 7.89372V7.89372ZM1.15912 6.15947H5.57467L8.82122 0.537435C9.05798 0.125081 9.58673 -0.0169713 9.99908 0.219787C10.4124 0.456545 10.5535 0.985313 10.3167 1.39865L7.56836 6.15947H15.0539L12.2443 1.29309C12.0076 0.880738 12.1496 0.351983 12.562 0.115225C12.9753 -0.12252 13.5041 0.0195314 13.7409 0.431885L17.0476 6.15947H21.2145L21.4375 6.19004C21.8982 6.31237 22.1734 6.78884 22.0511 7.24954L19.2544 17.6847C19.1725 18.0793 18.8233 18.3752 18.406 18.3752H3.96767C3.58589 18.3732 3.2347 18.1177 3.13112 17.731L0.335404 7.29787C0.307782 7.21205 0.291992 7.1203 0.291992 7.02659C0.291992 6.54715 0.680674 6.15947 1.15912 6.15947V6.15947Z" fill="#B0B5BD"/>
</svg>
