<svg width="20" height="14" viewBox="0 0 20 14" fill="none" xmlns="http://www.w3.org/2000/svg">
<path fill-rule="evenodd" clip-rule="evenodd" d="M17.4937 0.0394062C17.3934 0.0619587 17.2156 0.131283 17.0984 0.193454C16.8975 0.300094 16.6293 0.57139 12.3693 4.97698L7.85315 9.64744L5.60593 7.32423C3.4777 5.12403 3.34723 4.99508 3.14246 4.88953C2.7568 4.69077 2.38379 4.64642 1.98508 4.752C1.66776 4.83603 1.48989 4.94361 1.2332 5.20675C0.979243 5.46704 0.850651 5.70909 0.777718 6.06399C0.694011 6.47133 0.778889 6.9359 1.00375 7.3011C1.09141 7.44351 1.8971 8.29647 3.99789 10.471L6.87211 13.4461L7.12414 13.571C7.67929 13.8461 8.27839 13.8031 8.78213 13.4519C9.04396 13.2694 19.0879 2.84971 19.2402 2.60266C19.548 2.10323 19.5802 1.47364 19.3255 0.933292C19.1996 0.666087 18.8562 0.310552 18.5982 0.180238C18.2536 0.0062443 17.8627 -0.0435895 17.4937 0.0394062Z" fill="#264B87"/>
</svg>




