<svg width="58" height="56" viewBox="0 0 58 56" fill="none" xmlns="http://www.w3.org/2000/svg">
<path d="M31.9878 1.88647L39.058 16.6804L55.1478 18.8996C56.9556 19.1495 58.2184 20.8167 57.9683 22.6233C57.8582 23.4186 57.4732 24.1083 56.9224 24.61L45.2462 35.9123L48.1405 52.1212C48.4549 53.9205 47.2499 55.634 45.4493 55.9482C44.6846 56.0816 43.9354 55.9411 43.3024 55.5975L43.3015 55.5992L28.999 47.8426L14.6964 55.5992C13.0886 56.4704 11.0785 55.8741 10.2067 54.2675C9.81613 53.5477 9.72063 52.7472 9.87833 52.0045L12.7517 35.9123L0.99993 24.5368C-0.30767 23.2658 -0.33657 21.176 0.93533 19.8693C1.46893 19.321 2.14673 18.9979 2.85033 18.9011L2.85013 18.8996L18.9399 16.6804L26.0103 1.88647C26.7963 0.237071 28.7717 -0.463329 30.4223 0.322071C31.1364 0.661972 31.6726 1.22427 31.9878 1.88647ZM33.8476 21.1299L28.999 10.9847L24.1504 21.1299L24.1452 21.1274C23.6827 22.0958 22.7576 22.8207 21.6145 22.9787L10.4727 24.5155L18.4618 32.2487C19.3246 32.9831 19.7874 34.1413 19.5784 35.3378L17.5847 46.5024L27.3829 41.1885C28.3404 40.6548 29.5424 40.6072 30.5775 41.1682L40.4132 46.5023L38.4196 35.3378L38.4261 35.3366C38.2457 34.2988 38.5644 33.1927 39.3769 32.4028L47.5253 24.5155L36.5863 23.0067C35.4425 22.9191 34.3761 22.239 33.8476 21.1299Z" fill="#B0B5BD"/>
</svg>
