<svg width="20" height="19" viewBox="0 0 20 19" fill="none" xmlns="http://www.w3.org/2000/svg">
<path d="M11.1659 0.886032L13.637 6.06216L19.261 6.83755C19.701 6.89575 20.0098 7.30218 19.9516 7.74216C19.9259 7.93748 19.8312 8.10815 19.6951 8.23048L15.608 12.1903L16.6182 17.8557C16.6942 18.2937 16.4022 18.7129 15.9632 18.7889C15.7777 18.8215 15.5952 18.7869 15.4403 18.7031L10.4378 15.9892L5.43532 18.7041C5.04368 18.9152 4.55339 18.7712 4.34228 18.3795C4.25251 18.2128 4.22687 18.0293 4.25745 17.8557L5.26762 12.1903L1.16085 8.21173C0.843194 7.90197 0.836291 7.39195 1.14506 7.0743C1.27627 6.94112 1.44298 6.86122 1.61463 6.83853L7.23863 6.06216L9.7098 0.886032C9.90118 0.48453 10.3826 0.313868 10.7841 0.505247C10.9587 0.587126 11.0889 0.725234 11.1659 0.886032V0.886032ZM12.3684 7.14534L10.4378 3.10465L8.50824 7.14534C8.39282 7.38209 8.16593 7.55966 7.88675 7.59715L3.46727 8.2068L6.65364 11.2935C6.86573 11.4731 6.98115 11.7572 6.92985 12.0512L6.13869 16.4874L10.0442 14.3674C10.278 14.2382 10.571 14.2264 10.8226 14.3625L14.737 16.4874L13.9458 12.0512C13.9044 11.7976 13.9813 11.5283 14.1786 11.336L17.4084 8.2068L13.0343 7.60306C12.7571 7.58136 12.4966 7.41564 12.3684 7.14534Z" fill="#B0B5BD"/>
</svg>
