<svg width="33" height="31" viewBox="0 0 33 31" fill="none" xmlns="http://www.w3.org/2000/svg">
<path d="M17.7076 1.0443L21.6214 9.23379L30.5283 10.4623C31.529 10.6006 32.2281 11.5235 32.0896 12.5236C32.0287 12.9639 31.8156 13.3457 31.5107 13.6234L25.047 19.88L26.6493 28.8528C26.8233 29.8489 26.1562 30.7974 25.1595 30.9713C24.7362 31.0452 24.3214 30.9674 23.971 30.7772L23.9705 30.7781L16.053 26.4843L8.13553 30.7781C7.2455 31.2604 6.13276 30.9303 5.65016 30.041C5.43394 29.6425 5.38107 29.1994 5.46837 28.7882L7.059 19.88L0.553533 13.5829C-0.170317 12.8793 -0.186315 11.7224 0.517773 10.9991C0.813159 10.6955 1.18837 10.5167 1.57786 10.4631L10.4846 9.23379L14.3986 1.0443C14.8337 0.131236 15.9272 -0.256486 16.841 0.17829C17.2363 0.366449 17.5331 0.677722 17.7076 1.0443Z" fill="white"/>
</svg>
