<svg width="23" height="21" viewBox="0 0 23 21" fill="none" xmlns="http://www.w3.org/2000/svg">
<mask id="path-1-inside-1_1630_15" fill="white">
<path fill-rule="evenodd" clip-rule="evenodd" d="M11.2888 0.0127349C11.1537 0.045266 10.9853 0.135833 10.8892 0.22769C10.7874 0.325025 10.5424 0.787982 8.74288 4.28323C7.86392 5.99045 7.61248 6.46151 7.57581 6.46961C7.55009 6.47528 6.15326 6.67294 4.47173 6.90885C0.50765 7.46497 0.574686 7.45481 0.443019 7.51931C0.295683 7.59149 0.1365 7.75393 0.0615735 7.90863C0.00838509 8.01843 -0.000741917 8.06465 4.4893e-05 8.22019C0.000831703 8.37217 0.011285 8.42447 0.0623827 8.53175C0.137444 8.68932 0.0571003 8.61306 4.73624 12.9673C4.93218 13.1496 5.13189 13.3438 5.18004 13.3987L5.2676 13.4987L4.68157 16.72C4.16205 19.5757 4.09519 19.9693 4.09256 20.1884C4.08973 20.4218 4.09321 20.4424 4.15535 20.5596C4.31921 20.8689 4.68327 21.0488 5.0232 20.9884C5.17445 20.9615 5.10341 20.9962 9.17733 18.9583C10.4054 18.344 11.4372 17.8319 11.4703 17.8202C11.5246 17.8011 11.6896 17.8786 13.1491 18.6092C15.9776 20.0249 17.3907 20.7286 17.6429 20.8469C17.8794 20.9579 17.8944 20.9619 18.0748 20.9619C18.3394 20.9619 18.4817 20.9074 18.6588 20.7382C18.8276 20.5768 18.8984 20.42 18.8973 20.2099C18.8964 20.0463 18.8674 19.8786 18.2161 16.2778C17.9436 14.771 17.7188 13.5231 17.7166 13.5047C17.7144 13.4858 18.4719 12.7606 19.4548 11.8405C21.8596 9.58968 22.8223 8.67475 22.8861 8.57963C22.916 8.53506 22.9565 8.43871 22.9761 8.36555C23.0829 7.9674 22.8207 7.53882 22.4076 7.43598C22.2658 7.40068 20.99 7.22322 17.6115 6.7689C16.4183 6.60844 15.4178 6.4715 15.3881 6.46456C15.3423 6.45388 15.2083 6.20919 14.5031 4.84896C14.046 3.96733 13.3255 2.57743 12.9018 1.76031L12.1316 0.274639L12 0.175971C11.9277 0.121673 11.8231 0.0624985 11.7677 0.0444495C11.6389 0.00252859 11.3976 -0.0134577 11.2888 0.0127349Z"/>
</mask>
<path d="M11.2888 0.0127349L10.7038 -2.41786L10.7037 -2.41782L11.2888 0.0127349ZM10.8892 0.22769L9.16182 -1.57956L10.8892 0.22769ZM8.74288 4.28323L10.9656 5.42759L10.9656 5.42757L8.74288 4.28323ZM7.57581 6.46961L8.1143 8.91093L8.11514 8.91074L7.57581 6.46961ZM4.47173 6.90885L4.81906 9.3846L4.81906 9.3846L4.47173 6.90885ZM0.443019 7.51931L1.54281 9.76441L1.54288 9.76438L0.443019 7.51931ZM0.0615735 7.90863L2.31149 8.99854L2.31158 8.99835L0.0615735 7.90863ZM4.4893e-05 8.22019L-2.49992 8.23284L-2.49992 8.23314L4.4893e-05 8.22019ZM0.0623827 8.53175L-2.19469 9.60676L-2.19459 9.60695L0.0623827 8.53175ZM4.73624 12.9673L6.43935 11.1371L6.43932 11.1371L4.73624 12.9673ZM5.18004 13.3987L3.2993 15.0458L3.29952 15.0461L5.18004 13.3987ZM5.2676 13.4987L7.72723 13.9462L7.94321 12.759L7.14813 11.8514L5.2676 13.4987ZM4.68157 16.72L7.14119 17.1675L7.14119 17.1675L4.68157 16.72ZM4.09256 20.1884L6.59238 20.2187L6.59238 20.2184L4.09256 20.1884ZM4.15535 20.5596L6.36449 19.3893L6.36435 19.389L4.15535 20.5596ZM5.0232 20.9884L4.58575 18.5269L4.58568 18.527L5.0232 20.9884ZM9.17733 18.9583L8.0589 16.7225L8.05889 16.7225L9.17733 18.9583ZM11.4703 17.8202L12.2998 20.1786L12.3006 20.1783L11.4703 17.8202ZM13.1491 18.6092L12.0301 20.8448L12.0301 20.8448L13.1491 18.6092ZM17.6429 20.8469L18.705 18.5838L18.7049 18.5837L17.6429 20.8469ZM18.6588 20.7382L20.386 22.5456L20.3863 22.5453L18.6588 20.7382ZM18.8973 20.2099L16.3973 20.2229L16.3973 20.223L18.8973 20.2099ZM18.2161 16.2778L15.756 16.7227L15.756 16.7227L18.2161 16.2778ZM17.7166 13.5047L20.1993 13.2107L20.1991 13.2092L17.7166 13.5047ZM19.4548 11.8405L17.7465 10.0153L17.7464 10.0153L19.4548 11.8405ZM22.8861 8.57963L20.8101 7.18677L20.8099 7.18708L22.8861 8.57963ZM22.9761 8.36555L25.3908 9.01326L25.3909 9.01276L22.9761 8.36555ZM22.4076 7.43598L21.8037 9.86194L21.8037 9.86195L22.4076 7.43598ZM17.6115 6.7689L17.2782 9.2466L17.2783 9.2466L17.6115 6.7689ZM15.3881 6.46456L15.9571 4.03016L15.9554 4.02977L15.3881 6.46456ZM14.5031 4.84896L16.7226 3.69838L16.7226 3.69831L14.5031 4.84896ZM12.9018 1.76031L15.1213 0.609629L15.1213 0.609611L12.9018 1.76031ZM12.1316 0.274639L14.351 -0.876058L14.0883 -1.38284L13.6316 -1.72535L12.1316 0.274639ZM12 0.175971L10.4993 2.17542L10.5 2.17596L12 0.175971ZM11.7677 0.0444495L10.9937 2.42161L10.9937 2.42163L11.7677 0.0444495ZM10.7037 -2.41782C10.1597 -2.28688 9.59175 -1.99048 9.16182 -1.57956L12.6166 2.03494C12.4593 2.18524 12.3256 2.26365 12.2587 2.29961C12.1885 2.33739 12.0621 2.398 11.8739 2.44329L10.7037 -2.41782ZM9.16182 -1.57956C8.84999 -1.2815 8.65861 -0.941213 8.60657 -0.852327C8.51167 -0.690266 8.39355 -0.472591 8.24303 -0.188168C7.9359 0.392153 7.4171 1.3967 6.52016 3.1389L10.9656 5.42757C11.8681 3.67452 12.3716 2.69996 12.6623 2.15065C12.8107 1.87026 12.8854 1.7355 12.9213 1.67415C13.0001 1.53963 12.8775 1.78555 12.6166 2.03494L9.16182 -1.57956ZM6.52017 3.13888C6.0793 3.99517 5.80514 4.52325 5.63802 4.83634C5.55145 4.99851 5.51031 5.07147 5.49681 5.09435C5.48578 5.11306 5.51286 5.06502 5.56414 4.99302C5.58574 4.9627 5.65707 4.86319 5.76734 4.74638C5.82224 4.68821 5.92902 4.58039 6.08189 4.46598C6.16099 4.40677 6.274 4.32951 6.41837 4.25395C6.55992 4.17986 6.76935 4.0875 7.03649 4.02848L8.11514 8.91074C8.61626 8.80003 8.95143 8.56362 9.0779 8.46897C9.23392 8.35219 9.34429 8.24106 9.40327 8.17858C9.52168 8.05315 9.60303 7.94102 9.63673 7.8937C9.71222 7.78773 9.77182 7.68822 9.80325 7.63495C9.87468 7.51388 9.9582 7.36085 10.049 7.19085C10.2365 6.83957 10.5275 6.27851 10.9656 5.42759L6.52017 3.13888ZM7.03733 4.02829C7.14263 4.00507 7.25709 3.98958 7.18257 4.00081C7.17647 4.00173 7.16399 4.00358 7.14323 4.00661C7.10268 4.01252 7.04209 4.02125 6.96231 4.03267C6.80337 4.05541 6.5753 4.08781 6.29443 4.12755C5.73306 4.20699 4.96449 4.31524 4.12441 4.43309L4.81906 9.3846C5.66051 9.26655 6.43112 9.15802 6.99497 9.07823C7.27672 9.03836 7.50777 9.00554 7.67052 8.98226C7.75158 8.97066 7.81748 8.96117 7.86481 8.95427C7.88799 8.95089 7.90979 8.94768 7.9278 8.94496C7.93622 8.94369 7.94845 8.94184 7.96145 8.93977C7.96753 8.93881 7.97923 8.93693 7.99342 8.93452C8.00047 8.93332 8.01255 8.93123 8.02742 8.92849C8.03734 8.92667 8.07129 8.92042 8.1143 8.91093L7.03733 4.02829ZM4.12441 4.43309C2.15334 4.70961 1.15862 4.84893 0.645678 4.92665C0.409678 4.96241 0.19423 4.99682 0.0180918 5.03674C-0.0867581 5.0605 -0.229439 5.09732 -0.390912 5.15822C-0.54659 5.21694 -0.68405 5.28758 -0.656838 5.27425L1.54288 9.76438C1.603 9.73492 1.49225 9.79177 1.37359 9.83652C1.24914 9.88346 1.1538 9.90615 1.12312 9.9131C1.09532 9.9194 1.13555 9.9095 1.39476 9.87022C1.87224 9.79787 2.82605 9.6642 4.81906 9.3846L4.12441 4.43309ZM-0.656772 5.27421C-1.33073 5.60436 -1.88233 6.1869 -2.18843 6.81891L2.31158 8.99835C2.20804 9.21213 2.09193 9.34992 2.01083 9.43268C1.9328 9.51233 1.78461 9.64596 1.54281 9.76441L-0.656772 5.27421ZM-2.18834 6.81873C-2.24876 6.94346 -2.37185 7.20738 -2.44206 7.5629C-2.50344 7.87368 -2.50038 8.14225 -2.49992 8.23284L2.50001 8.20755C2.49968 8.14259 2.50691 8.31028 2.4632 8.53161C2.41065 8.7977 2.31872 8.9836 2.31149 8.99854L-2.18834 6.81873ZM-2.49992 8.23314C-2.49939 8.33633 -2.49795 8.58885 -2.43908 8.88315C-2.37237 9.2166 -2.26105 9.46742 -2.19469 9.60676L2.31945 7.45675C2.33472 7.4888 2.41526 7.65983 2.46377 7.90232C2.50445 8.10565 2.50026 8.25603 2.50001 8.20725L-2.49992 8.23314ZM-2.19459 9.60695C-2.21235 9.56967 -2.12579 9.76503 -1.9965 9.9618C-1.8773 10.1432 -1.75559 10.2821 -1.67641 10.3684C-1.53152 10.5265 -1.32401 10.7274 -1.04814 10.9892C-0.462364 11.5451 0.70086 12.6271 3.03316 14.7974L6.43932 11.1371C4.09248 8.95323 2.95631 7.89628 2.39371 7.36237C2.2546 7.23036 2.15875 7.13806 2.09229 7.07279C2.02196 7.00371 2.00328 6.98317 2.00909 6.9895C2.01212 6.99282 2.09125 7.07775 2.18219 7.21617C2.28323 7.36995 2.35588 7.53322 2.31936 7.45655L-2.19459 9.60695ZM3.03313 14.7974C3.11863 14.877 3.20431 14.9585 3.27088 15.0233C3.30443 15.0559 3.32862 15.0798 3.34318 15.0945C3.35051 15.1019 3.35178 15.1033 3.34856 15.0999C3.3468 15.0981 3.34204 15.0931 3.3351 15.0856C3.32881 15.0788 3.31597 15.0648 3.2993 15.0458L7.06079 11.7517C6.91073 11.5803 6.60586 11.2921 6.43935 11.1371L3.03313 14.7974ZM3.29952 15.0461L3.38708 15.146L7.14813 11.8514L7.06056 11.7514L3.29952 15.0461ZM2.80798 13.0512L2.22194 16.2725L7.14119 17.1675L7.72723 13.9462L2.80798 13.0512ZM2.22194 16.2725C1.96325 17.6945 1.81353 18.5237 1.72852 19.0244C1.65325 19.4675 1.59682 19.8183 1.59274 20.1584L6.59238 20.2184C6.59093 20.3394 6.56924 20.3838 6.65794 19.8615C6.73689 19.3966 6.88036 18.6012 7.14119 17.1675L2.22194 16.2725ZM1.59274 20.1581C1.5923 20.1944 1.58043 20.5142 1.63459 20.8345C1.7151 21.3105 1.90401 21.6504 1.94634 21.7302L6.36435 19.389C6.34898 19.36 6.39026 19.4343 6.43306 19.5391C6.48915 19.6763 6.53614 19.8325 6.56459 20.0007C6.58877 20.1437 6.59124 20.2489 6.59168 20.2669C6.59207 20.2828 6.59161 20.2817 6.59238 20.2187L1.59274 20.1581ZM1.9462 21.73C2.60867 22.9805 4.03165 23.7038 5.46071 23.4498L4.58568 18.527C5.3349 18.3938 6.02974 18.7574 6.36449 19.3893L1.9462 21.73ZM5.46065 23.4498C5.43379 23.4546 5.58132 23.4312 5.73749 23.3885C5.89462 23.3455 6.02507 23.2953 6.1186 23.2567C6.28041 23.1897 6.48173 23.0934 6.7269 22.9736C7.25088 22.7176 8.26718 22.209 10.2958 21.1942L8.05889 16.7225C6.01356 17.7456 5.02841 18.2386 4.53162 18.4813C4.26641 18.6109 4.20251 18.6384 4.20779 18.6362C4.22306 18.6299 4.30241 18.5973 4.41856 18.5656C4.53376 18.5341 4.65042 18.5154 4.58575 18.5269L5.46065 23.4498ZM10.2958 21.1942C10.9082 20.8879 11.4707 20.6075 11.8834 20.4026C12.0901 20.3 12.2571 20.2174 12.3733 20.1603C12.432 20.1315 12.4739 20.111 12.5001 20.0984C12.514 20.0917 12.5176 20.09 12.5147 20.0914C12.514 20.0917 12.5036 20.0966 12.4883 20.1035C12.4808 20.1068 12.4648 20.114 12.4439 20.1228C12.4341 20.127 12.3761 20.1518 12.2998 20.1786L10.6409 15.4618C10.5636 15.489 10.5039 15.5145 10.4922 15.5195C10.4693 15.5292 10.4508 15.5374 10.4404 15.5421C10.4191 15.5517 10.4009 15.5601 10.3905 15.565C10.3683 15.5755 10.3451 15.5866 10.3252 15.5962C10.2838 15.6162 10.2301 15.6424 10.1682 15.6728C10.0432 15.7343 9.86931 15.8203 9.66044 15.924C9.24192 16.1317 8.67454 16.4145 8.0589 16.7225L10.2958 21.1942ZM12.3006 20.1783C11.8291 20.3443 11.415 20.3305 11.1597 20.2957C10.9342 20.2648 10.7719 20.2089 10.7279 20.1936C10.6694 20.1732 10.6364 20.1583 10.6468 20.1628C10.6529 20.1655 10.6746 20.1751 10.7195 20.1962C10.9149 20.288 11.287 20.4728 12.0301 20.8448L14.2681 16.3736C13.5517 16.015 13.1116 15.7957 12.846 15.671C12.7307 15.6168 12.5544 15.5351 12.3727 15.4719C12.3384 15.4599 11.555 15.14 10.64 15.4621L12.3006 20.1783ZM12.0301 20.8448C14.8326 22.2475 16.291 22.9741 16.5809 23.1102L18.7049 18.5837C18.4905 18.4831 17.1226 17.8024 14.2681 16.3736L12.0301 20.8448ZM16.5808 23.1101C16.6231 23.13 16.9156 23.2764 17.2367 23.3619C17.6543 23.4731 18.0202 23.4619 18.0748 23.4619V18.4619C18.0187 18.4619 18.0681 18.4608 18.137 18.4655C18.2373 18.4725 18.3718 18.4899 18.523 18.5302C18.6563 18.5657 18.7483 18.6048 18.7653 18.6121C18.7761 18.6166 18.7718 18.6151 18.705 18.5838L16.5808 23.1101ZM18.0748 23.4619C18.3688 23.4619 18.8086 23.434 19.294 23.2481C19.7943 23.0564 20.1492 22.7719 20.386 22.5456L16.9315 18.9308C16.9913 18.8737 17.1865 18.7011 17.5053 18.579C17.8091 18.4626 18.0453 18.4619 18.0748 18.4619V23.4619ZM20.3863 22.5453C20.9906 21.9676 21.4024 21.1743 21.3973 20.1968L16.3973 20.223C16.3963 20.0286 16.4314 19.7557 16.5632 19.4636C16.6894 19.184 16.8495 19.0092 16.9313 18.9311L20.3863 22.5453ZM21.3973 20.1968C21.3955 19.8623 21.3412 19.5523 21.2639 19.106C21.1731 18.5819 21.0008 17.6275 20.6762 15.8328L15.756 16.7227C16.0827 18.5289 16.2505 19.4587 16.3373 19.9595C16.4375 20.5382 16.3982 20.3938 16.3973 20.2229L21.3973 20.1968ZM20.6762 15.8328C20.54 15.0798 20.4158 14.3918 20.3254 13.8899C20.2802 13.6389 20.2435 13.435 20.2181 13.2931C20.2053 13.2219 20.1956 13.1674 20.1891 13.1307C20.1858 13.112 20.1836 13.0999 20.1825 13.0933C20.1818 13.0895 20.182 13.0904 20.1826 13.0938C20.1828 13.0952 20.1838 13.1013 20.1852 13.1099C20.1859 13.114 20.1872 13.1226 20.1889 13.1337C20.1896 13.1383 20.1944 13.1701 20.1993 13.2107L15.234 13.7987C15.2481 13.9182 15.5007 15.3114 15.756 16.7227L20.6762 15.8328ZM20.1991 13.2092C20.232 13.4862 20.2126 13.7182 20.1887 13.8773C20.1641 14.04 20.1276 14.1732 20.0972 14.2679C20.0384 14.4512 19.9704 14.5892 19.9322 14.6623C19.8551 14.8096 19.7803 14.9157 19.7522 14.9551C19.6878 15.0451 19.6322 15.1094 19.6188 15.125C19.5969 15.1504 19.58 15.1689 19.5727 15.1768C19.5643 15.1859 19.5586 15.1918 19.5569 15.1937C19.5544 15.1963 19.5675 15.1826 19.606 15.1446C19.6781 15.0733 19.7923 14.9628 19.9452 14.8164C20.2482 14.5262 20.6761 14.1217 21.1633 13.6657L17.7464 10.0153C17.2506 10.4794 16.8083 10.8975 16.4874 11.2047C16.3283 11.357 16.1921 11.4888 16.092 11.5876C16.0445 11.6346 15.9912 11.6879 15.9438 11.7374C15.9242 11.7579 15.8799 11.8044 15.8311 11.8611C15.812 11.8832 15.7522 11.9528 15.685 12.0467C15.6555 12.088 15.5796 12.1958 15.5019 12.3444C15.4633 12.4181 15.3952 12.5566 15.3362 12.7404C15.2893 12.8865 15.1727 13.2843 15.2341 13.8002L20.1991 13.2092ZM21.1632 13.6657C22.3658 12.5401 23.2138 11.743 23.7705 11.2139C24.0477 10.9505 24.261 10.7456 24.4127 10.5966C24.4873 10.5234 24.5584 10.4526 24.6189 10.3897C24.6485 10.359 24.6874 10.318 24.7281 10.2725C24.7434 10.2554 24.8534 10.1345 24.9624 9.97217L20.8099 7.18708C20.9506 6.97721 21.1035 6.83212 21.019 6.91975C21.0054 6.93394 20.9719 6.96777 20.9097 7.02888C20.7878 7.14856 20.5982 7.3309 20.3261 7.5895C19.7844 8.10434 18.9486 8.8901 17.7465 10.0153L21.1632 13.6657ZM24.9621 9.97248C25.194 9.6269 25.327 9.251 25.3908 9.01326L20.5615 7.71785C20.5871 7.62226 20.613 7.55579 20.6305 7.5142C20.641 7.48906 20.6567 7.45375 20.6787 7.41013C20.6967 7.37454 20.7401 7.291 20.8101 7.18677L24.9621 9.97248ZM25.3909 9.01276C25.8797 7.1892 24.705 5.43157 23.0115 5.01002L21.8037 9.86195C20.9365 9.64607 20.286 8.7456 20.5614 7.71834L25.3909 9.01276ZM23.0116 5.01003C22.8296 4.96473 22.5734 4.92766 22.4425 4.90812C22.2376 4.87755 21.9494 4.8365 21.5677 4.78341C20.8025 4.67698 19.6339 4.51836 17.9446 4.2912L17.2783 9.2466C18.9676 9.47376 20.1261 9.63103 20.8789 9.73574C21.2562 9.78822 21.5248 9.82654 21.7045 9.85337C21.9583 9.89123 21.9147 9.88958 21.8037 9.86194L23.0116 5.01003ZM17.9447 4.29121C17.3495 4.21116 16.8031 4.13708 16.4025 4.08226C16.2019 4.0548 16.0397 4.03241 15.9268 4.01661C15.8698 4.00863 15.8286 4.00278 15.8024 3.99898C15.7886 3.99698 15.7839 3.99626 15.7851 3.99644C15.7858 3.99655 15.7877 3.99685 15.7906 3.99731C15.7933 3.99774 15.7985 3.99857 15.8054 3.99972C15.8113 4.00071 15.8244 4.00291 15.8412 4.006C15.8489 4.00741 15.8966 4.01603 15.9571 4.03016L14.8192 8.89896C14.8806 8.91331 14.9297 8.92221 14.9392 8.92396C14.958 8.9274 14.9733 8.93 14.982 8.93146C14.9999 8.93444 15.0155 8.93686 15.0247 8.93828C15.0444 8.94131 15.0654 8.9444 15.0841 8.94712C15.123 8.95276 15.1741 8.96 15.2338 8.96835C15.3541 8.98519 15.5221 9.00836 15.7245 9.03607C16.1299 9.09156 16.6803 9.16618 17.2782 9.2466L17.9447 4.29121ZM15.9554 4.02977C16.3906 4.13116 16.6975 4.32597 16.8633 4.44837C17.0348 4.57497 17.1528 4.69696 17.2155 4.76599C17.3365 4.89901 17.4084 5.0099 17.4189 5.02594C17.4487 5.0713 17.447 5.0742 17.3854 4.96178C17.2748 4.75978 17.0796 4.38702 16.7226 3.69838L12.2836 5.99954C12.6318 6.67113 12.8562 7.10084 13.0003 7.36391C13.0661 7.48403 13.1505 7.63511 13.2404 7.77187C13.281 7.8336 13.3764 7.97599 13.5162 8.12975C13.5788 8.19864 14.0247 8.71387 14.8209 8.89936L15.9554 4.02977ZM16.7226 3.69831C16.2655 2.81673 15.5449 1.42677 15.1213 0.609629L10.6824 2.91099C11.106 3.7281 11.8266 5.11794 12.2837 5.99961L16.7226 3.69831ZM15.1213 0.609611L14.351 -0.876058L9.91214 1.42534L10.6824 2.911L15.1213 0.609611ZM13.6316 -1.72535L13.5 -1.82402L10.5 2.17596L10.6316 2.27463L13.6316 -1.72535ZM13.5008 -1.82348C13.3156 -1.96243 12.961 -2.1962 12.5417 -2.33273L10.9937 2.42163C10.8648 2.37965 10.7738 2.3371 10.7408 2.32138C10.6977 2.30083 10.666 2.28357 10.646 2.27225C10.6125 2.25327 10.5639 2.22393 10.4993 2.17542L13.5008 -1.82348ZM12.5417 -2.33271C12.2024 -2.4432 11.8815 -2.47853 11.686 -2.49149C11.5254 -2.50212 11.1333 -2.52123 10.7038 -2.41786L11.8738 2.44333C11.6753 2.49111 11.5278 2.49736 11.4871 2.49891C11.4265 2.50123 11.3827 2.49938 11.3556 2.49758C11.3273 2.49571 11.2921 2.49223 11.2478 2.48493C11.2121 2.47906 11.1195 2.4626 10.9937 2.42161L12.5417 -2.33271Z" fill="#B0B5BD" mask="url(#path-1-inside-1_1630_15)"/>
</svg>
