<svg width="27" height="40" viewBox="0 0 27 40" fill="none" xmlns="http://www.w3.org/2000/svg">
<path fill-rule="evenodd" clip-rule="evenodd" d="M7.4784 11.1718V14.375H0.874172C0.479337 14.375 0 14.8177 0 15.3907V21.5625C0 22.0765 0.340597 22.5781 0.971326 22.5781H7.4784V38.8281C7.4784 39.4102 7.83254 40 8.35257 40H17.0936C17.7012 40 18.0647 39.5668 18.0647 39.0625V22.5781H25.7374C26.4592 22.5781 26.7085 21.9997 26.7085 21.4062V15.5469C26.7085 14.9162 26.4008 14.375 25.6403 14.375H18.0647V10.4688C18.0647 7.66204 19.9815 7.96488 21.52 7.77953C24.554 7.41401 27 8.45617 27 6.71881V1.01561C27 0.450574 26.6116 0 25.9317 0H19.2275C18.0374 0.0444028 16.9259 0.135829 16.0239 0.311417C14.7757 0.55456 14.7925 0.618067 13.734 0.969599C13.3831 1.08608 13.0416 1.26447 12.7265 1.40899C11.9693 1.75653 10.7205 2.64369 10.1958 3.20164C7.87361 5.67207 7.4784 7.87227 7.4784 11.1718Z" fill="#B0B5BD"/>
</svg>
