<svg width="189" height="189" viewBox="0 0 189 189" fill="none" xmlns="http://www.w3.org/2000/svg">
<path fill-rule="evenodd" clip-rule="evenodd" d="M122.303 108.527H107.933C107.292 108.527 106.688 108.652 106.144 108.877C105.581 109.11 105.068 109.459 104.633 109.894C104.198 110.329 103.849 110.842 103.616 111.405C103.391 111.949 103.266 112.553 103.266 113.194V178.599L101.422 178.749C100.92 178.79 100.349 178.829 99.7095 178.868C99.1826 178.899 98.6028 178.928 97.9698 178.954C97.41 178.976 96.8253 178.994 96.2232 179.007C95.4889 179.022 94.9174 179.03 94.5213 179.03C88.8694 179.03 83.3411 178.474 77.9904 177.414C72.5086 176.328 67.2082 174.708 62.1466 172.613C56.9872 170.476 52.0863 167.845 47.5048 164.782C42.8661 161.68 38.5594 158.142 34.6476 154.23C26.8496 146.432 20.5613 137.105 16.2647 126.731C14.1689 121.669 12.5494 116.369 11.4636 110.887C10.4038 105.536 9.84781 100.008 9.84781 94.3557C9.84781 88.7038 10.4038 83.1755 11.4636 77.8248C12.5494 72.343 14.1689 67.0425 16.2647 61.981C18.4016 56.8216 21.0322 51.9207 24.0959 47.3392C27.1977 42.7005 30.7358 38.3937 34.6476 34.4819C38.5594 30.5701 42.8658 27.0321 47.5051 23.9299C52.0863 20.8658 56.9876 18.2353 62.1463 16.0991C67.2074 14.0029 72.5078 12.3834 77.9901 11.2976C83.3407 10.2378 88.869 9.68181 94.5213 9.68181C100.173 9.68181 105.702 10.2378 111.052 11.2976C116.534 12.3834 121.834 14.0029 126.896 16.0987C132.055 18.2356 136.956 20.8662 141.538 23.9299C146.176 27.0317 150.483 30.5697 154.395 34.4815C158.307 38.393 161.845 42.6993 164.947 47.3387C168.01 51.9203 170.641 56.8216 172.778 61.981C174.874 67.0425 176.493 72.343 177.579 77.8248C178.639 83.1755 179.195 88.7038 179.195 94.3557C179.195 100.008 178.639 105.536 177.579 110.887C176.493 116.369 174.874 121.669 172.778 126.731C170.641 131.89 168.01 136.791 164.947 141.373C161.845 146.011 158.307 150.318 154.395 154.23C151.707 156.918 148.825 159.435 145.772 161.759C142.747 164.062 139.557 166.169 136.222 168.059C132.921 169.93 129.485 171.585 125.933 173.005H125.927C122.411 174.41 118.787 175.586 115.076 176.511L112.599 177.128V117.86H125.925C126.478 117.86 127.002 117.768 127.481 117.6C127.98 117.425 128.443 117.164 128.85 116.836C129.265 116.503 129.62 116.103 129.898 115.654C130.169 115.218 130.371 114.726 130.485 114.198L136.13 92.0865C136.287 91.4712 136.313 90.8543 136.228 90.2663C136.139 89.6487 135.93 89.064 135.623 88.5469H135.617C135.309 88.0291 134.897 87.5677 134.4 87.1973C133.925 86.8428 133.371 86.5729 132.758 86.4172L132.465 86.3491L132.192 86.3068L132.187 86.3019C131.987 86.2845 131.809 86.2724 131.609 86.2633L106.373 86.266V86.2713C105.733 86.2713 105.128 86.396 104.584 86.6213C104.022 86.8541 103.508 87.2029 103.073 87.6379C102.638 88.073 102.289 88.5866 102.056 89.149C101.831 89.6933 101.706 90.2972 101.706 90.9379C101.706 91.5781 101.831 92.1825 102.056 92.7267C102.289 93.2891 102.638 93.8027 103.073 94.2427C103.5 94.6705 104.014 95.0171 104.587 95.2545C105.129 95.4805 105.733 95.6045 106.373 95.6045H125.603L122.303 108.527V108.527ZM7.62885 58.3991C5.30973 63.9985 3.51447 69.8814 2.30653 75.9834C1.13147 81.9203 0.514648 88.0639 0.514648 94.3557C0.514648 100.647 1.13147 106.791 2.30653 112.728C3.51447 118.83 5.30936 124.713 7.62885 130.313C9.99673 136.029 12.9157 141.465 16.3184 146.552C19.7487 151.68 23.6816 156.462 28.0485 160.829C32.4154 165.196 37.1976 169.129 42.3257 172.559C47.4122 175.962 52.8483 178.881 58.5648 181.249C64.1642 183.568 70.047 185.363 76.149 186.571C82.0859 187.746 88.2295 188.363 94.5213 188.363C107.262 188.363 119.406 185.832 130.476 181.247C141.97 176.486 152.321 169.502 160.994 160.829C165.361 156.462 169.294 151.68 172.724 146.552C176.127 141.465 179.046 136.029 181.414 130.313C183.733 124.713 185.528 118.83 186.736 112.728C187.911 106.791 188.528 100.647 188.528 94.3557C188.528 88.0639 187.911 81.9203 186.736 75.9834C185.528 69.8814 183.733 63.9985 181.414 58.3991C179.046 52.6822 176.127 47.2465 172.724 42.16C169.294 37.032 165.36 32.249 160.994 27.8825C156.627 23.5156 151.845 19.5827 146.717 16.1524C141.63 12.7497 136.194 9.83073 130.478 7.46286C124.878 5.14374 118.996 3.34845 112.894 2.14051C106.957 0.965458 100.813 0.348633 94.5213 0.348633C88.2295 0.348633 82.0859 0.965458 76.149 2.14051C70.047 3.34845 64.1642 5.14336 58.5644 7.46286C52.8479 9.83073 47.4122 12.75 42.3249 16.1527C37.1972 19.583 32.415 23.5164 28.0485 27.8829C23.6816 32.2497 19.7487 37.032 16.3184 42.16C12.9157 47.2465 9.99673 52.6826 7.62885 58.3991ZM84.6401 91.4912C84.4598 81.9887 84.2818 72.5947 85.0203 64.5621C85.3987 60.4431 86.0215 56.6753 87.0076 53.4238C88.0224 50.0777 89.4254 47.2651 91.3435 45.1565C92.2309 44.181 93.2677 43.3332 94.4325 42.5996C95.5702 41.883 96.8333 41.276 98.2026 40.7646C99.5402 40.265 100.962 39.859 102.449 39.5336C103.931 39.2093 105.496 38.9576 107.129 38.7649C108.512 38.602 109.963 38.4799 111.466 38.393C112.914 38.3098 114.437 38.2592 116.017 38.2361C117.548 38.2138 119.107 38.2184 120.681 38.2414C122.282 38.2652 123.87 38.3075 125.45 38.3593L127.388 38.4229V49.0626L125.388 49.0694C123.424 49.0758 121.567 49.1272 119.79 49.2735C118.087 49.4137 116.512 49.6446 115.062 50.0143C113.674 50.368 112.406 50.8492 111.258 51.4997C110.117 52.146 109.072 52.971 108.12 54.0179C107.51 54.688 106.983 55.4186 106.529 56.2002C106.066 56.9973 105.675 57.8504 105.349 58.7473C105.014 59.6687 104.741 60.6484 104.522 61.6738C104.3 62.7139 104.133 63.7933 104.013 64.9007C103.843 66.4575 103.76 67.2879 103.728 68.0014C103.695 68.7354 103.71 69.3987 103.739 70.6112L103.775 72.2519C103.787 72.8785 103.925 73.4772 104.163 74.0218C104.409 74.5838 104.765 75.0896 105.203 75.5102C105.638 75.9294 106.157 76.2643 106.731 76.4891C107.287 76.7065 107.89 76.8209 108.515 76.8088C109.141 76.7967 109.74 76.6588 110.285 76.4207C110.847 76.1747 111.352 75.8183 111.773 75.381C112.192 74.9452 112.527 74.4262 112.752 73.8521C112.969 73.2969 113.084 72.6937 113.072 72.0689L113.034 70.4411C113.014 69.6202 113.002 69.1587 113.018 68.6832C113.039 68.0324 113.098 67.4886 113.231 66.2682L113.273 65.8849C113.335 65.3191 113.407 64.7786 113.491 64.2722C113.577 63.7574 113.676 63.274 113.792 62.8295C113.924 62.3246 114.081 61.8646 114.266 61.4583C114.476 60.9987 114.723 60.6049 115.011 60.2889C116.014 59.1857 118.03 58.6804 120.862 58.4857C123.369 58.313 126.669 58.3576 130.531 58.4045L131.177 58.4169C131.436 58.4237 131.663 58.4332 131.841 58.4464L132.054 58.4471C132.696 58.4471 133.301 58.3224 133.845 58.0975C134.407 57.8655 134.92 57.5174 135.354 57.0831C135.79 56.6477 136.138 56.1345 136.371 55.5721C136.596 55.0275 136.721 54.4224 136.721 53.7806V35.9605H136.705L136.707 33.9604C136.707 33.3522 136.587 32.7645 136.37 32.2233C136.146 31.6684 135.816 31.1639 135.406 30.7364C134.995 30.3089 134.505 29.9597 133.961 29.7156C133.432 29.4778 132.851 29.3354 132.242 29.3119H132.236C129.924 29.2155 127.608 29.1184 125.384 29.0454C123.106 28.971 120.856 28.917 118.672 28.906C116.494 28.8954 114.332 28.926 112.198 29.019C110.115 29.1101 108.055 29.265 106.031 29.5043C103.811 29.7666 101.661 30.1317 99.6018 30.623C97.5574 31.1106 95.614 31.721 93.7949 32.4762C91.9841 33.2279 90.289 34.1218 88.7318 35.1793C87.1826 36.2311 85.7502 37.4587 84.4527 38.8855C82.2666 41.2885 80.5862 44.1586 79.2993 47.3943C77.9912 50.6829 77.0826 54.3547 76.4597 58.3036C75.8248 62.3253 75.4846 66.6382 75.3198 71.132C75.1539 75.6584 75.1641 80.3552 75.2302 85.1197L75.2586 87.0956L73.9376 87.1221C72.3071 87.1546 70.496 87.226 68.6489 87.2986C64.7273 87.4524 60.6405 87.6127 57.1161 87.4369L56.9891 87.4357V87.4411C56.3488 87.4411 55.7445 87.5658 55.2003 87.791C54.6379 88.0238 54.1242 88.3727 53.6843 88.8077C53.2564 89.2344 52.9099 89.7484 52.6725 90.3214C52.4465 90.8641 52.3225 91.4678 52.3225 92.1077V111.36C52.3225 112.002 52.4472 112.607 52.6721 113.151C52.9042 113.713 53.2523 114.226 53.6865 114.66C54.1219 115.095 54.6352 115.444 55.1976 115.677C55.7422 115.902 56.3473 116.027 56.9891 116.027H73.4346V153.615C73.4346 154.256 73.5593 154.861 73.7842 155.405C74.0162 155.967 74.3643 156.48 74.7986 156.914C75.234 157.35 75.7473 157.698 76.3097 157.931C76.8543 158.156 77.4594 158.281 78.1012 158.281C78.7426 158.281 79.3476 158.156 79.8923 157.931C80.4596 157.696 80.9721 157.35 81.4011 156.921C81.8342 156.487 82.1827 155.972 82.4178 155.403C82.643 154.859 82.7677 154.255 82.7677 153.615V111.36C82.7677 110.72 82.643 110.116 82.4178 109.571C82.1849 109.009 81.8361 108.495 81.4011 108.06C80.9661 107.625 80.4524 107.276 79.89 107.044C79.3458 106.818 78.7418 106.694 78.1012 106.694H61.6557V96.6654L80.0847 96.3014C80.7113 96.2893 81.31 96.1514 81.8546 95.9132C82.4166 95.6672 82.9223 95.3108 83.343 94.8735C83.7614 94.4385 84.0966 93.9199 84.3208 93.3473C84.5373 92.7951 84.6522 92.1946 84.6416 91.5721C84.6413 91.5566 84.6311 91.4912 84.6401 91.4912V91.4912Z" fill="#BABEC5"/>
</svg>
