<svg width="51" height="51" viewBox="0 0 51 51" fill="none" xmlns="http://www.w3.org/2000/svg">
<path d="M22.8212 41.0808C22.8212 42.0549 22.0314 42.8447 21.0573 42.8447C20.0832 42.8447 19.2934 42.0549 19.2934 41.0808V31.6649H15.4714C14.4973 31.6649 13.7075 30.8751 13.7075 29.901V24.8071C13.7075 23.833 14.4973 23.0432 15.4714 23.0432C15.5105 23.0432 15.5493 23.0446 15.5878 23.0471L19.7706 22.9644C19.7 17.8784 19.8663 13.0969 22.3471 10.3699C23.8277 8.742 25.947 8.0067 28.385 7.7183C30.547 7.4627 32.9744 7.5639 35.4013 7.6653C36.3485 7.7024 37.0912 8.4825 37.0906 9.4223H37.0963V14.6664C37.0963 15.6405 36.3065 16.4303 35.3324 16.4303C35.2719 16.4303 35.2121 16.4272 35.1531 16.4213L34.9295 16.4183C32.9522 16.3915 31.5514 16.3725 31.2136 16.7439C31.0462 16.9279 30.9495 17.3636 30.8883 17.9248C30.799 18.7444 30.818 18.5197 30.837 19.4949C30.856 20.4652 30.0848 21.2674 29.1145 21.2864C28.1442 21.3054 27.342 20.5342 27.323 19.5639C27.3013 18.4555 27.2797 18.5467 27.3881 17.5528C27.5246 16.3006 27.8641 15.1925 28.609 14.3737C29.7702 13.0968 31.3878 12.9001 33.5685 12.8928V11.1133C31.8844 11.0575 30.2473 11.0472 28.7984 11.2185C27.1426 11.4144 25.7667 11.844 24.9517 12.7401C23.1265 14.7465 23.2194 19.6365 23.3146 24.6426L23.3149 24.6523C23.3339 25.6226 22.5627 26.4248 21.5924 26.4438L17.2353 26.5299V28.1371H21.0573C22.0314 28.1371 22.8212 28.9269 22.8212 29.901V41.0808ZM25.4018 0C32.4161 0 38.7666 2.8432 43.3635 7.4401C47.9603 12.037 50.8036 18.3876 50.8036 25.4019C50.8036 32.4163 47.9604 38.7668 43.3635 43.3637C38.7666 47.9606 32.4162 50.8038 25.4018 50.8038C18.3875 50.8038 12.037 47.9606 7.4401 43.3637C2.8432 38.7668 0 32.4163 0 25.4019C0 18.3876 2.8432 12.0371 7.4401 7.4402C12.0369 2.8433 18.3875 0 25.4018 0ZM40.8693 9.9343C36.9111 5.9761 31.4424 3.5278 25.4018 3.5278C19.3612 3.5278 13.8925 5.9761 9.9343 9.9344C5.9761 13.8926 3.5278 19.3613 3.5278 25.4019C3.5278 31.4426 5.9761 36.9113 9.9343 40.8695C13.8925 44.8277 19.3612 47.276 25.4018 47.276C26.0026 47.276 26.5977 47.2514 27.1863 47.2039V30.3861C27.1863 29.412 27.9761 28.6222 28.9502 28.6222H32.3416L32.9445 26.2615H28.5375C27.5634 26.2615 26.7736 25.4717 26.7736 24.4976C26.7736 23.5235 27.5634 22.7337 28.5375 22.7337H35.2147C35.358 22.7343 35.5036 22.7519 35.6488 22.7888C36.5925 23.0285 37.1632 23.988 36.9235 24.9317L35.4341 30.7634C35.2613 31.5562 34.5554 32.15 33.7108 32.15H30.7141V46.6261C34.6208 45.6516 38.1116 43.6272 40.8693 40.8695C44.8275 36.9113 47.2758 31.4426 47.2758 25.4019C47.2758 19.3613 44.8275 13.8926 40.8693 9.9343Z" fill="#264B87"/>
</svg>
