<svg width="51" height="37" viewBox="0 0 51 37" fill="none" xmlns="http://www.w3.org/2000/svg">
<path fill-rule="evenodd" clip-rule="evenodd" d="M2.58292 10.8359H5.12576C5.26409 11.1628 5.39338 11.4731 5.5404 11.7929C5.99055 12.6973 6.45845 13.3739 7.16257 14.0901C7.92944 14.8532 8.83764 15.4673 9.84072 15.8827C10.8094 16.2841 11.8768 16.5056 13.0001 16.5056C14.1222 16.5056 15.1884 16.2845 16.156 15.8842C17.1628 15.4654 18.0722 14.8513 18.8353 14.0882C19.5205 13.437 20.0345 12.6342 20.4593 11.7929C20.6041 11.4731 20.7364 11.1613 20.8735 10.8359H46.583C47.2962 10.8359 47.9421 10.5464 48.4093 10.0792C48.8764 9.61208 49.166 8.96581 49.166 8.25299C49.166 7.53979 48.8764 6.89386 48.4093 6.42671C47.9421 5.95956 47.2962 5.67003 46.583 5.67003H20.9167C20.2292 4.2939 19.9222 3.5074 18.8371 2.41587C18.0703 1.65278 17.1624 1.03822 16.1594 0.622847C15.1907 0.221461 14.1233 0 13.0001 0C11.8779 0 10.8113 0.221082 9.84375 0.621334C8.83688 1.04011 7.92754 1.65467 7.16446 2.41775C6.11337 3.42273 5.72597 4.38423 5.08269 5.67003H2.58292C1.8701 5.67003 1.22379 5.95956 0.756644 6.42671C0.289494 6.89386 0 7.53979 0 8.25299C0 8.96581 0.289494 9.61208 0.756644 10.0792C1.22379 10.5464 1.8701 10.8359 2.58292 10.8359ZM10.8166 6.06991C11.1023 5.78795 11.4433 5.55817 11.8224 5.4017C12.1893 5.25014 12.5881 5.16585 13.0001 5.16585C13.4124 5.16585 13.8104 5.25014 14.1792 5.4017C14.5561 5.55704 14.8959 5.78609 15.1812 6.07183C15.4632 6.35 15.6922 6.69165 15.8509 7.07565C16.0025 7.44264 16.0868 7.84064 16.0868 8.25299C16.0868 8.66496 16.0025 9.0633 15.8509 9.43029C15.6922 9.81429 15.4632 10.156 15.1831 10.436C14.903 10.7161 14.5614 10.9451 14.1774 11.1039C13.8104 11.2554 13.4124 11.3397 13.0001 11.3397C12.5881 11.3397 12.1893 11.2554 11.8224 11.1039C11.4384 10.9451 11.0967 10.7161 10.8166 10.436C10.5365 10.156 10.3075 9.81429 10.1488 9.43029C9.99721 9.0633 9.91292 8.66496 9.91292 8.25299C9.91292 7.40033 10.2584 6.62814 10.8166 6.06991Z" fill="#264B87"/>
<path fill-rule="evenodd" clip-rule="evenodd" d="M24.6265 26.1534H3.55269C2.83987 26.1534 2.19356 26.443 1.72641 26.9101C1.25926 27.3773 0.969727 28.0232 0.969727 28.7364C0.969727 29.4492 1.25926 30.0955 1.72641 30.5626C2.19356 31.0298 2.83987 31.3193 3.55269 31.3193H24.6689C24.8061 31.641 24.9388 31.9546 25.0839 32.2714C25.2585 32.6225 25.754 33.5447 26.0503 33.838C26.262 34.0988 26.471 34.3346 26.7064 34.5735C27.4729 35.3362 28.3811 35.9507 29.3846 36.3665C30.3533 36.7675 31.4206 36.9893 32.5439 36.9893C33.6672 36.9893 34.7342 36.7675 35.7028 36.3665C36.7059 35.9511 37.6141 35.3366 38.3791 34.5716C38.7714 34.2065 39.0938 33.7635 39.3992 33.3323C39.8339 32.7268 40.1294 32.0019 40.4174 31.3193H47.5528C48.266 31.3193 48.9119 31.0298 49.3791 30.5626C49.8462 30.0955 50.1357 29.4492 50.1357 28.7364C50.1357 28.0232 49.8462 27.3773 49.3791 26.9101C48.9119 26.443 48.266 26.1534 47.5528 26.1534H40.4605C40.2844 25.8012 40.123 25.4614 39.9597 25.1065C39.5266 24.2508 39.0508 23.5803 38.381 22.8993C37.6145 22.1366 36.7059 21.5216 35.7028 21.1062C34.7342 20.7052 33.6672 20.4834 32.5439 20.4834C31.4206 20.4834 30.3533 20.7052 29.3846 21.1062C28.3811 21.522 27.4729 22.1366 26.7083 22.9012C25.6655 23.8918 25.2626 24.882 24.6265 26.1534ZM29.4568 28.7364C29.4568 27.8837 29.8022 27.1115 30.3605 26.5533C30.642 26.2717 30.983 26.0427 31.3628 25.8851C31.7336 25.7335 32.1319 25.6492 32.5439 25.6492C32.9563 25.6492 33.3543 25.7335 33.7231 25.8851C34.1041 26.0427 34.4454 26.2717 34.727 26.5533C35.007 26.8334 35.2361 27.1751 35.3948 27.5591C35.5464 27.926 35.6307 28.324 35.6307 28.7364C35.6307 29.5891 35.2852 30.3612 34.727 30.9194C34.4454 31.201 34.1041 31.43 33.725 31.5876C33.3542 31.7392 32.9563 31.8235 32.5439 31.8235C31.6913 31.8235 30.9183 31.4773 30.3605 30.9194C30.0804 30.6394 29.8514 30.2977 29.6926 29.9137C29.5411 29.5467 29.4568 29.1484 29.4568 28.7364Z" fill="#264B87"/>
</svg>
