<svg width="53" height="39" viewBox="0 0 53 39" fill="none" xmlns="http://www.w3.org/2000/svg">
<path d="M3.52779 12.7255C1.57949 12.7255 0 11.146 0 9.1977C0 7.2494 1.57949 5.6699 3.52779 5.6699H5.4481L5.4488 5.6683L5.4874 5.5768L5.495 5.5591L5.5363 5.4648L5.5402 5.4562L5.58229 5.3632L5.5864 5.3543C5.6017 5.3212 5.617 5.288 5.6327 5.2551L5.633 5.2545L5.6793 5.1587L5.68359 5.15C5.71569 5.0846 5.7485 5.0196 5.7821 4.9551L5.78569 4.9482L5.81069 4.9007L5.83729 4.8508L5.8642 4.8011L5.8913 4.7516L5.8993 4.7372L5.9188 4.7023L5.9466 4.6532L5.9479 4.6509L5.9747 4.6042L6.003 4.5555L6.011 4.542L6.0304 4.5092L6.0317 4.5069L6.0606 4.45851L6.0677 4.4468L6.0885 4.4126L6.08979 4.4104L6.11939 4.3624L6.12069 4.3604L6.1489 4.3151L6.18899 4.2518L6.19609 4.2405L6.2096 4.2196L6.2402 4.1724L6.2467 4.1626L6.2705 4.1265L6.2712 4.1254L6.3024 4.0786L6.3049 4.0749L6.3264 4.043L6.3338 4.032L6.3656 3.98561L6.3804 3.9641L6.38729 3.9543L6.43939 3.8801L6.4495 3.8658L6.4971 3.7998L6.5201 3.7682L6.5285 3.7567L6.56189 3.7116L6.5837 3.6823L6.6295 3.6219L6.64109 3.6067L6.6637 3.5774L6.6981 3.53311L6.7088 3.5194L6.7155 3.51101L6.76779 3.44521L6.7776 3.433L6.7835 3.4258L6.83859 3.35811L6.8474 3.3474L6.8564 3.3366L6.9104 3.2719L6.91819 3.2626L6.9467 3.2292L6.98319 3.1866L6.99 3.1787L6.99899 3.16851L7.057 3.1022L7.06279 3.0957L7.12189 3.0298L7.1562 2.9922L7.1697 2.9774L7.2077 2.9362L7.2112 2.9324L7.22 2.92311L7.2845 2.8546L7.28689 2.8521L7.36229 2.77391L7.3635 2.77271L7.44109 2.6942C9.10549 1.0296 11.4051 0 13.9446 0C16.4842 0 18.7837 1.0296 20.4481 2.6942L20.5257 2.77271L20.5269 2.77391L20.6023 2.8521L20.6047 2.8546L20.6692 2.92311L20.678 2.9324L20.6815 2.9362L20.7195 2.9774L20.733 2.9922L20.7673 3.0298L20.8264 3.0957L20.8322 3.1022L20.8902 3.16851L20.8992 3.1787L20.906 3.1866L20.9425 3.2292L20.971 3.2626L20.9788 3.2719L21.0328 3.3366L21.0418 3.3474L21.0506 3.35811L21.1057 3.4258L21.1116 3.433L21.1214 3.44521L21.1737 3.51101L21.1804 3.5194L21.1911 3.53311L21.2255 3.5774L21.2481 3.6067L21.2597 3.6219L21.3055 3.6823L21.3273 3.7116L21.3607 3.7567L21.3691 3.7682L21.3921 3.7998L21.4397 3.8658L21.4498 3.8801L21.5019 3.9543L21.5088 3.9641L21.5236 3.98561L21.5554 4.032L21.5628 4.043L21.5843 4.0749L21.5868 4.0786L21.618 4.1254L21.6187 4.1265L21.6425 4.1626L21.649 4.1724L21.6796 4.2196L21.6931 4.2405L21.7002 4.2518L21.7403 4.3151L21.7685 4.3604L21.7698 4.3624L21.7994 4.4104L21.8007 4.4126L21.8215 4.4468L21.8286 4.45851L21.8575 4.5069L21.8588 4.5092L21.8782 4.542L21.8862 4.5555L21.9145 4.6042L21.9413 4.6509L21.9426 4.6532L21.9704 4.7023L21.9899 4.7372L21.9979 4.7516L22.025 4.8011L22.0519 4.8508L22.0785 4.9007L22.1035 4.9482L22.1071 4.9551C22.1407 5.0196 22.1735 5.0846 22.2056 5.15L22.2099 5.1587L22.2562 5.2545L22.2565 5.2551C22.2722 5.288 22.2875 5.3212 22.3028 5.3543L22.3069 5.3632L22.349 5.4562L22.3529 5.4648L22.3942 5.5591L22.4018 5.5768L22.4404 5.6683L22.4411 5.6699H47.5278C49.4761 5.6699 51.0556 7.2494 51.0556 9.1977C51.0556 11.146 49.4761 12.7255 47.5278 12.7255H22.4411L22.3987 12.8258L22.3956 12.8331C22.3066 13.0396 22.2104 13.242 22.1071 13.4403L22.1035 13.4472L22.0785 13.4947L22.0519 13.5446L22.025 13.5943L21.9978 13.6438L21.9703 13.6931L21.9426 13.7422L21.9413 13.7445L21.9145 13.7912L21.8861 13.8399L21.8586 13.8867L21.8575 13.8885L21.8285 13.9369L21.7993 13.985L21.7698 14.033L21.74 14.0808L21.7099 14.1284L21.7087 14.1303L21.6832 14.1702L21.6796 14.1758L21.6489 14.223L21.618 14.27L21.5868 14.3168L21.5861 14.3178L21.5568 14.3612L21.5553 14.3634L21.5236 14.4098L21.518 14.4178L21.4953 14.4506L21.4915 14.456L21.4592 14.502L21.457 14.5051L21.4296 14.5436L21.4266 14.5478L21.3938 14.5933L21.3646 14.6333L21.3607 14.6387L21.3273 14.6838L21.3002 14.72L21.2936 14.7288L21.2597 14.7735L21.2481 14.7887L21.2255 14.818L21.1911 14.8623L21.1804 14.876L21.1563 14.9064L21.1213 14.9502L21.0946 14.9834L21.0861 14.9939L21.0506 15.0373L21.0244 15.069L21.0148 15.0805L20.9788 15.1235L20.971 15.1328L20.9425 15.1662L20.906 15.2088L20.8992 15.2167L20.8902 15.2269L20.8322 15.2932L20.8264 15.2997L20.7673 15.3656L20.733 15.4032L20.7195 15.418L20.6815 15.4592L20.678 15.463L20.6692 15.4723L20.6047 15.5408L20.6023 15.5433L20.5269 15.6215L20.5257 15.6227L20.4481 15.7012C18.7837 17.3658 16.4842 18.3954 13.9446 18.3954C11.4051 18.3954 9.10549 17.3658 7.44109 15.7012L7.3635 15.6227L7.36229 15.6215L7.28689 15.5433L7.2845 15.5408L7.22 15.4723L7.2112 15.463L7.2077 15.4592L7.1697 15.418L7.1562 15.4032L7.12189 15.3656L7.06279 15.2997L7.057 15.2932L6.99899 15.2269L6.99 15.2167L6.98319 15.2088L6.9467 15.1662L6.91819 15.1328L6.9104 15.1235L6.87439 15.0805L6.86479 15.069L6.83859 15.0373L6.8031 14.9939L6.7946 14.9834L6.7679 14.9502L6.7329 14.9064L6.7088 14.876L6.6981 14.8623L6.6637 14.818L6.64109 14.7887L6.6295 14.7735L6.5956 14.7288L6.58899 14.72L6.56189 14.6838L6.5285 14.6387L6.5246 14.6333L6.4954 14.5933L6.4626 14.5478L6.4596 14.5436L6.4322 14.5051L6.43 14.502L6.3977 14.456L6.3939 14.4506L6.3712 14.4178L6.3656 14.4098L6.3339 14.3634L6.3324 14.3612L6.3031 14.3178L6.3024 14.3168L6.2712 14.27L6.24029 14.223L6.2096 14.1758L6.206 14.1702L6.1805 14.1303L6.1793 14.1284L6.1492 14.0808L6.11939 14.033L6.0899 13.985L6.06069 13.9369L6.0317 13.8885L6.0306 13.8867L6.0031 13.8399L5.9747 13.7912L5.9479 13.7445L5.9466 13.7422L5.9189 13.6931L5.8914 13.6438L5.8642 13.5943L5.83729 13.5446L5.81069 13.4947L5.78569 13.4472L5.7821 13.4403C5.6788 13.242 5.58249 13.0395 5.49359 12.8331L5.4905 12.8258L5.4481 12.7255H3.52779V12.7255ZM41.6511 25.4387C41.6847 25.5032 41.7175 25.5682 41.7496 25.6336L41.7539 25.6423L41.8002 25.7381L41.8005 25.7387C41.8162 25.7716 41.8315 25.8048 41.8468 25.8379L41.8509 25.8468L41.893 25.9398L41.8969 25.9484L41.9382 26.0427L41.9458 26.0604L41.9844 26.1519L41.9851 26.1535H48.4976C50.4459 26.1535 52.0254 27.733 52.0254 29.6813C52.0254 31.6296 50.4459 33.2091 48.4976 33.2091H41.9851L41.9427 33.3094L41.9396 33.3167C41.8506 33.5232 41.7544 33.7256 41.6511 33.9239L41.6475 33.9308L41.6225 33.9783L41.5959 34.0282L41.569 34.0779L41.5418 34.1274L41.5143 34.1767L41.4866 34.2258L41.4853 34.2281L41.4585 34.2748L41.4301 34.3235L41.4026 34.3703L41.4015 34.3721L41.3725 34.4205L41.3433 34.4686L41.3138 34.5166L41.284 34.5644L41.2539 34.612L41.2527 34.6139L41.2272 34.6538L41.2236 34.6594L41.1929 34.7066L41.162 34.7536L41.1308 34.8004L41.1301 34.8014L41.1008 34.8448L41.0993 34.847L41.0676 34.8934L41.062 34.9014L41.0393 34.9342L41.0355 34.9396L41.0032 34.9856L41.001 34.9887L40.9736 35.0272L40.9706 35.0314L40.9378 35.0769L40.9086 35.1169L40.9047 35.1223L40.8713 35.1674L40.8442 35.2036L40.8376 35.2124L40.8037 35.2571L40.7921 35.2723L40.7695 35.3016L40.7351 35.3459L40.7244 35.3596L40.7003 35.39L40.6653 35.4338L40.6386 35.467L40.6301 35.4775L40.5946 35.5209L40.5684 35.5526L40.5588 35.5641L40.5228 35.6071L40.515 35.6164L40.4865 35.6498L40.45 35.6924L40.4432 35.7003L40.4342 35.7105L40.3762 35.7768L40.3704 35.7833L40.3113 35.8492L40.277 35.8868L40.2635 35.9016L40.2255 35.9428L40.222 35.9466L40.2132 35.9559L40.1487 36.0244L40.1463 36.0269L40.0709 36.1051L40.0697 36.1063L39.9921 36.1848C38.3277 37.8494 36.0282 38.879 33.4886 38.879C30.9491 38.879 28.6495 37.8494 26.9851 36.1848L26.9075 36.1063L26.9063 36.1051L26.8309 36.0269L26.8285 36.0244L26.764 35.9559L26.7552 35.9466L26.7517 35.9428L26.7137 35.9016L26.7002 35.8868L26.6659 35.8492L26.6068 35.7833L26.601 35.7768L26.543 35.7105L26.534 35.7003L26.5272 35.6924L26.4907 35.6498L26.4622 35.6164L26.4544 35.6071L26.4184 35.5641L26.4088 35.5526L26.3826 35.5209L26.3471 35.4775L26.3386 35.467L26.3119 35.4338L26.2769 35.39L26.2528 35.3596L26.2421 35.3459L26.2077 35.3016L26.1851 35.2723L26.1735 35.2571L26.1396 35.2124L26.133 35.2036L26.1059 35.1674L26.0725 35.1223L26.0686 35.1169L26.0394 35.0769L26.0066 35.0314L26.0036 35.0272L25.9762 34.9887L25.974 34.9856L25.9417 34.9396L25.9379 34.9342L25.9152 34.9014L25.9096 34.8934L25.8779 34.847L25.8764 34.8448L25.8471 34.8014L25.8464 34.8004L25.8152 34.7536L25.7843 34.7066L25.7536 34.6594L25.75 34.6538L25.7245 34.6139L25.7233 34.612L25.6932 34.5644L25.6634 34.5166L25.6339 34.4686L25.6047 34.4205L25.5757 34.3721L25.5746 34.3703L25.5471 34.3235L25.5187 34.2748L25.4919 34.2281L25.4906 34.2258L25.4629 34.1767L25.4354 34.1274L25.4082 34.0779L25.3813 34.0282L25.3547 33.9783L25.3297 33.9308L25.3261 33.9239C25.2228 33.7256 25.1265 33.5231 25.0376 33.3167L25.0345 33.3094L24.9921 33.2091H4.4976C2.5493 33.2091 0.969795 31.6296 0.969795 29.6813C0.969795 27.733 2.5493 26.1535 4.4976 26.1535H24.9921L24.9928 26.1519L25.0314 26.0604L25.039 26.0427L25.0803 25.9484L25.0842 25.9398L25.1263 25.8468L25.1304 25.8379C25.1457 25.8048 25.161 25.7716 25.1767 25.7387L25.177 25.7381L25.2233 25.6423L25.2276 25.6336C25.2597 25.5682 25.2925 25.5032 25.3261 25.4387L25.3297 25.4318L25.3547 25.3843L25.3813 25.3344L25.4082 25.2847L25.4353 25.2352L25.4433 25.2208L25.4628 25.1859L25.4906 25.1368L25.4919 25.1345L25.5187 25.0878L25.547 25.0391L25.555 25.0256L25.5744 24.9928L25.5757 24.9905L25.6046 24.9421L25.6117 24.9304L25.6325 24.8962L25.6338 24.894L25.6634 24.846L25.6647 24.844L25.6929 24.7987L25.733 24.7354L25.7401 24.7241L25.7536 24.7032L25.7842 24.656L25.7907 24.6462L25.8145 24.6101L25.8152 24.609L25.8464 24.5622L25.8489 24.5585L25.8704 24.5266L25.8778 24.5156L25.9096 24.4692L25.9244 24.4477L25.9313 24.4379L25.9834 24.3637L25.9935 24.3494L26.0411 24.2834L26.0641 24.2518L26.0725 24.2403L26.1059 24.1952L26.1277 24.1659L26.1735 24.1055L26.1851 24.0903L26.2077 24.061L26.2421 24.0167L26.2528 24.003L26.2595 23.9946L26.3118 23.9288L26.3216 23.9166L26.3275 23.9094L26.3826 23.8417L26.3914 23.831L26.4004 23.8202L26.4544 23.7555L26.4622 23.7462L26.4907 23.7128L26.5272 23.6702L26.534 23.6623L26.543 23.6521L26.601 23.5858L26.6068 23.5793L26.6659 23.5134L26.7002 23.4758L26.7137 23.461L26.7517 23.4198L26.7552 23.416L26.764 23.4067L26.8285 23.3382L26.8309 23.3357L26.9063 23.2575L26.9075 23.2563L26.9851 23.1778C28.6495 21.5132 30.9491 20.4836 33.4886 20.4836C36.0282 20.4836 38.3277 21.5132 39.9921 23.1778L40.0697 23.2563L40.0709 23.2575L40.1463 23.3357L40.1487 23.3382L40.2132 23.4067L40.222 23.416L40.2255 23.4198L40.2635 23.461L40.277 23.4758L40.3113 23.5134L40.3704 23.5793L40.3762 23.5858L40.4342 23.6521L40.4432 23.6623L40.45 23.6702L40.4865 23.7128L40.515 23.7462L40.5228 23.7555L40.5768 23.8202L40.5858 23.831L40.5946 23.8417L40.6497 23.9094L40.6556 23.9166L40.6654 23.9288L40.7177 23.9946L40.7244 24.003L40.7351 24.0167L40.7695 24.061L40.7921 24.0903L40.8037 24.1055L40.8495 24.1659L40.8713 24.1952L40.9047 24.2403L40.9131 24.2518L40.9361 24.2834L40.9837 24.3494L40.9938 24.3637L41.0459 24.4379L41.0528 24.4477L41.0676 24.4692L41.0994 24.5156L41.1068 24.5266L41.1283 24.5585L41.1308 24.5622L41.162 24.609L41.1627 24.6101L41.1865 24.6462L41.193 24.656L41.2236 24.7032L41.2371 24.7241L41.2442 24.7354L41.2843 24.7987L41.3125 24.844L41.3138 24.846L41.3434 24.894L41.3447 24.8962L41.3655 24.9304L41.3726 24.9421L41.4015 24.9905L41.4028 24.9928L41.4222 25.0256L41.4302 25.0391L41.4585 25.0878L41.4853 25.1345L41.4866 25.1368L41.5144 25.1859L41.5339 25.2208L41.5419 25.2352L41.569 25.2847L41.5959 25.3344L41.6225 25.3843L41.6475 25.4318L41.6511 25.4387V25.4387ZM15.4595 7.6828C15.0721 7.2953 14.5363 7.05561 13.9446 7.05561C13.3528 7.05561 12.8171 7.2953 12.4297 7.6828C12.0422 8.0702 11.8025 8.6059 11.8025 9.1977C11.8025 9.7894 12.0422 10.3252 12.4297 10.7126C12.8171 11.1001 13.3528 11.3398 13.9446 11.3398C14.5363 11.3398 15.0721 11.1001 15.4595 10.7126C15.847 10.3252 16.0867 9.7894 16.0867 9.1977C16.0867 8.6059 15.847 8.0702 15.4595 7.6828ZM35.0035 28.1664C34.6161 27.7789 34.0803 27.5392 33.4886 27.5392C32.8968 27.5392 32.3611 27.7789 31.9737 28.1664C31.5862 28.5538 31.3465 29.0895 31.3465 29.6813C31.3465 30.273 31.5862 30.8088 31.9737 31.1962C32.3611 31.5837 32.8968 31.8234 33.4886 31.8234C34.0803 31.8234 34.6161 31.5837 35.0035 31.1962C35.391 30.8088 35.6307 30.273 35.6307 29.6813C35.6307 29.0895 35.391 28.5538 35.0035 28.1664Z" fill="#264B87"/>
</svg>
