<svg width="40" height="40" viewBox="0 0 40 40" fill="none" xmlns="http://www.w3.org/2000/svg">
<path fill-rule="evenodd" clip-rule="evenodd" d="M9.25258 20C9.25258 14.0647 14.0637 9.25322 19.9985 9.25322C21.8721 9.25322 23.9191 9.76539 25.1745 10.5798C26.4299 11.3941 27.465 11.3559 28.3048 10.4002L31.6524 6.59063C32.4091 5.72951 32.3411 4.43267 31.5197 3.65041C28.2629 1.35086 24.2884 0 19.9985 0C8.95364 0 0 8.95431 0 20C0 31.0457 8.95364 40 19.9985 40C31.0434 40 39.997 31.0457 39.997 20C39.997 18.233 40.1762 15.3395 37.7607 15.3395H20.8465C19.6165 15.3395 18.6101 16.346 18.6101 17.5761V22.8262C18.6101 24.0563 19.6165 25.0627 20.8465 25.0627H29.4797C27.6699 28.4455 24.1029 30.7468 19.9985 30.7468C14.0637 30.7468 9.25258 25.9353 9.25258 20Z" fill="#B0B5BD"/>
</svg>
