<svg width="30" height="22" viewBox="0 0 30 22" fill="none" xmlns="http://www.w3.org/2000/svg">
<path fill-rule="evenodd" clip-rule="evenodd" d="M7.8395 0.0660417C6.83433 0.263146 5.77197 0.999802 5.2935 1.83154L5.01871 2.30908H2.95393C1.04932 2.30908 0.865384 2.31871 0.583491 2.43279C0.189065 2.59239 0.00213344 2.85832 0.00213344 3.25972C0.00213344 3.59716 0.130443 3.79558 0.49668 4.02432C0.69221 4.14647 0.81738 4.15422 2.88477 4.17272L5.06656 4.19223L5.34479 4.68164C5.81346 5.50601 6.70416 6.13095 7.79068 6.39776C8.28747 6.51972 9.33885 6.52716 9.85201 6.41226C10.938 6.16915 11.8955 5.51226 12.3929 4.66895L12.6787 4.18448H20.8997C28.3299 4.18448 29.1454 4.17472 29.3766 4.08302C30.1203 3.78795 30.2049 2.8842 29.5267 2.47974L29.2929 2.34034L20.9712 2.32364L12.6496 2.30695L12.5043 2.02371C12.0565 1.15015 11.0607 0.399175 9.98039 0.120178C9.46043 -0.0140378 8.38662 -0.041231 7.8395 0.0660417ZM9.51553 1.93925C9.96776 2.11066 10.1745 2.28045 10.3846 2.6529C10.6027 3.03961 10.6102 3.43382 10.4065 3.8094C10.2015 4.18748 9.99841 4.36033 9.55292 4.53599C9.09038 4.71834 8.61886 4.72459 8.16963 4.5543C7.48232 4.29381 7.16573 3.88141 7.16573 3.24678C7.16573 2.61214 7.48232 2.19974 8.16963 1.93925C8.598 1.7769 9.08716 1.7769 9.51553 1.93925ZM20.881 7.51493C19.8239 7.81731 19.0301 8.39724 18.5751 9.19948L18.3013 9.68226L9.59524 9.68395C1.08439 9.68558 0.882282 9.68839 0.585136 9.80892C0.417944 9.87674 0.23363 9.99614 0.175681 10.0742C-0.0909585 10.4331 -0.049684 10.9461 0.269595 11.2409C0.630523 11.5741 0.247314 11.5609 9.60661 11.5627L18.3013 11.5644L18.5855 12.0664C19.0523 12.8907 19.9305 13.5054 21.0254 13.7743C21.8472 13.9761 23.0406 13.8798 23.8345 13.5475C24.6632 13.2007 25.4535 12.4967 25.7211 11.867L25.851 11.561H27.4627C28.9869 11.561 29.0921 11.5534 29.4024 11.4204C29.8334 11.2356 30.0234 10.9467 29.9809 10.5406C29.9443 10.1909 29.7676 9.96445 29.4038 9.80135C29.175 9.69877 28.9588 9.68564 27.4984 9.68564H25.851L25.7211 9.37964C25.5572 8.99393 25.0372 8.39924 24.6106 8.10974C24.207 7.83587 23.5824 7.56857 23.0868 7.45773C22.49 7.32427 21.4534 7.35115 20.881 7.51493ZM23.0148 9.40689C23.7337 9.78129 24.0311 10.62 23.6604 11.2273C23.1206 12.112 21.835 12.3281 20.9892 11.6764C20.5699 11.3532 20.4039 10.995 20.4462 10.5053C20.5397 9.42415 21.9172 8.83515 23.0148 9.40689ZM13.2916 15.5297C13.0448 15.5753 12.6915 15.6679 12.5064 15.7354C11.6944 16.0318 10.8182 16.7879 10.4801 17.4842L10.3207 17.8124H5.56141C1.06181 17.8124 0.787994 17.8187 0.541618 17.9288C-0.155712 18.2406 -0.185621 19.1581 0.490399 19.5027C0.721222 19.6204 0.900901 19.6248 5.52746 19.625L10.3252 19.6252L10.6239 20.141C11.2999 21.3083 12.615 22.002 14.1484 22C15.2092 21.9986 16.0495 21.7116 16.8566 21.0751C17.2632 20.7545 17.4399 20.5541 17.6763 20.1458L17.9776 19.6252H23.6482H29.3188L29.5515 19.4615C30.1677 19.0281 30.1457 18.3072 29.5054 17.9564C29.3129 17.8509 28.9306 17.8416 23.586 17.8124L17.8725 17.7811L17.7298 17.4775C17.1753 16.2972 15.5605 15.4155 14.0019 15.4423C13.858 15.4448 13.5383 15.4841 13.2916 15.5297ZM14.7707 17.3965C15.8955 17.7906 16.2131 19.0214 15.3651 19.7006C14.8664 20.1 14.3822 20.2279 13.7788 20.1197C12.7958 19.9435 12.2254 19.1215 12.5185 18.3036C12.6344 17.9801 13.0636 17.5719 13.4369 17.4302C13.796 17.2938 14.4317 17.2778 14.7707 17.3965Z" fill="#264B87"/>
</svg>
