<svg width="184" height="185" viewBox="0 0 184 185" fill="none" xmlns="http://www.w3.org/2000/svg">
<path fill-rule="evenodd" clip-rule="evenodd" d="M0.0820312 38.4391V146.554C0.0820312 149.065 0.329573 151.518 0.80088 153.887C1.28542 156.32 2.0058 158.67 2.93594 160.908C3.88914 163.202 5.06114 165.379 6.42403 167.413C7.79676 169.461 9.37622 171.379 11.1329 173.135C12.89 174.893 14.8078 176.472 16.8559 177.844C18.8889 179.206 21.0671 180.378 23.3613 181.332C25.5987 182.262 27.9488 182.983 30.3825 183.467C32.7519 183.938 35.2048 184.186 37.7155 184.186H145.735C148.246 184.186 150.698 183.938 153.068 183.467C155.501 182.983 157.852 182.262 160.089 181.332C162.383 180.378 164.561 179.206 166.594 177.844C168.642 176.472 170.56 174.893 172.317 173.135C174.074 171.379 175.653 169.461 177.026 167.413C178.389 165.379 179.561 163.202 180.514 160.908C181.445 158.67 182.165 156.32 182.649 153.887C183.121 151.518 183.368 149.065 183.368 146.554V38.4391C183.368 35.928 183.121 33.4751 182.649 31.1057C182.165 28.672 181.445 26.3223 180.514 24.0837C179.561 21.7899 178.389 19.6114 177.026 17.578C175.654 15.5295 174.074 13.6118 172.318 11.855C170.561 10.0979 168.643 8.51811 166.594 7.14538C164.561 5.78324 162.384 4.61082 160.089 3.65762C157.851 2.7271 155.502 2.00709 153.068 1.52256C150.699 1.05125 148.246 0.803711 145.735 0.803711H37.7155C32.6347 0.803711 27.7844 1.82039 23.3605 3.65951C18.76 5.57157 14.6109 8.37673 11.1326 11.855C9.37585 13.6118 7.79638 15.5295 6.42403 17.578C5.06114 19.6114 3.88952 21.7899 2.93594 24.0837C2.00542 26.3223 1.28504 28.672 0.80088 31.1057C0.329573 33.4751 0.0820312 35.928 0.0820312 38.4391V38.4391ZM9.41518 146.554V38.4391C9.41518 36.5599 9.60224 34.7189 9.95789 32.9353C10.3219 31.1125 10.8665 29.3429 11.5714 27.6489C12.2857 25.9323 13.1694 24.2946 14.1989 22.7578C15.2436 21.1991 16.4288 19.7569 17.7316 18.4541C19.0344 17.1513 20.4767 15.9657 22.0358 14.9206C23.5721 13.8911 25.2102 13.0074 26.9265 12.2931C28.6197 11.5882 30.3893 11.0436 32.2129 10.6796C33.9957 10.324 35.8367 10.1369 37.7155 10.1369H145.735C147.614 10.1369 149.455 10.324 151.237 10.6796C153.061 11.0436 154.831 11.5882 156.524 12.2931C158.24 13.0074 159.878 13.8911 161.415 14.9206C162.974 15.9657 164.416 17.1513 165.719 18.4541C167.021 19.7569 168.207 21.1991 169.251 22.7578C170.281 24.2946 171.165 25.9323 171.879 27.6489C172.584 29.3429 173.128 31.1125 173.492 32.9353C173.848 34.7189 174.035 36.5599 174.035 38.4391V146.554C174.035 148.433 173.848 150.273 173.492 152.057C173.128 153.879 172.584 155.649 171.879 157.343C171.165 159.059 170.281 160.696 169.251 162.233C168.206 163.791 167.021 165.234 165.718 166.536C164.415 167.839 162.973 169.024 161.415 170.069C159.878 171.099 158.24 171.982 156.524 172.697C154.83 173.402 153.061 173.946 151.238 174.31C149.455 174.666 147.614 174.853 145.735 174.853H37.7155C35.8363 174.853 33.9957 174.666 32.2125 174.31C30.3897 173.946 28.6201 173.402 26.9265 172.697C25.2102 171.982 23.5721 171.099 22.0358 170.069C20.4771 169.024 19.0348 167.839 17.732 166.536C16.4292 165.234 15.244 163.791 14.1989 162.233C13.169 160.696 12.2857 159.059 11.5714 157.343C10.8665 155.649 10.3219 153.879 9.95789 152.057C9.60224 150.273 9.41518 148.433 9.41518 146.554V146.554ZM136.889 40.4544C136.537 41.3055 136.342 42.2466 136.342 43.2402C136.342 44.2331 136.537 45.1742 136.889 46.0254C137.254 46.906 137.796 47.7065 138.471 48.3864C139.14 49.0566 139.939 49.5966 140.824 49.9633C141.676 50.3155 142.617 50.5105 143.612 50.5105C144.605 50.5105 145.546 50.3159 146.397 49.9633C147.278 49.5985 148.078 49.0565 148.758 48.3815C149.428 47.7121 149.968 46.9128 150.335 46.0265C150.687 45.1753 150.882 44.2343 150.882 43.2402C150.882 42.2508 150.687 41.3119 150.335 40.4611C149.967 39.5737 149.425 38.7721 148.753 38.0993C148.08 37.4266 147.278 36.885 146.391 36.5172C145.54 36.165 144.601 35.9699 143.612 35.9699C142.618 35.9699 141.677 36.1649 140.826 36.5168C139.94 36.8838 139.14 37.4243 138.468 38.0955C137.796 38.7675 137.256 39.5688 136.889 40.4544V40.4544ZM97.7363 59.3399C100.044 59.7972 102.282 60.4817 104.421 61.3676C106.6 62.2698 108.669 63.3806 110.602 64.6724C112.565 65.9843 114.381 67.4757 116.025 69.1194C119.309 72.4031 121.962 76.3398 123.777 80.7233C124.663 82.8629 125.348 85.1 125.805 87.4082C126.252 89.666 126.487 91.9965 126.487 94.3754C126.487 96.7542 126.252 99.0846 125.805 101.343C125.348 103.651 124.663 105.888 123.777 108.027C122.875 110.206 121.764 112.276 120.472 114.208C119.161 116.171 117.669 117.988 116.025 119.632C114.382 121.275 112.565 122.767 110.602 124.079C108.669 125.371 106.6 126.482 104.421 127.384C102.282 128.27 100.044 128.954 97.7363 129.412C95.4788 129.859 93.148 130.094 90.7691 130.094C88.3903 130.094 86.0595 129.859 83.802 129.412C81.4938 128.954 79.2567 128.27 77.1171 127.384C74.9382 126.482 72.8689 125.371 70.9364 124.079C68.9733 122.767 67.1565 121.275 65.5132 119.632C63.8695 117.988 62.3777 116.171 61.0658 114.208C59.774 112.276 58.6632 110.206 57.761 108.027C56.8751 105.888 56.1906 103.651 55.7333 101.343C55.2858 99.0846 55.0511 96.7542 55.0511 94.3754C55.0511 91.9962 55.2858 89.6657 55.7333 87.4082C56.1906 85.1 56.8751 82.8629 57.761 80.7237C58.6632 78.5448 59.7736 76.4755 61.0654 74.543C62.3773 72.5803 63.8691 70.7631 65.5128 69.1194C67.1565 67.4757 68.9737 65.9843 70.9364 64.6724C72.8689 63.3806 74.9382 62.2698 77.1171 61.3676C79.2567 60.4817 81.4938 59.7972 83.802 59.3399C86.0599 58.8924 88.3903 58.6577 90.7691 58.6577C93.148 58.6577 95.4784 58.8924 97.7363 59.3399V59.3399ZM53.2883 69.3636C51.6571 71.8014 50.2583 74.4054 49.1248 77.1418C48.0155 79.8204 47.1556 82.6392 46.5762 85.5676C46.0134 88.4109 45.7179 91.3567 45.7179 94.3754C45.7179 97.3941 46.0134 100.34 46.5762 103.184C47.1556 106.112 48.0155 108.931 49.1252 111.609C50.2586 114.346 51.6571 116.95 53.2883 119.387C54.9294 121.84 56.8161 124.133 58.9141 126.231C61.0125 128.329 63.3052 130.216 65.7569 131.856C68.1947 133.487 70.7989 134.886 73.5352 136.02C76.2134 137.129 79.0325 137.989 81.9609 138.569C84.8043 139.131 87.7504 139.427 90.7691 139.427C93.7878 139.427 96.7339 139.131 99.5773 138.569C102.506 137.989 105.325 137.129 108.003 136.02C110.739 134.886 113.343 133.487 115.781 131.856C118.233 130.215 120.526 128.329 122.624 126.231C126.786 122.069 130.136 117.108 132.413 111.609C133.523 108.931 134.383 106.112 134.962 103.184C135.525 100.34 135.82 97.3941 135.82 94.3754C135.82 88.2658 134.607 82.4457 132.412 77.1441C130.132 71.6404 126.784 66.6797 122.624 62.5204C120.526 60.422 118.233 58.5352 115.781 56.8949C113.343 55.2636 110.739 53.8649 108.003 52.7314C105.324 51.6221 102.506 50.7622 99.5773 50.1828C96.7339 49.6201 93.7878 49.3245 90.7691 49.3245C87.7504 49.3245 84.8046 49.6201 81.9609 50.1828C79.0329 50.7622 76.2138 51.6217 73.5352 52.7314C70.7989 53.8649 68.1947 55.2636 65.7569 56.8949C63.3052 58.5352 61.0122 60.422 58.9138 62.5204C56.8154 64.6188 54.9286 66.9118 53.2883 69.3636V69.3636Z" fill="#7688A1"/>
</svg>
