<svg width="20" height="27" viewBox="0 0 20 27" fill="none" xmlns="http://www.w3.org/2000/svg">
<path fill-rule="evenodd" clip-rule="evenodd" d="M7.05284 0.387467C5.30796 0.946009 3.92399 1.77183 2.69503 2.98807C-0.397498 6.04848 -0.830595 10.2196 1.40638 15.3927C2.83477 18.696 5.81624 22.9242 8.64248 25.6548L10.0345 27L11.2825 25.869C14.5249 22.9307 17.9147 17.9012 19.3346 13.9229C19.8958 12.3503 19.9861 11.7528 19.9979 9.53251C20.0113 7.05741 19.9835 6.90728 19.2476 5.46338C18.4522 3.90255 16.9171 2.24749 15.4608 1.38055C13.2157 0.0439473 9.4978 -0.395305 7.05284 0.387467ZM12.6084 4.26877C13.6937 4.71017 15.1658 6.14721 15.6667 7.2538C16.1197 8.25502 16.1197 10.3817 15.6667 11.3829C15.1711 12.4779 13.7964 13.8188 12.6364 14.3388C11.4592 14.8663 8.9555 14.9385 7.76796 14.4791C5.61103 13.6449 4.10236 11.5307 4.11208 9.35604C4.11856 7.87724 4.38947 7.07647 5.22744 6.0594C7.03132 3.87043 9.91054 3.17182 12.6084 4.26877Z" fill="#264B87"/>
</svg>
