<svg width="90" height="35" viewBox="0 0 90 35" fill="none" xmlns="http://www.w3.org/2000/svg">
<path fill-rule="evenodd" clip-rule="evenodd" d="M49.0938 9.36035H72.5355L76.6915 13.611H67.5396L49.0938 9.36035Z" fill="url(#paint0_linear_951_1002)"/>
<path fill-rule="evenodd" clip-rule="evenodd" d="M72.5352 0V9.36048L76.6911 13.6112V4.25068L72.5352 0Z" fill="url(#paint1_linear_951_1002)"/>
<path fill-rule="evenodd" clip-rule="evenodd" d="M89.9994 9.36035H80.8474L76.6914 13.611H85.8434L89.9994 9.36035Z" fill="url(#paint2_linear_951_1002)"/>
<path fill-rule="evenodd" clip-rule="evenodd" d="M80.8474 0V9.36048L76.6914 13.6112V4.25068L80.8474 0Z" fill="url(#paint3_linear_951_1002)"/>
<path fill-rule="evenodd" clip-rule="evenodd" d="M49.0938 17.8619H72.5355L76.6915 13.6113H67.5396L49.0938 17.8619Z" fill="#49BED8"/>
<path fill-rule="evenodd" clip-rule="evenodd" d="M72.5352 27.2224V17.8619L76.6911 13.6113V22.9717L72.5352 27.2224Z" fill="url(#paint4_linear_951_1002)"/>
<path fill-rule="evenodd" clip-rule="evenodd" d="M80.8474 27.2224V17.8619L76.6914 13.6113V22.9717L80.8474 27.2224Z" fill="url(#paint5_linear_951_1002)"/>
<path fill-rule="evenodd" clip-rule="evenodd" d="M89.9994 17.8619L85.8434 13.6113H76.6914L89.9994 17.8619Z" fill="#F3DDC6"/>
<path fill-rule="evenodd" clip-rule="evenodd" d="M49.0938 17.8619H72.5355L76.6915 13.6113L49.0938 17.8619Z" fill="#264B87"/>
<path fill-rule="evenodd" clip-rule="evenodd" d="M80.8474 27.2224V17.8619L76.6914 13.6113L80.8474 27.2224Z" fill="#FFED00"/>
<path fill-rule="evenodd" clip-rule="evenodd" d="M89.9994 9.36035L85.8434 13.611H76.6914L89.9994 9.36035Z" fill="#FFED00"/>
<path fill-rule="evenodd" clip-rule="evenodd" d="M80.8474 0V9.36048L76.6914 13.6112L80.8474 0Z" fill="#A979B3"/>
<path fill-rule="evenodd" clip-rule="evenodd" d="M72.5352 27.2224V17.8619L76.6911 13.6113L72.5352 27.2224Z" fill="#264B87"/>
<path fill-rule="evenodd" clip-rule="evenodd" d="M49.0938 17.8619L67.5396 13.6113H76.6915L49.0938 17.8619Z" fill="#264B87"/>
<path fill-rule="evenodd" clip-rule="evenodd" d="M49.0938 9.36035L67.5396 13.611H76.6915L49.0938 9.36035Z" fill="#C3B9BB"/>
<path fill-rule="evenodd" clip-rule="evenodd" d="M72.5352 0V9.36048L76.6911 13.6112L72.5352 0Z" fill="#EF7F1A"/>
<path fill-rule="evenodd" clip-rule="evenodd" d="M89.9995 9.36035L85.8435 13.611L49.0938 17.8616L89.9995 9.36035Z" fill="#FEFEFE" fill-opacity="0.2"/>
<path fill-rule="evenodd" clip-rule="evenodd" d="M89.9995 17.8616L85.8435 13.611L49.0938 9.36035L89.9995 17.8616Z" fill="#FEFEFE" fill-opacity="0.2"/>
<path fill-rule="evenodd" clip-rule="evenodd" d="M80.8471 27.2223V17.8618L72.5352 0L80.8471 27.2223Z" fill="#FEFEFE" fill-opacity="0.2"/>
<path fill-rule="evenodd" clip-rule="evenodd" d="M72.5352 27.2223V17.8618L80.8471 0L72.5352 27.2223Z" fill="#FEFEFE" fill-opacity="0.2"/>
<path fill-rule="evenodd" clip-rule="evenodd" d="M80.8471 0V9.36048L72.5352 27.2223L80.8471 0Z" fill="#FEFEFE" fill-opacity="0.2"/>
<path fill-rule="evenodd" clip-rule="evenodd" d="M72.5352 0V9.36048L76.695 18.2995L80.8471 27.2223L72.5352 0Z" fill="#FEFEFE" fill-opacity="0.2"/>
<path d="M69.32 34.7342V27.179C69.32 23.6065 66.7711 22.1099 64.0334 22.1099C62.3813 22.1099 60.871 22.4478 59.3842 23.6789L60.4697 25.7306C61.1778 25.1273 62.5702 24.7168 63.7502 24.741C64.9774 24.7652 66.0395 25.3927 66.1103 27.1065C65.4022 26.8169 64.6234 26.6479 63.821 26.6237C61.2486 26.5755 58.6289 27.9754 58.6289 30.7514C58.6289 33.0687 60.3045 34.9998 63.4434 34.9998C64.3874 34.9998 65.5675 34.6136 66.3227 33.6479L66.7475 34.7342H69.32ZM61.6262 30.6548C61.6498 29.5203 62.8062 29.0617 64.0334 29.0617C64.7886 29.0617 65.5438 29.2306 66.1338 29.4962V31.4273C64.9302 32.7066 61.579 32.8997 61.6262 30.6548Z" fill="#264B87"/>
<path d="M41.1172 22.5205V34.7344H44.3504V22.5205H41.1172Z" fill="#264B87"/>
<path d="M44.3269 21.1204V17.8618H41.1172V21.1204H44.3269Z" fill="#264B87"/>
<path d="M39.2447 32.0549C37.8994 32.1755 37.5926 31.4514 37.5926 30.8238V17.8374H34.3594V30.8238C34.3594 34.2032 36.5306 35.217 39.2447 34.7584V32.0549Z" fill="#264B87"/>
<path d="M32.7794 31.9344C31.4105 32.1275 30.6317 31.528 30.6317 30.7315V25.1515H32.7794V22.5205H30.6317V17.8618L27.4929 18.4432V22.5205H25.6992V25.1515H27.4929V30.8039C27.3748 34.0586 29.8766 35.2413 32.7794 34.7344V31.9344Z" fill="#264B87"/>
<path d="M16.1435 27.372C16.4031 25.7306 17.7721 25.0789 19.0229 25.0789C20.25 25.0789 21.5009 25.6824 21.7605 27.372H16.1435ZM21.9729 31.041C20.0141 32.8273 16.6864 32.3204 16.1435 29.9065H24.569C24.8286 29.3031 24.8993 28.6514 24.8993 28.2652C24.9466 24.6203 22.4921 22.2064 18.9992 22.2306C15.0343 22.2547 12.9104 25.4169 12.9104 28.579C12.8867 31.741 14.94 34.9756 19.0229 34.9756C20.7692 34.9756 22.3505 34.2997 23.7901 32.6825L21.9729 31.041Z" fill="#264B87"/>
<path d="M3.44563 22.4238H0L4.05925 34.7825H8.09496L12.1778 22.4238H8.73213L6.08312 31.2603L3.44563 22.4238Z" fill="#264B87"/>
<path d="M49.0941 22.4238H45.6484L49.7077 34.7825H53.7434L57.8263 22.4238H54.3806L51.7316 31.2603L49.0941 22.4238Z" fill="#264B87"/>
<defs>
<linearGradient id="paint0_linear_951_1002" x1="48.5158" y1="9.36035" x2="76.718" y2="13.4276" gradientUnits="userSpaceOnUse">
<stop stop-color="#EF7F1A"/>
<stop offset="1" stop-color="#FECC00"/>
</linearGradient>
<linearGradient id="paint1_linear_951_1002" x1="72.5352" y1="0" x2="76.865" y2="13.5556" gradientUnits="userSpaceOnUse">
<stop stop-color="#A82682"/>
<stop offset="1" stop-color="#FECC00"/>
</linearGradient>
<linearGradient id="paint2_linear_951_1002" x1="89.9994" y1="9.36035" x2="76.6391" y2="13.4397" gradientUnits="userSpaceOnUse">
<stop stop-color="#A979B3"/>
<stop offset="0.501961" stop-color="#84BA9D"/>
<stop offset="1" stop-color="#FECC00"/>
</linearGradient>
<linearGradient id="paint3_linear_951_1002" x1="80.8475" y1="-5.03648e-08" x2="72.2258" y2="17.711" gradientUnits="userSpaceOnUse">
<stop stop-color="#A979B3"/>
<stop offset="0.501961" stop-color="#FFED00"/>
<stop offset="1" stop-color="#FECC00"/>
</linearGradient>
<linearGradient id="paint4_linear_951_1002" x1="72.5352" y1="27.2224" x2="76.865" y2="13.6668" gradientUnits="userSpaceOnUse">
<stop stop-color="#264B87"/>
<stop offset="1" stop-color="#5B86B9"/>
</linearGradient>
<linearGradient id="paint5_linear_951_1002" x1="80.8475" y1="27.2224" x2="76.5176" y2="13.6668" gradientUnits="userSpaceOnUse">
<stop stop-color="#DECA08"/>
<stop offset="1" stop-color="#A979B3"/>
</linearGradient>
</defs>
</svg>
