<svg width="106" height="41" viewBox="0 0 106 41" fill="none" xmlns="http://www.w3.org/2000/svg">
<path fill-rule="evenodd" clip-rule="evenodd" d="M57.2773 11.1973H84.6263L89.4749 16.0552H78.7977L57.2773 11.1973Z" fill="url(#paint0_linear_481_249)"/>
<path fill-rule="evenodd" clip-rule="evenodd" d="M84.625 0.499023V11.1968L89.4737 16.0547V5.35697L84.625 0.499023Z" fill="url(#paint1_linear_481_249)"/>
<path fill-rule="evenodd" clip-rule="evenodd" d="M105.003 11.1973H94.3252L89.4766 16.0552H100.154L105.003 11.1973Z" fill="url(#paint2_linear_481_249)"/>
<path fill-rule="evenodd" clip-rule="evenodd" d="M94.3252 0.499023V11.1968L89.4766 16.0547V5.35697L94.3252 0.499023Z" fill="url(#paint3_linear_481_249)"/>
<path fill-rule="evenodd" clip-rule="evenodd" d="M57.2773 20.9126H84.6263L89.4749 16.0547H78.7977L57.2773 20.9126Z" fill="#49BED8"/>
<path fill-rule="evenodd" clip-rule="evenodd" d="M84.625 31.6103V20.9126L89.4737 16.0547V26.7524L84.625 31.6103Z" fill="url(#paint4_linear_481_249)"/>
<path fill-rule="evenodd" clip-rule="evenodd" d="M94.3252 31.6103V20.9126L89.4766 16.0547V26.7524L94.3252 31.6103Z" fill="url(#paint5_linear_481_249)"/>
<path fill-rule="evenodd" clip-rule="evenodd" d="M105.003 20.9126L100.154 16.0547H89.4766L105.003 20.9126Z" fill="#F3DDC6"/>
<path fill-rule="evenodd" clip-rule="evenodd" d="M57.2773 20.9126H84.6263L89.4749 16.0547L57.2773 20.9126Z" fill="#264B87"/>
<path fill-rule="evenodd" clip-rule="evenodd" d="M94.3252 31.6103V20.9126L89.4766 16.0547L94.3252 31.6103Z" fill="#FFED00"/>
<path fill-rule="evenodd" clip-rule="evenodd" d="M105.003 11.1973L100.154 16.0552H89.4766L105.003 11.1973Z" fill="#FFED00"/>
<path fill-rule="evenodd" clip-rule="evenodd" d="M94.3252 0.499023V11.1968L89.4766 16.0547L94.3252 0.499023Z" fill="#A979B3"/>
<path fill-rule="evenodd" clip-rule="evenodd" d="M84.625 31.6103V20.9126L89.4737 16.0547L84.625 31.6103Z" fill="#264B87"/>
<path fill-rule="evenodd" clip-rule="evenodd" d="M57.2773 20.9126L78.7977 16.0547H89.4749L57.2773 20.9126Z" fill="#264B87"/>
<path fill-rule="evenodd" clip-rule="evenodd" d="M57.2773 11.1973L78.7977 16.0552H89.4749L57.2773 11.1973Z" fill="#C3B9BB"/>
<path fill-rule="evenodd" clip-rule="evenodd" d="M84.625 0.499023V11.1968L89.4737 16.0547L84.625 0.499023Z" fill="#EF7F1A"/>
<path fill-rule="evenodd" clip-rule="evenodd" d="M105.001 11.1973L100.152 16.0551L57.2773 20.9131L105.001 11.1973Z" fill="#FEFEFE" fill-opacity="0.2"/>
<path fill-rule="evenodd" clip-rule="evenodd" d="M105.001 20.9131L100.152 16.0552L57.2773 11.1973L105.001 20.9131Z" fill="#FEFEFE" fill-opacity="0.2"/>
<path fill-rule="evenodd" clip-rule="evenodd" d="M94.3224 31.6103V20.9126L84.625 0.499023L94.3224 31.6103Z" fill="#FEFEFE" fill-opacity="0.2"/>
<path fill-rule="evenodd" clip-rule="evenodd" d="M84.625 31.6103V20.9126L94.3224 0.499023L84.625 31.6103Z" fill="#FEFEFE" fill-opacity="0.2"/>
<path fill-rule="evenodd" clip-rule="evenodd" d="M94.3224 0.499023V11.1968L84.625 31.6103L94.3224 0.499023Z" fill="#FEFEFE" fill-opacity="0.2"/>
<path fill-rule="evenodd" clip-rule="evenodd" d="M84.625 0.499023V11.1968L89.4781 21.4128L94.3224 31.6103L84.625 0.499023Z" fill="#FEFEFE" fill-opacity="0.2"/>
<path d="M80.8754 40.1954V31.5609C80.8754 27.4781 77.9017 25.7676 74.7076 25.7676C72.7802 25.7676 71.0181 26.1538 69.2835 27.5608L70.5499 29.9056C71.3761 29.216 73.0005 28.747 74.3772 28.7746C75.809 28.8023 77.0481 29.5194 77.1307 31.4781C76.3046 31.1471 75.3959 30.954 74.4598 30.9263C71.4587 30.8712 68.4023 32.4711 68.4023 35.6437C68.4023 38.292 70.3572 40.499 74.0192 40.499C75.1207 40.499 76.4974 40.0576 77.3784 38.954L77.8741 40.1954H80.8754ZM71.8993 35.5333C71.9267 34.2367 73.2759 33.7126 74.7076 33.7126C75.5887 33.7126 76.4698 33.9057 77.1581 34.2092V36.4161C75.7539 37.8782 71.8441 38.0989 71.8993 35.5333Z" fill="#FEFEFE"/>
<path d="M47.9648 26.2373V40.1961H51.737V26.2373H47.9648Z" fill="#FEFEFE"/>
<path d="M51.7095 24.6362V20.9121H47.9648V24.6362H51.7095Z" fill="#FEFEFE"/>
<path d="M45.7855 37.1324C44.216 37.2703 43.8581 36.4428 43.8581 35.7255V20.8838H40.0859V35.7255C40.0859 39.5876 42.619 40.7462 45.7855 40.2222V37.1324Z" fill="#FEFEFE"/>
<path d="M38.2446 36.9952C36.6476 37.2158 35.7389 36.5307 35.7389 35.6204V29.2432H38.2446V26.2363H35.7389V20.9121L32.077 21.5765V26.2363H29.9844V29.2432H32.077V35.7031C31.9393 39.4228 34.858 40.7744 38.2446 40.1951V36.9952Z" fill="#FEFEFE"/>
<path d="M18.8348 31.7813C19.1377 29.9055 20.7348 29.1606 22.1941 29.1606C23.6257 29.1606 25.0851 29.8503 25.3879 31.7813H18.8348ZM25.6357 35.9745C23.3505 38.016 19.4681 37.4367 18.8348 34.678H28.6646C28.9674 33.9883 29.0499 33.2435 29.0499 32.8021C29.1051 28.6365 26.2415 25.8778 22.1664 25.9055C17.5407 25.9329 15.0627 29.5469 15.0627 33.1607C15.0351 36.7745 17.4307 40.4712 22.1941 40.4712C24.2315 40.4712 26.0763 39.6988 27.7559 37.8505L25.6357 35.9745Z" fill="#FEFEFE"/>
<path d="M4.01993 26.127H0L4.73582 40.2513H9.44418L14.2075 26.127H10.1875L7.09701 36.2258L4.01993 26.127Z" fill="#FEFEFE"/>
<path d="M57.2777 26.127H53.2578L57.9936 40.2513H62.702L67.4654 26.127H63.4454L60.3548 36.2258L57.2777 26.127Z" fill="#FEFEFE"/>
<defs>
<linearGradient id="paint0_linear_481_249" x1="56.603" y1="11.1973" x2="89.4776" y2="16.0371" gradientUnits="userSpaceOnUse">
<stop stop-color="#EF7F1A"/>
<stop offset="1" stop-color="#FECC00"/>
</linearGradient>
<linearGradient id="paint1_linear_481_249" x1="84.625" y1="0.499023" x2="89.4906" y2="16.0494" gradientUnits="userSpaceOnUse">
<stop stop-color="#A82682"/>
<stop offset="1" stop-color="#FECC00"/>
</linearGradient>
<linearGradient id="paint2_linear_481_249" x1="105.003" y1="11.1973" x2="89.4713" y2="16.0383" gradientUnits="userSpaceOnUse">
<stop stop-color="#A979B3"/>
<stop offset="0.501961" stop-color="#84BA9D"/>
<stop offset="1" stop-color="#FECC00"/>
</linearGradient>
<linearGradient id="paint3_linear_481_249" x1="94.3253" y1="0.499023" x2="84.5977" y2="20.8982" gradientUnits="userSpaceOnUse">
<stop stop-color="#A979B3"/>
<stop offset="0.501961" stop-color="#FFED00"/>
<stop offset="1" stop-color="#FECC00"/>
</linearGradient>
<linearGradient id="paint4_linear_481_249" x1="84.625" y1="31.6102" x2="89.4906" y2="16.06" gradientUnits="userSpaceOnUse">
<stop stop-color="#264B87"/>
<stop offset="1" stop-color="#5B86B9"/>
</linearGradient>
<linearGradient id="paint5_linear_481_249" x1="94.3253" y1="31.6103" x2="89.4597" y2="16.06" gradientUnits="userSpaceOnUse">
<stop stop-color="#DECA08"/>
<stop offset="1" stop-color="#A979B3"/>
</linearGradient>
</defs>
</svg>
