<svg width="40" height="35" viewBox="0 0 40 35" fill="none" xmlns="http://www.w3.org/2000/svg">
<path d="M6.43773 7.94716C8.18457 6.14936 10.1063 4.70539 12.1128 3.56282C14.188 2.38062 16.3705 1.52013 18.5841 1.04003C20.7645 0.567004 23.0017 0.476696 25.1917 0.869426C27.298 1.2469 29.4332 2.08961 31.2842 3.57517C33.0889 5.02289 34.6287 7.13265 35.7124 9.62016C36.7618 12.0245 37.3896 14.8294 37.2715 17.6672C37.1728 20.0361 36.4979 22.3274 35.5354 24.2595C34.7317 25.8706 33.6791 27.2183 32.4913 28.2556C31.252 29.3388 29.8807 30.0895 28.4697 30.5972C26.9589 31.141 25.4041 31.4071 23.8472 31.4849C22.2098 31.5672 20.5681 31.4416 18.9425 31.1614C17.3373 30.8836 15.745 30.4495 14.1794 29.8782C12.6923 29.3352 11.2265 28.6676 9.80372 27.8533C8.57407 27.1501 7.37016 26.3314 6.24243 25.3463C4.56856 23.8855 2.8968 21.9391 2.10171 19.3376C1.69075 17.9952 1.57917 16.5069 1.81093 15.0806C2.07061 13.4775 2.68756 12.0211 3.43977 10.7786C4.8765 8.40695 6.77573 6.53754 8.71356 5.06088C10.5945 3.62747 12.615 2.57424 14.6977 1.89414C16.7857 1.21151 18.9339 0.909971 21.0767 0.983493C23.2173 1.0569 25.3494 1.50688 27.4074 2.34085C29.4526 3.16936 31.4172 4.37899 33.222 5.96641C35.1599 7.67031 36.9174 9.85197 38.1342 12.5958C39.3059 15.239 39.8982 18.4294 39.1471 21.4546C38.3874 24.5167 36.4764 26.7107 34.5858 28.3883C32.5857 30.1621 30.4086 31.5159 28.1446 32.4709C25.8773 33.4269 23.5296 33.9946 21.1679 34.2102C18.7912 34.4269 16.3941 34.2996 14.0346 33.838C11.9465 33.4304 9.86276 32.7998 7.87554 31.8033C6.09543 30.9111 4.3325 29.7049 2.90969 27.9311C1.49226 26.1625 0.492225 23.7741 0.456265 21.0602C0.413458 17.8228 1.68861 14.8692 3.22836 12.5933C4.46232 10.7689 5.92483 9.28772 7.49355 8.08339C8.85841 7.03542 10.3005 6.19548 11.7813 5.53393C13.3253 4.84507 14.9145 4.34461 16.5207 4.04037C18.1367 3.73357 19.7762 3.62474 21.4061 3.73266C22.9963 3.83873 24.5801 4.15626 26.1187 4.73447C27.5941 5.28901 29.0276 6.08303 30.3474 7.16895C31.6393 8.23196 32.8078 9.57242 33.78 11.1748C34.7897 12.8408 35.5644 14.78 36.0805 16.8421C36.47 18.3967 36.8005 20.1104 36.588 21.7649C36.3638 23.5087 35.515 24.9033 34.6641 26.1413C33.0557 28.4793 31.0449 30.3514 28.8635 31.4558C28.6542 31.5619 28.7444 32.034 28.9557 31.9271C31.2799 30.7501 33.3948 28.8905 35.1062 26.3756C35.9657 25.1102 36.8026 23.6529 37.0215 21.8808C37.2329 20.1627 36.941 18.417 36.5451 16.7934C36.0172 14.6287 35.2264 12.6072 34.1845 10.8476C33.1952 9.17457 31.9848 7.76768 30.6554 6.65524C29.2959 5.51626 27.8119 4.68067 26.285 4.10502C24.7013 3.50723 23.065 3.1817 21.4276 3.07378C19.7397 2.96336 18.0476 3.09069 16.3748 3.41527C14.7202 3.73613 13.0839 4.25977 11.4959 4.9875C9.9722 5.68521 8.48609 6.57025 7.08797 7.67213C5.44734 8.96314 3.91508 10.5698 2.65217 12.5357C1.12303 14.9171 -0.0921491 17.9731 0.00549988 21.2697C0.0891903 24.0693 1.11799 26.5532 2.58671 28.3864C4.05779 30.2231 5.86474 31.4734 7.70494 32.4046C9.73506 33.4322 11.8693 34.0804 14.0035 34.4996C16.4274 34.9752 18.8846 35.1229 21.3278 34.8948C23.7656 34.6674 26.1895 34.0767 28.5244 33.0598C30.841 32.0509 33.075 30.629 35.1094 28.7703C37.0441 27.0016 38.9207 24.6902 39.6729 21.5244C40.4143 18.402 39.822 15.0762 38.6321 12.3375C37.3971 9.49193 35.5987 7.21311 33.6094 5.43582C31.752 3.77514 29.7165 2.50795 27.6048 1.64129C25.4953 0.776614 23.3021 0.311388 21.1057 0.235306C18.8974 0.159195 16.6795 0.479427 14.5292 1.18952C12.3865 1.89596 10.3059 2.99952 8.37556 4.48688C7.41521 5.2271 6.49245 6.06451 5.61902 6.99385C4.66834 8.00548 3.75522 9.1081 2.99125 10.3984C2.21759 11.7035 1.57809 13.2165 1.30662 14.8852C1.06262 16.3805 1.14449 17.9448 1.5459 19.3729C2.33455 22.1727 4.05566 24.2753 5.82396 25.8557C6.98495 26.8938 8.22965 27.7409 9.50008 28.4802C10.9465 29.322 12.439 30.0117 13.9541 30.5706C15.5861 31.1728 17.2461 31.6229 18.92 31.9094C20.5885 32.1942 22.2752 32.3152 23.9545 32.2171C25.5672 32.1225 27.1832 31.8298 28.7444 31.2453C30.1951 30.7023 31.6114 29.8985 32.8776 28.7561C34.1244 27.6304 35.2114 26.181 36.044 24.455C37.0365 22.3997 37.6964 19.9734 37.7683 17.4797C37.8531 14.5651 37.1857 11.6726 36.0976 9.21344C34.971 6.66324 33.3797 4.49308 31.5213 3.00749C29.6103 1.48036 27.4203 0.631506 25.2507 0.240598C22.9877 -0.167041 20.6915 -0.0369855 18.4436 0.481988C16.1816 1.00369 13.982 1.93668 11.8811 3.22239C9.92392 4.42149 8.06225 5.95315 6.36903 7.78259C6.30145 7.85599 6.36583 8.01963 6.43773 7.94716Z" fill="#B0B5BD"/>
</svg>
