<svg width="105" height="177" viewBox="0 0 105 177" fill="none" xmlns="http://www.w3.org/2000/svg">
<path fill-rule="evenodd" clip-rule="evenodd" d="M41.2855 124.049C37.6216 123.148 33.9541 121.802 30.2846 120.012C26.643 118.235 22.987 116.015 19.3189 113.352C15.6724 110.706 12.0083 107.615 8.32699 104.081C7.87421 103.645 7.35336 103.319 6.80042 103.102C6.22139 102.875 5.60879 102.768 5.00293 102.78C4.40274 102.791 3.79947 102.922 3.23216 103.17C2.69131 103.407 2.18415 103.753 1.74648 104.209C1.3107 104.661 0.984062 105.182 0.767495 105.735C0.540723 106.314 0.433485 106.927 0.445201 107.533C0.45654 108.133 0.587176 108.736 0.835113 109.303C1.07171 109.844 1.41869 110.351 1.87374 110.789C4.91891 113.712 7.96338 116.365 11.0051 118.743C14.0533 121.127 17.1011 123.241 20.1463 125.086C23.1642 126.913 26.2101 128.489 29.2814 129.813C32.3428 131.132 35.3895 132.183 38.4188 132.965L41.8095 133.839C38.3966 137.253 7.18673 168.471 7.1735 168.471C6.72714 168.916 6.38988 169.43 6.16425 169.976C5.92992 170.542 5.81243 171.153 5.81243 171.771C5.81243 172.387 5.92992 172.998 6.16425 173.564C6.38837 174.105 6.72672 174.618 7.17837 175.07C7.6304 175.522 8.14372 175.86 8.68457 176.084H8.68974C9.25553 176.319 9.86489 176.436 10.4779 176.436C11.6772 176.436 12.8727 175.983 13.7775 175.078C13.7775 175.064 48.8091 140.04 52.2568 136.59L90.7358 175.07C91.1878 175.522 91.7011 175.86 92.242 176.084H92.2473C92.8131 176.319 93.4223 176.436 94.0353 176.436C95.2346 176.436 96.43 175.983 97.3397 175.073C97.7865 174.626 98.1233 174.113 98.3493 173.566C98.5832 173 98.7008 172.389 98.7008 171.771C98.7008 171.158 98.5832 170.548 98.3488 169.983V169.977C98.1251 169.436 97.7869 168.923 97.3349 168.471L62.7038 133.839L66.0952 132.965C69.1244 132.183 72.1712 131.132 75.2333 129.813C78.3042 128.489 81.3494 126.913 84.367 125.086C87.4129 123.242 90.4602 121.127 93.5084 118.743C96.5502 116.365 99.5949 113.712 102.639 110.789C103.094 110.351 103.441 109.844 103.678 109.303C103.926 108.736 104.057 108.133 104.068 107.533C104.08 106.927 103.972 106.314 103.746 105.735C103.529 105.182 103.203 104.661 102.767 104.209C102.329 103.753 101.822 103.407 101.281 103.17C100.714 102.922 100.111 102.791 99.5103 102.78C98.9045 102.768 98.2918 102.875 97.7128 103.102C97.1599 103.319 96.639 103.645 96.1862 104.081C92.5057 107.615 88.8419 110.706 85.1958 113.352C81.5278 116.014 77.8714 118.235 74.2298 120.012C70.5603 121.802 66.8926 123.148 63.2288 124.049C59.552 124.953 55.8935 125.405 52.2572 125.405C48.6209 125.405 44.9622 124.953 41.2855 124.049V124.049ZM17.3381 68.7055C18.9402 71.1002 20.7836 73.3396 22.8328 75.3889C24.8821 77.4381 27.1214 79.2814 29.5161 80.8835C31.8972 82.4762 34.44 83.8425 37.1125 84.9492C39.728 86.0324 42.481 86.8726 45.3417 87.4384C48.1193 87.9879 50.9963 88.2767 53.9447 88.2767C56.8931 88.2767 59.7701 87.9879 62.5477 87.4384C65.4084 86.8726 68.1615 86.0324 70.7769 84.9492C73.4494 83.8425 75.9922 82.4762 78.3733 80.8835C80.768 79.2814 83.0075 77.4381 85.0567 75.3889C87.106 73.3396 88.9492 71.1002 90.5514 68.7055C92.144 66.3244 93.5104 63.7816 94.617 61.1091C95.7002 58.4936 96.5404 55.7406 97.1062 52.8799C97.6557 50.1023 97.9445 47.2253 97.9445 44.2769C97.9445 38.3098 96.76 32.6254 94.6155 27.4478C92.389 22.0722 89.119 17.228 85.0567 13.1658C83.0075 11.1165 80.768 9.27361 78.3733 7.67147C75.9922 6.07877 73.4494 4.71247 70.7769 3.60545C68.1611 2.52186 65.408 1.68241 62.548 1.11624C59.7704 0.566695 56.8931 0.27832 53.9447 0.27832C50.9959 0.27832 48.119 0.566695 45.3414 1.11624C42.4814 1.68241 39.7283 2.52186 37.1125 3.60545C34.44 4.71247 31.8972 6.07877 29.5161 7.67147C27.1214 9.27361 24.8821 11.1165 22.8328 13.1658C20.7832 15.2154 18.9402 17.4544 17.3381 19.8491C15.7454 22.2294 14.3791 24.7727 13.2724 27.4452C12.1892 30.0606 11.349 32.8136 10.7832 35.6743C10.2337 38.4512 9.94496 41.3285 9.94496 44.2769C9.94496 47.2253 10.2337 50.1023 10.7832 52.8799C11.349 55.7406 12.1892 58.4936 13.2724 61.1091C14.3791 63.7816 15.7454 66.3244 17.3381 68.7055V68.7055ZM29.4318 68.7898C27.8372 67.1952 26.3897 65.4313 25.1156 63.5265C23.8616 61.6503 22.7841 59.6418 21.9083 57.5272C21.0481 55.45 20.384 53.2786 19.9403 51.0389C19.5061 48.8471 19.2782 46.5855 19.2782 44.2769C19.2782 41.9684 19.5061 39.7067 19.9403 37.5154C20.384 35.2756 21.0481 33.1043 21.9083 31.027C22.7841 28.9124 23.862 26.904 25.1161 25.0278C26.3894 23.1229 27.8369 21.3598 29.4318 19.7648C31.0264 18.1702 32.79 16.7227 34.6953 15.4494C36.571 14.1953 38.5799 13.1174 40.6945 12.2417C42.7717 11.3814 44.943 10.7174 47.1828 10.2737C49.3745 9.83939 51.6362 9.6115 53.9447 9.6115C56.2532 9.6115 58.5149 9.83939 60.7067 10.2737C62.9464 10.7174 65.1178 11.3814 67.1951 12.2417C69.3097 13.1174 71.3184 14.1953 73.1942 15.4494C75.0994 16.7227 76.863 18.1702 78.4576 19.7648C80.0522 21.3594 81.4998 23.1225 82.7735 25.0278C84.0275 26.904 85.1054 28.9124 85.9811 31.027C86.8413 33.1043 87.5054 35.2756 87.9491 37.5154C88.3834 39.7067 88.6112 41.9684 88.6112 44.2769C88.6112 48.9635 87.6759 53.4408 85.9827 57.5295C84.2222 61.7799 81.6475 65.5999 78.4576 68.7898C76.8626 70.3848 75.0991 71.832 73.1942 73.1061C71.318 74.3601 69.3097 75.4376 67.1951 76.3133C65.1178 77.1736 62.9464 77.8376 60.7067 78.2813C58.5149 78.7156 56.2532 78.9435 53.9447 78.9435C51.6362 78.9435 49.3745 78.7156 47.1828 78.2813C44.943 77.8376 42.7717 77.1736 40.6945 76.3133C38.5799 75.4376 36.5714 74.3601 34.6953 73.1061C32.7904 71.832 31.0268 70.3848 29.4318 68.7898V68.7898Z" fill="#7688A1"/>
</svg>
