<svg width="34" height="25" viewBox="0 0 34 25" fill="none" xmlns="http://www.w3.org/2000/svg">
<path fill-rule="evenodd" clip-rule="evenodd" d="M15.0906 0.260846C12.5664 1.20117 11.0635 3.42149 11.0635 6.21073C11.0635 10.4846 14.9075 13.4073 18.8439 12.1263C22.2205 11.0276 23.8669 6.76978 22.244 3.33311C21.7295 2.24362 20.5622 1.08033 19.4279 0.526569C18.5874 0.116257 18.2943 0.0491824 17.1722 0.0104252C16.1386 -0.0253288 15.7254 0.0244406 15.0906 0.260846ZM3.89802 3.71882C3.26231 3.94565 2.24406 4.93832 1.95179 5.61579C1.37459 6.95456 1.79459 8.88355 2.86714 9.81959C3.53149 10.3994 4.6597 10.7603 5.45098 10.6461C7.3596 10.3705 8.7293 8.41174 8.35206 6.49733C8.00563 4.73939 6.87715 3.68722 5.25007 3.60527C4.75174 3.58024 4.14331 3.6313 3.89802 3.71882ZM27.7263 3.75172C26.6053 4.17318 25.7289 5.32761 25.5238 6.65294C25.3192 7.97526 26.1647 9.63052 27.3776 10.2824C29.0303 11.1707 31.1336 10.4072 31.917 8.63485C32.545 7.21413 32.2913 5.73692 31.2267 4.61539C30.2526 3.58925 28.9884 3.27719 27.7263 3.75172ZM2.02564 12.7604C1.4073 13.0442 0.635031 13.8103 0.297425 14.4748C0.0381453 14.9855 0 15.2834 0 16.8015C0 18.3445 0.0323081 18.5886 0.284257 18.9467C0.705756 19.5461 1.28486 19.6914 3.28932 19.7004L5.08541 19.7084L5.16794 19.3151C5.63179 17.1035 6.82136 15.1516 8.37364 14.0547C8.69577 13.827 8.98342 13.6238 9.01274 13.6032C9.14225 13.5118 8.64093 13.0619 8.1449 12.8241C7.6801 12.6014 7.2305 12.5642 5.02269 12.5664C3.16959 12.5681 2.32591 12.6228 2.02564 12.7604ZM25.7922 12.8241C25.2962 13.0619 24.7949 13.5118 24.9244 13.6032C24.9537 13.6238 25.2438 13.8289 25.5689 14.0587C26.9687 15.0481 28.2336 17.0117 28.6189 18.7933L28.8012 19.6369H30.8262C33.0998 19.6369 33.4624 19.5126 33.8198 18.6112C34.0737 17.9712 34.0559 15.9382 33.788 14.9792C33.5242 14.0338 32.5416 12.9452 31.7411 12.7111C31.4556 12.6276 30.1226 12.5603 28.7787 12.5616C26.7086 12.5635 26.2522 12.6037 25.7922 12.8241ZM11.6065 14.4308C10.6729 14.6229 9.37329 15.36 8.63821 16.1144C7.25657 17.5321 6.64298 19.3607 6.74276 21.7636C6.81118 23.4121 7.19371 24.2289 8.11803 24.7002C8.69496 24.9946 8.85704 25 16.9685 25C25.0801 25 25.2421 24.9946 25.8191 24.7002C26.2273 24.492 26.5204 24.1971 26.7783 23.7349C27.1326 23.0999 27.149 22.9871 27.1337 21.2816C27.121 19.8753 27.0589 19.3228 26.8422 18.6921C26.0391 16.3538 24.2726 14.8 21.9497 14.3885C20.9867 14.2179 20.9258 14.2252 19.8456 14.6366C18.8154 15.0291 18.5979 15.06 16.9007 15.0551C15.234 15.0501 14.9836 15.0146 14.1356 14.6618C13.1737 14.2615 12.6581 14.2145 11.6065 14.4308Z" fill="#264B87"/>
</svg>
