<svg width="46" height="56" viewBox="0 0 46 56" fill="none" xmlns="http://www.w3.org/2000/svg">
<path d="M9.39193 25.2647C10.8567 23.9175 13.1309 24.0192 14.471 25.4917C15.8111 26.9643 15.71 29.2504 14.2452 30.5976C12.295 32.394 10.7778 34.3962 9.62643 36.6036C8.70423 38.3715 8.00833 40.2923 7.50513 42.3633C7.92613 42.8091 8.36063 43.2292 8.80713 43.6234C12.6784 47.0416 17.5976 48.7488 22.581 48.7664C27.617 48.784 32.7172 47.0874 36.887 43.6986C37.4353 43.2531 37.9654 42.7807 38.4751 42.2813C37.9687 40.2548 37.2637 38.3711 36.3387 36.632C35.1588 34.4137 33.612 32.402 31.653 30.5976C30.1882 29.2504 30.0871 26.9643 31.4272 25.4917C32.7673 24.0192 35.0415 23.9175 36.5063 25.2647C39.0887 27.6433 41.1293 30.2981 42.6876 33.228C44.2381 36.143 45.3028 39.303 45.9416 42.7101L45.9385 42.7107C46.1337 43.763 45.8648 44.8915 45.1093 45.7595C43.9485 47.0881 42.7066 48.283 41.4017 49.3435C35.9249 53.7946 29.2147 56.0231 22.581 55.9997C15.8944 55.9762 9.28313 53.676 4.06653 49.0698C2.90153 48.0412 1.81253 46.9075 0.815231 45.6703C0.166331 44.8721 -0.14127 43.8026 0.0621302 42.7101C0.69843 39.3175 1.73073 36.1676 3.24923 33.2564C4.78333 30.3154 6.80103 27.6512 9.39193 25.2647ZM22.949 0C26.3607 0 29.4476 1.4432 31.6799 3.7764C33.8774 6.0731 35.2369 9.229 35.2369 12.6987C35.2369 16.1684 33.8774 19.3242 31.6799 21.621C29.4476 23.9542 26.3607 25.3973 22.949 25.3973C19.5374 25.3973 16.4505 23.9542 14.2182 21.621C12.0205 19.3242 10.6611 16.1684 10.6611 12.6987C10.6611 9.229 12.0205 6.0733 14.2182 3.7764C16.4505 1.4432 19.5374 0 22.949 0ZM26.488 8.7972C25.5803 7.8486 24.3288 7.2617 22.949 7.2617C21.5692 7.2617 20.3177 7.8486 19.4101 8.7972C18.4677 9.7821 17.8847 11.1605 17.8847 12.6987C17.8847 14.2367 18.4677 15.6153 19.4101 16.6001C20.3177 17.5487 21.5692 18.1356 22.949 18.1356C24.3288 18.1356 25.5803 17.5487 26.488 16.6001C27.4303 15.6152 28.0132 14.2368 28.0132 12.6987C28.0132 11.1605 27.4302 9.782 26.488 8.7972Z" fill="#B0B5BD"/>
</svg>
