<svg width="45" height="55" viewBox="0 0 45 55" fill="none" xmlns="http://www.w3.org/2000/svg">
<path d="M29.3092 31.8367C29.3997 31.769 29.4941 31.7047 29.5923 31.6445C30.201 31.2202 30.7722 30.75 31.3003 30.239C33.7946 27.8251 35.3374 24.4969 35.3374 20.827C35.3374 17.1572 33.7946 13.829 31.3003 11.4151C28.7723 8.9686 25.2576 7.4552 21.3561 7.4552C17.4547 7.4552 13.9399 8.9686 11.412 11.4151C8.9177 13.829 7.3748 17.1571 7.3748 20.827C7.3748 24.4969 8.9176 27.825 11.412 30.239C13.94 32.6855 17.4546 34.1989 21.3561 34.1989C24.3175 34.1989 27.0559 33.3268 29.3092 31.8367ZM36.3132 35.6797L44.4707 49.3541C45.5208 51.1152 44.9597 53.4034 43.2176 54.4649C41.4754 55.5264 39.2119 54.9592 38.1618 53.1981L30.167 39.7965C27.4781 40.9892 24.4942 41.6541 21.3561 41.6541C15.4996 41.6541 10.1796 39.3393 6.3131 35.5974C2.4125 31.8225 0 26.6008 0 20.827C0 15.0532 2.4126 9.8314 6.3131 6.0567C10.1796 2.3146 15.4998 0 21.3561 0C27.2124 0 32.5326 2.3148 36.3992 6.0567C40.2996 9.8314 42.7123 15.0533 42.7123 20.827C42.7123 26.6008 40.2995 31.8225 36.3992 35.5974L36.3132 35.6797Z" fill="#B0B5BD"/>
</svg>
