<svg width="16" height="19" viewBox="0 0 16 19" fill="none" xmlns="http://www.w3.org/2000/svg">
<path d="M10.1767 11.362L10.2457 11.3157C10.4864 11.1519 10.7113 10.9694 10.9185 10.7701C11.8784 9.85171 12.4722 8.58309 12.4722 7.18621C12.4722 5.78934 11.8774 4.52072 10.9185 3.60328C9.95273 2.67795 8.61011 2.10479 7.12346 2.10479C5.6378 2.10479 4.29519 2.67795 3.32843 3.60328C2.37054 4.52072 1.77569 5.78934 1.77569 7.18621C1.77569 8.57618 2.36067 9.83593 3.30771 10.7494L3.32843 10.7692C4.29519 11.6955 5.6378 12.2686 7.12346 12.2686C8.2599 12.2686 9.31249 11.9342 10.1767 11.362V11.362ZM11.8734 12.2943L14.9276 17.3589C15.1801 17.7772 15.044 18.3237 14.6257 18.5763C14.2065 18.8298 13.66 18.6937 13.4074 18.2744L10.3947 13.2778C9.4141 13.7681 8.30133 14.0443 7.12346 14.0443C5.16527 14.0443 3.38959 13.2798 2.10123 12.0457L2.07558 12.02C0.792152 10.779 0 9.06943 0 7.18621C0 5.28919 0.804977 3.56874 2.10123 2.32675C3.38959 1.09363 5.16626 0.329102 7.12346 0.329102C9.07968 0.329102 10.8583 1.09363 12.1467 2.32675C13.4429 3.56874 14.2469 5.28919 14.2469 7.18621C14.2469 9.08324 13.4429 10.8047 12.1467 12.0467L11.8734 12.2943V12.2943Z" fill="#B0B5BD"/>
</svg>
