<svg width="25" height="25" viewBox="0 0 25 25" fill="none" xmlns="http://www.w3.org/2000/svg">
<path d="M6.78899 18.0429C6.39846 18.4334 6.39846 19.0666 6.78899 19.4571C7.17951 19.8476 7.81268 19.8476 8.2032 19.4571L6.78899 18.0429ZM18.4961 8.75C18.4961 8.19771 18.0484 7.75 17.4961 7.75L8.49609 7.75C7.94381 7.75 7.49609 8.19771 7.49609 8.75C7.49609 9.30228 7.94381 9.75 8.49609 9.75L16.4961 9.75V17.75C16.4961 18.3023 16.9438 18.75 17.4961 18.75C18.0484 18.75 18.4961 18.3023 18.4961 17.75L18.4961 8.75ZM8.2032 19.4571L18.2032 9.45711L16.789 8.04289L6.78899 18.0429L8.2032 19.4571Z" fill="#264B87"/>
<rect x="1" y="1" width="23" height="23" rx="4" stroke="#264B87" stroke-width="2"/>
</svg>
