<svg width="192" height="183" viewBox="0 0 192 183" fill="none" xmlns="http://www.w3.org/2000/svg">
<path fill-rule="evenodd" clip-rule="evenodd" d="M56.6245 98.1908L17.3518 81.9699L20.2859 80.7328C61.0632 63.5394 101.839 46.3387 142.613 29.1389L167.311 18.721L160.434 25.7781L73.7892 114.696C73.3474 115.151 73.0171 115.669 72.7997 116.215C72.5714 116.788 72.4618 117.4 72.4698 118.01C72.4777 118.606 72.6059 119.211 72.8527 119.783C73.0881 120.331 73.4317 120.841 73.8803 121.277L74.0636 121.444C74.1339 121.51 74.1947 121.562 74.2378 121.596L74.4329 121.743L74.671 121.9C79.1697 124.999 83.6515 128.32 88.106 131.622C90.2642 133.221 92.4121 134.813 94.8627 136.595L96.4112 137.721L73.1338 153.211L59.8794 103.272L59.8719 103.274L59.3522 101.31C59.2611 100.964 59.1288 100.627 58.9599 100.308C58.7849 99.9835 58.5815 99.6845 58.3525 99.4234C58.1231 99.1614 57.8585 98.921 57.5637 98.7105C57.2753 98.5049 56.9605 98.3288 56.6245 98.1908V98.1908ZM84.2018 117.347L179.763 19.2777L179.096 23.4227L177.039 36.2142C170.016 79.8813 162.992 123.55 155.982 167.219L155.638 169.362C139.536 157.649 123.435 145.415 107.138 134.032L106.955 133.915C102.151 130.626 97.2986 127.023 92.4854 123.449C90.0385 121.632 87.5977 119.82 85.4423 118.25L84.2018 117.347V117.347ZM163.942 176.312L191.25 6.40464C191.325 6.01989 191.352 5.62909 191.332 5.24546C191.311 4.86411 191.242 4.4805 191.125 4.10784C191.014 3.75143 190.855 3.40104 190.653 3.06504C190.457 2.7468 190.216 2.44446 189.932 2.16818C189.583 1.8284 189.192 1.55361 188.778 1.34499C188.35 1.12917 187.898 0.98404 187.441 0.910339C186.974 0.835127 186.491 0.832094 186.012 0.90126C185.542 0.970425 185.083 1.10953 184.653 1.31778L3.47563 77.7334C2.89887 77.9764 2.39508 78.3245 1.97895 78.7459C1.54884 79.1817 1.21096 79.6995 0.981918 80.263C0.750233 80.8319 0.628504 81.4408 0.631905 82.0512C0.634929 82.6408 0.752865 83.2421 0.996644 83.8218C1.11154 84.0943 1.25858 84.3615 1.43243 84.6193C1.6078 84.8793 1.80167 85.1137 2.00841 85.3185C2.22157 85.5294 2.45742 85.7207 2.71065 85.8881C2.96841 86.0586 3.23827 86.2022 3.5138 86.3152L5.44025 87.1055L5.43608 87.1142L50.9469 105.91L65.7985 161.874C65.9599 162.489 66.2339 163.04 66.59 163.509C66.9589 163.994 67.4237 164.401 67.9495 164.707C68.4775 165.016 69.0637 165.221 69.6725 165.304C70.2603 165.384 70.8756 165.352 71.486 165.192C71.6028 165.161 71.7347 165.119 71.8783 165.068C72.0359 165.012 72.1614 164.962 72.2521 164.921C72.3662 164.869 72.4853 164.807 72.6074 164.737C72.7026 164.683 72.7952 164.626 72.8844 164.567C78.7657 159.991 86.3852 155.151 93.6348 150.545C97.1875 148.288 100.653 146.087 103.667 144.078L104.432 143.568L156.294 181.328C156.802 181.697 157.359 181.949 157.933 182.087C158.533 182.231 159.153 182.253 159.755 182.159C160.348 182.066 160.927 181.854 161.454 181.532C161.961 181.222 162.417 180.811 162.783 180.306C162.877 180.178 162.975 180.023 163.075 179.844C163.162 179.693 163.242 179.526 163.316 179.349C163.387 179.176 163.448 179.003 163.496 178.833C163.55 178.642 163.59 178.467 163.615 178.308L163.931 176.31L163.942 176.312V176.312Z" fill="#7688A1"/>
</svg>
