<svg width="194" height="194" viewBox="0 0 194 194" fill="none" xmlns="http://www.w3.org/2000/svg">
<path fill-rule="evenodd" clip-rule="evenodd" d="M179.379 49.4101C180.903 53.2361 182.082 57.242 182.873 61.3832C183.647 65.4311 184.052 69.6052 184.052 73.8632V97.534C184.052 101.792 183.647 105.966 182.874 110.014C182.082 114.155 180.903 118.161 179.379 121.987C177.819 125.899 175.905 129.609 173.681 133.071C171.429 136.574 168.851 139.838 165.996 142.812C163.164 145.763 160.048 148.433 156.698 150.773C153.386 153.086 149.845 155.073 146.121 156.688C142.465 158.274 138.64 159.499 134.69 160.321C130.823 161.125 126.841 161.547 122.784 161.547H74.3632C74.0004 161.547 73.6625 161.583 73.3533 161.656C73.0196 161.729 72.6995 161.839 72.3945 161.978C72.0849 162.121 71.7931 162.299 71.5259 162.502C71.2557 162.708 71.0077 162.945 70.7889 163.204L48.9561 185.568C48.5142 186.022 48.1839 186.54 47.9666 187.087C47.7383 187.66 47.6287 188.271 47.6366 188.881C47.6446 189.477 47.7727 190.082 48.0195 190.655C48.255 191.202 48.5985 191.712 49.0472 192.148C49.5015 192.59 50.0192 192.921 50.5658 193.138C51.1391 193.366 51.7507 193.476 52.3603 193.468C52.9571 193.46 53.5614 193.332 54.134 193.085C54.6813 192.85 55.1915 192.506 55.6277 192.057L76.3108 170.88H122.784C127.505 170.88 132.106 170.397 136.544 169.477C141.116 168.53 145.529 167.121 149.735 165.301C154.032 163.441 158.121 161.148 161.949 158.476C165.813 155.78 169.416 152.691 172.704 149.266C175.97 145.864 178.921 142.129 181.504 138.118C184.062 134.146 186.258 129.906 188.039 125.453C189.782 121.094 191.132 116.519 192.04 111.781C192.922 107.178 193.385 102.413 193.385 97.534V73.8632C193.385 68.9843 192.922 64.2194 192.04 59.6156C191.132 54.8779 189.782 50.3032 188.039 45.9435C186.258 41.4905 184.062 37.2498 181.504 33.2775C178.921 29.2671 175.97 25.5329 172.705 22.1313C169.416 18.7059 165.813 15.6169 161.949 12.9206C158.121 10.2492 154.032 7.95585 149.735 6.09594C145.529 4.27572 141.116 2.86635 136.545 1.9192C132.106 0.999638 127.505 0.516602 122.784 0.516602H70.829C66.1091 0.516602 61.5075 0.999638 57.0688 1.9192C52.4975 2.86635 48.0845 4.27572 43.8787 6.09594C39.5813 7.95623 35.4927 10.2492 31.6644 12.9206C27.8006 15.6169 24.1975 18.7059 20.9093 22.1313C17.6434 25.5329 14.6927 29.2671 12.1098 33.2775C9.55145 37.2498 7.35635 41.4905 5.57544 45.9435C3.83194 50.3032 2.48223 54.8779 1.57401 59.6156C0.691871 64.2194 0.228516 68.9843 0.228516 73.8632V97.534C0.228516 101.272 0.500662 104.942 1.0245 108.521C1.56082 112.186 2.36093 115.764 3.40295 119.232C4.46802 122.775 5.7803 126.196 7.31668 129.468C8.87422 132.785 10.6737 135.975 12.69 139.012C14.7306 142.084 16.9835 144.983 19.4228 147.681C21.8584 150.374 24.5048 152.892 27.3364 155.207C30.1473 157.504 33.1127 159.577 36.2062 161.4C39.2676 163.203 42.4874 164.781 45.8406 166.108C46.4355 166.344 47.044 166.45 47.6325 166.441C48.2512 166.431 48.8582 166.297 49.4164 166.055C49.969 165.816 50.4785 165.465 50.9086 165.02C51.3194 164.595 51.6581 164.078 51.8928 163.483C52.1287 162.888 52.2344 162.28 52.2254 161.692C52.2155 161.073 52.0814 160.466 51.8395 159.908C51.6003 159.355 51.2495 158.846 50.8043 158.415C50.3791 158.005 49.862 157.666 49.2679 157.431C46.3807 156.288 43.5808 154.913 40.8902 153.327C38.1678 151.723 35.5864 149.92 33.1683 147.943C30.743 145.96 28.4484 143.771 26.3073 141.402C24.1756 139.043 22.2174 136.525 20.4554 133.872C18.7051 131.236 17.134 128.445 15.7639 125.521C14.4101 122.633 13.2607 119.636 12.3378 116.555C11.428 113.518 10.7288 110.38 10.2598 107.164C9.80055 104.013 9.56166 100.796 9.56166 97.534V73.8632C9.56166 69.6052 9.96727 65.4311 10.7402 61.3832C11.532 57.242 12.7108 53.2361 14.2354 49.4101C15.7941 45.4983 17.7077 41.7883 19.932 38.3277C22.1842 34.8234 24.7614 31.5594 27.6172 28.5845C30.4496 25.6342 33.5651 22.964 36.9156 20.6241C40.2276 18.311 43.7683 16.3237 47.4922 14.7087C51.1486 13.1232 54.9735 11.8975 58.9235 11.0762C62.7895 10.2719 66.772 9.84975 70.829 9.84975H122.784C126.842 9.84975 130.824 10.2719 134.69 11.0758C138.64 11.8971 142.465 13.1232 146.121 14.7087C149.845 16.3237 153.386 18.311 156.698 20.6241C160.049 22.964 163.164 25.6342 165.997 28.5845C168.852 31.5594 171.43 34.8234 173.682 38.3277C175.906 41.7883 177.82 45.4983 179.379 49.4101V49.4101ZM141.534 62.214C142.574 64.8415 143.424 67.6765 144.083 70.7156C144.739 73.737 145.206 76.9617 145.483 80.386C145.532 81.016 145.705 81.6075 145.974 82.137C146.256 82.6907 146.642 83.1767 147.101 83.5694C147.561 83.9625 148.101 84.2672 148.689 84.4584C149.251 84.6413 149.863 84.7192 150.496 84.6708C151.125 84.6209 151.717 84.4482 152.247 84.1787C152.8 83.8967 153.287 83.5113 153.679 83.0517C154.072 82.5917 154.377 82.052 154.568 81.4639C154.751 80.9015 154.829 80.2903 154.78 79.6573C154.451 75.5893 153.883 71.7615 153.078 68.1762C152.272 64.5872 151.229 61.2287 149.949 58.103C148.679 55.0019 147.167 52.1132 145.415 49.4407C143.674 46.7863 141.694 44.3489 139.476 42.1311C137.259 39.9133 134.821 37.9328 132.167 36.1927C129.494 34.4409 126.606 32.9287 123.504 31.6588C120.385 30.3802 117.026 29.337 113.431 28.5301C109.846 27.7254 106.019 27.1577 101.952 26.8293C101.318 26.7805 100.707 26.858 100.145 27.0409C99.5568 27.2318 99.017 27.5368 98.5571 27.9299C98.0975 28.3226 97.7119 28.8086 97.43 29.3623C97.1609 29.8918 96.9878 30.4833 96.9387 31.1134C96.8899 31.7465 96.9674 32.3576 97.1504 32.92C97.3412 33.5081 97.6462 34.0478 98.0393 34.5078C98.432 34.9674 98.918 35.3529 99.4717 35.6348C100.001 35.9039 100.593 36.077 101.223 36.1262C104.647 36.4028 107.871 36.87 110.893 37.5253C113.932 38.1845 116.767 39.0349 119.394 40.0739C122.044 41.1223 124.495 42.3688 126.746 43.8126C129.003 45.2609 131.048 46.9008 132.878 48.7301C134.707 50.5598 136.347 52.6045 137.796 54.8628C139.24 57.1128 140.486 59.5645 141.534 62.214V62.214ZM96.84 54.5064C97.0309 55.0945 97.3359 55.6342 97.729 56.0942C98.1217 56.5538 98.6078 56.9393 99.1615 57.2212C99.691 57.4903 100.282 57.6634 100.912 57.7126C102.825 57.8671 104.631 58.1261 106.325 58.4881C108.024 58.851 109.614 59.3208 111.093 59.896C112.607 60.4852 113.99 61.1773 115.242 61.9714C116.515 62.779 117.664 63.6952 118.686 64.7172C119.708 65.7391 120.624 66.8881 121.431 68.1607C122.225 69.4121 122.917 70.7958 123.507 72.3099C124.082 73.7888 124.551 75.3781 124.914 77.0758C125.276 78.7713 125.535 80.5768 125.69 82.49C125.739 83.1201 125.912 83.7116 126.181 84.2411C126.463 84.7948 126.849 85.2808 127.308 85.6735C127.768 86.0666 128.308 86.3712 128.896 86.5625C129.459 86.7454 130.07 86.8232 130.703 86.7749C131.332 86.725 131.924 86.5522 132.454 86.2828C133.008 86.0008 133.493 85.6153 133.886 85.1557C134.279 84.6958 134.584 84.156 134.775 83.5679C134.958 83.0055 135.036 82.3944 134.987 81.7613C134.78 79.1969 134.42 76.7848 133.909 74.5281C133.398 72.2705 132.735 70.1548 131.922 68.1838C131.114 66.2271 130.157 64.4099 129.052 62.7337C127.959 61.0752 126.703 59.5358 125.285 58.1181C123.867 56.7008 122.328 55.4441 120.669 54.3507C118.993 53.2459 117.176 52.2886 115.219 51.4809C113.247 50.6675 111.132 50.0042 108.874 49.4932C106.617 48.9826 104.205 48.6228 101.641 48.4157C101.008 48.3669 100.397 48.4444 99.8346 48.6273C99.2465 48.8182 98.7067 49.1232 98.2467 49.5163C97.7871 49.909 97.4018 50.395 97.1198 50.9487C96.8507 51.4782 96.6776 52.0697 96.6285 52.6998C96.5797 53.3328 96.6571 53.944 96.84 54.5064V54.5064ZM83.5894 65.7021C82.9888 64.4828 82.2757 63.2084 81.4593 61.8715C80.8372 60.8537 80.1595 59.8045 79.4297 58.7202L79.4164 58.7293L78.2777 57.0738C77.2296 55.5688 76.1838 54.1802 75.1346 52.9205C74.1036 51.6831 73.0577 50.5609 71.9896 49.5658C70.9627 48.6092 69.9249 47.7845 68.8693 47.1038C67.8299 46.4341 66.7724 45.9019 65.6903 45.5198C64.369 45.0534 63.07 44.7851 61.7902 44.7295C60.5207 44.6743 59.2549 44.8278 57.9888 45.2023C56.6966 45.5848 55.3877 46.2062 54.0547 47.0755C52.7039 47.9625 51.3304 49.1145 49.9297 50.5462C49.2237 51.2673 48.5853 52.0346 48.0142 52.843C47.4405 53.6552 46.9344 54.5143 46.4952 55.4139C46.0436 56.3391 45.6683 57.2911 45.3685 58.264C45.0571 59.275 44.819 60.3148 44.6535 61.3783C44.3817 63.1233 44.3054 64.9655 44.4105 66.8828V66.8881C44.5178 68.8561 44.8213 70.905 45.304 73.0125C45.801 75.1819 46.4918 77.4145 47.3596 79.6856C48.2497 82.0168 49.3136 84.3609 50.5317 86.6932C51.6497 88.8332 52.9204 91.0117 54.3268 93.205C55.7467 95.419 57.279 97.6085 58.9064 99.7503C60.543 101.904 62.3005 104.045 64.1623 106.151C65.9957 108.224 67.9361 110.266 69.9672 112.255C73.4659 115.68 77.2338 118.939 81.1974 121.927C85.0151 124.806 89.0005 127.424 93.0862 129.69C96.9806 131.849 100.97 133.694 104.995 135.143C108.829 136.524 112.7 137.549 116.554 138.15L116.555 138.145C117.255 138.253 118.085 138.34 118.989 138.376C119.78 138.407 120.654 138.404 121.588 138.347C122.395 138.298 123.237 138.207 124.095 138.066C124.866 137.938 125.659 137.765 126.458 137.54C127.227 137.324 128.005 137.058 128.778 136.738H128.783C129.501 136.441 130.219 136.093 130.927 135.69C131.58 135.318 132.232 134.892 132.874 134.409C133.484 133.949 134.073 133.446 134.633 132.898C136.064 131.497 137.216 130.124 138.1 128.771C138.973 127.44 139.594 126.131 139.977 124.839C140.351 123.573 140.505 122.307 140.449 121.038C140.394 119.758 140.126 118.459 139.659 117.138C139.283 116.075 138.769 115.043 138.128 114.037C137.477 113.016 136.682 112.003 135.756 110.994C134.805 109.959 133.725 108.937 132.526 107.922C131.293 106.879 129.961 105.858 128.539 104.852L128.101 104.521C126.468 103.39 124.951 102.38 123.551 101.517C122.133 100.644 120.779 99.8808 119.477 99.2394C118.216 98.6188 117.016 98.1184 115.868 97.7487C114.739 97.3855 113.657 97.1463 112.615 97.0405C111.179 96.8949 109.864 96.9403 108.664 97.1882C107.501 97.4286 106.43 97.8678 105.441 98.5167C104.428 99.1815 103.491 100.074 102.621 101.204C101.721 102.378 100.889 103.807 100.119 105.504C99.8576 106.083 99.7234 106.682 99.7057 107.268C99.6872 107.885 99.7926 108.499 100.01 109.071C100.224 109.638 100.549 110.164 100.972 110.612C101.377 111.043 101.875 111.405 102.452 111.665C103.032 111.926 103.63 112.06 104.217 112.078C104.833 112.096 105.447 111.991 106.02 111.774C106.586 111.559 107.112 111.234 107.561 110.812C107.992 110.406 108.353 109.909 108.613 109.331C108.765 108.997 108.909 108.692 109.047 108.413C109.183 108.137 109.305 107.906 109.413 107.719C109.663 107.288 109.945 106.957 110.259 106.721C110.704 106.387 111.182 106.252 111.695 106.301H111.7C112.383 106.37 113.132 106.572 113.95 106.896V106.901C114.724 107.208 115.573 107.625 116.499 108.142H116.504C117.366 108.625 118.335 109.218 119.406 109.911C120.497 110.617 121.614 111.373 122.774 112.182L122.934 112.293L123.203 112.46C124.181 113.151 125.08 113.819 125.89 114.464C126.706 115.113 127.437 115.745 128.074 116.358C128.751 117.009 129.325 117.646 129.785 118.268C130.279 118.937 130.646 119.594 130.873 120.242C131.052 120.752 131.1 121.294 131.004 121.871V121.876C130.92 122.381 130.724 122.909 130.409 123.463C130.168 123.889 129.854 124.336 129.465 124.806C129.1 125.247 128.647 125.733 128.106 126.263C127.821 126.542 127.521 126.795 127.213 127.02C126.899 127.251 126.56 127.464 126.205 127.658C125.844 127.855 125.48 128.026 125.117 128.172C124.724 128.33 124.331 128.463 123.942 128.572C123.451 128.71 122.963 128.818 122.487 128.899C121.97 128.988 121.464 129.045 120.98 129.077C120.451 129.112 119.934 129.117 119.451 129.099C118.896 129.079 118.394 129.027 117.977 128.963C114.541 128.428 111.095 127.502 107.684 126.249C104.13 124.945 100.582 123.272 97.0949 121.304C93.462 119.253 89.9228 116.898 86.539 114.321C83.0236 111.643 79.6522 108.712 76.4937 105.62C74.6504 103.815 72.8756 101.95 71.1846 100.043C69.4767 98.1176 67.8726 96.173 66.3891 94.23C64.886 92.262 63.4895 90.277 62.2151 88.2976C60.9538 86.3387 59.801 84.3635 58.7711 82.3914C57.7926 80.5182 56.9422 78.6863 56.2351 76.9179C55.5347 75.1653 54.9633 73.4498 54.5366 71.7902C54.108 70.1257 53.8283 68.5375 53.7107 67.0476C53.5932 65.5611 53.6325 64.1389 53.8407 62.8002C53.9303 62.2227 54.0509 61.6777 54.2017 61.1701C54.3559 60.6557 54.5467 60.1541 54.7735 59.6707C55.0033 59.1813 55.2667 58.7191 55.5642 58.2882C55.8616 57.8562 56.1958 57.4499 56.565 57.0727C57.0949 56.5315 57.5802 56.0791 58.0224 55.7132C58.4922 55.3243 58.9393 55.0106 59.3649 54.7691C59.9194 54.4546 60.4478 54.2588 60.9519 54.1749H60.9573C61.537 54.0789 62.0805 54.1258 62.5911 54.3057C63.2533 54.5397 63.9313 54.9229 64.6245 55.443C65.2621 55.9214 65.922 56.5269 66.6088 57.2477C67.2305 57.9065 67.8863 58.6809 68.573 59.5574C69.2367 60.4044 69.9321 61.3541 70.657 62.3927L71.7942 64.0213L71.7685 64.0399C72.244 64.7413 72.6809 65.4001 73.0751 66.0143C73.6791 66.955 74.2185 67.8428 74.6864 68.68C75.2038 69.6056 75.6207 70.4549 75.9279 71.2289C76.2564 72.0574 76.4597 72.8069 76.5277 73.4762C76.5784 73.9921 76.4424 74.4736 76.1071 74.9196C75.8743 75.2303 75.5409 75.5126 75.1017 75.7659C74.89 75.8879 74.6599 76.0108 74.4085 76.1347C74.1304 76.2727 73.8276 76.4159 73.4973 76.5656C72.9202 76.8253 72.4224 77.187 72.0172 77.6178C71.5947 78.0664 71.2693 78.5926 71.055 79.1588C70.8381 79.7314 70.7326 80.3451 70.7511 80.962C70.7689 81.5482 70.903 82.1468 71.1642 82.7266C71.4238 83.3037 71.7855 83.8015 72.2164 84.2067C72.665 84.6292 73.1912 84.9546 73.7574 85.1689C74.33 85.3859 74.9437 85.4913 75.5606 85.4728C76.1468 85.4551 76.7454 85.3209 77.3252 85.0597C79.0211 84.2898 80.4505 83.4583 81.624 82.5569C82.7545 81.6887 83.6469 80.7518 84.3121 79.7385C84.9606 78.7498 85.3998 77.6783 85.6402 76.5161C85.8885 75.3146 85.9334 74 85.7883 72.5646C85.6825 71.5218 85.4433 70.4401 85.0801 69.3112C84.7105 68.1626 84.21 66.963 83.5894 65.7021V65.7021Z" fill="#7688A1"/>
</svg>
