<svg width="69" height="40" viewBox="0 0 69 40" fill="none" xmlns="http://www.w3.org/2000/svg">
<path fill-rule="evenodd" clip-rule="evenodd" d="M4.55963 14.7844C6.51781 18.5659 8.46964 21.6541 10.6911 24.9085C16.5709 33.3957 25.5329 40.9024 36.5161 39.8171C40.6053 39.413 39.9786 37.3086 39.8913 33.6968C39.8633 32.5377 39.3758 28.4036 40.9946 28.0544C44.5671 27.2838 49.2675 32.6933 51.374 34.9932C52.993 36.761 55.1265 39.3613 57.594 39.8102C59.1981 39.9772 66.3007 40.2878 67.4697 39.3855C69.6298 37.7181 66.6816 34.0821 65.6168 32.687C63.0211 29.2862 60.1149 26.8091 57.3855 23.713C54.7594 20.7341 56.3805 19.9205 58.5033 16.9504L59.034 16.2078C60.9139 13.5126 67.9042 3.87189 66.5537 0.890324C65.7187 -0.367256 60.9395 0.0706114 59.5195 0.0863547C53.2691 0.155696 54.5959 0.700049 51.7462 6.30326C50.2256 9.29332 48.5 12.0998 46.5033 14.7951C45.2122 16.5116 39.9205 22.8781 39.8821 16.9405C39.8529 12.4126 39.8895 7.87542 39.8847 3.34629C39.8814 0.154279 39.2707 0.102038 36.2527 0.103218C33.9878 0.104102 31.723 0.103275 29.458 0.103275C27.5647 0.103275 24.3786 -0.415253 24.1738 1.64247C24.0346 3.03944 25.6776 3.65927 26.539 6.00149C27.493 8.59554 27.1185 15.8121 27.1177 19.0672C27.1171 21.3035 26.912 23.8379 24.3419 21.9166C20.4816 19.0308 15.9935 9.80654 14.136 4.94704C11.9862 -0.742384 12.2222 0.0804572 5.74209 0.0792779C-0.0120173 0.0782166 -1.10161 -0.0769157 0.971971 6.35309C1.93149 9.32846 3.13665 12.0084 4.55963 14.7844V14.7844Z" fill="#B0B5BD"/>
</svg>
