<svg width="184" height="185" viewBox="0 0 184 185" fill="none" xmlns="http://www.w3.org/2000/svg">
<path fill-rule="evenodd" clip-rule="evenodd" d="M174.509 38.3802V146.495C174.509 148.374 174.322 150.214 173.966 151.998C173.602 153.821 173.058 155.59 172.353 157.284C171.639 159 170.755 160.637 169.725 162.174C168.68 163.732 167.495 165.175 166.192 166.477C164.89 167.78 163.447 168.965 161.889 170.01C160.352 171.04 158.714 171.923 156.998 172.638C155.304 173.343 153.534 173.887 151.711 174.251C149.928 174.607 148.087 174.794 146.209 174.794H38.1892C36.31 174.794 34.4694 174.607 32.6862 174.251C30.8634 173.887 29.0937 173.343 27.4001 172.638C25.6838 171.923 24.0458 171.04 22.5094 170.01C20.9507 168.965 19.5085 167.78 18.2057 166.477C16.9029 165.175 15.7176 163.732 14.6726 162.174C13.6426 160.637 12.7594 159 12.0451 157.284C11.3402 155.59 10.7956 153.821 10.4316 151.998C10.0759 150.214 9.88881 148.374 9.88881 146.495V38.3802C9.88881 36.501 10.0759 34.6603 10.4316 32.8772C10.7956 31.0535 11.3402 29.2836 12.0451 27.59C12.7594 25.8737 13.643 24.2356 14.6726 22.6993C15.7172 21.1406 16.9025 19.6983 18.2053 18.3955C19.5085 17.0923 20.9507 15.9071 22.5094 14.8624C24.0462 13.8325 25.6835 12.9492 27.3998 12.2349C29.0934 11.53 30.863 10.9854 32.6866 10.6214C34.4698 10.2654 36.3104 10.0783 38.1892 10.0783H146.209C148.088 10.0783 149.928 10.2654 151.711 10.6214C153.535 10.9854 155.305 11.53 156.998 12.2349C158.715 12.9492 160.352 13.8325 161.889 14.8624C163.447 15.9071 164.89 17.0923 166.193 18.3955C167.496 19.6983 168.681 21.1406 169.725 22.6993C170.755 24.2356 171.639 25.8737 172.353 27.59C173.058 29.2836 173.602 31.0535 173.966 32.8772C174.322 34.6603 174.509 36.501 174.509 38.3802V38.3802ZM146.209 0.745117H38.1892C35.6785 0.745117 33.2259 0.993065 30.8561 1.46437C28.4225 1.94853 26.0724 2.66892 23.8342 3.59944C21.54 4.55301 19.3619 5.72542 17.3289 7.08756C15.2804 8.46029 13.363 10.0397 11.6063 11.7965C9.84918 13.5536 8.26972 15.4713 6.89737 17.5194C5.53523 19.5524 4.36315 21.7306 3.40958 24.0248C2.47943 26.2622 1.75905 28.6123 1.27451 31.046C0.803205 33.4157 0.555664 35.8687 0.555664 38.3802V146.495C0.555664 149.007 0.803205 151.459 1.27451 153.828C1.75905 156.261 2.47943 158.611 3.40958 160.849C4.36277 163.143 5.53484 165.321 6.89774 167.354C8.27047 169.402 9.84992 171.32 11.6066 173.076C13.3638 174.834 15.2815 176.413 17.3296 177.785C19.3626 179.148 21.5407 180.32 23.8349 181.273C26.0724 182.203 28.4225 182.924 30.8561 183.408C33.2255 183.879 35.6785 184.127 38.1892 184.127H146.209C148.72 184.127 151.173 183.879 153.542 183.408C155.976 182.924 158.325 182.204 160.564 181.273C162.858 180.32 165.036 179.148 167.069 177.785C169.117 176.413 171.034 174.834 172.791 173.076C174.548 171.32 176.128 169.402 177.5 167.354C178.863 165.321 180.035 163.143 180.988 160.849C181.919 158.611 182.639 156.261 183.123 153.828C183.595 151.459 183.842 149.007 183.842 146.495V38.3802C183.842 35.8687 183.595 33.4157 183.123 31.046C182.639 28.6123 181.919 26.2622 180.988 24.0248C180.035 21.7306 178.863 19.5524 177.501 17.5194C176.128 15.4713 174.549 13.5536 172.792 11.7965C171.035 10.0394 169.117 8.45951 167.069 7.08679C165.036 5.72465 162.858 4.55226 160.564 3.59907C158.326 2.66855 155.976 1.94816 153.542 1.464C151.173 0.992695 148.72 0.745117 146.209 0.745117V0.745117ZM37.2473 61.9564C37.3256 63.4002 37.575 64.2291 37.9311 65.4125C38.0323 65.7496 38.1427 66.1143 38.3982 67.0373C38.9164 68.9074 39.5676 70.5307 40.302 72.363L40.3084 72.3948L40.3136 72.3925L40.342 72.4628C41.0627 74.2619 41.7559 75.991 42.5421 77.5436C42.7575 77.9699 42.9574 78.4254 43.1585 78.8853C43.3512 79.3264 43.5486 79.7758 43.713 80.071C45.1107 82.5791 45.4432 83.1815 45.7388 83.7182C48.3395 88.4355 49.9662 91.3865 53.7355 97.0418C56.0051 100.447 56.9817 101.682 58.6542 103.795L60.2235 105.783C61.5917 107.533 63.3098 109.3 65.1652 110.96C67.2621 112.836 69.5377 114.578 71.6951 116.017L71.7022 116.006C75.5702 118.584 80.2338 120.758 85.0682 121.973C89.2347 123.02 93.4996 123.358 97.4306 122.622C98.5887 122.406 98.462 120.495 98.2791 117.74C98.0947 114.961 97.8796 111.725 98.4341 108.056C98.7156 106.195 99.4387 104.791 100.758 103.733C101.997 102.738 103.474 102.294 105.331 102.294C107.656 102.294 110.212 103.321 112.6 104.745C115.513 106.481 118.332 108.901 119.866 110.467C120.149 110.756 120.526 111.073 120.895 111.383C121.699 112.058 122.479 112.713 123.365 113.861C123.932 114.596 124.588 115.228 125.295 115.91C125.838 116.434 125.748 116.331 126.058 116.638L126.05 116.646C126.886 117.474 127.607 118.304 128.318 119.124C130.049 121.118 131.707 123.029 134.589 123.029H145.878C146.407 123.029 146.813 123.007 147.112 122.968C146.935 122.317 146.548 121.507 146.085 120.68C145.34 119.35 144.477 118.133 143.81 117.243C143.449 116.762 143.053 116.255 142.585 115.671C142.248 115.25 141.814 114.728 141.274 114.084L141.283 114.077L141.133 113.897H141.117C140.594 113.274 140.347 112.98 140.041 112.652L140.033 112.66L129.552 101.484C123.579 95.485 124.685 93.9615 129.232 87.7083C129.952 86.7188 130.805 85.5449 131.676 84.2326L136.946 76.3387C139.883 71.9492 141.25 69.2468 143.438 64.92L143.774 64.2567C144.44 62.9399 144.966 61.7206 144.874 61.2236C144.798 60.8128 144.747 61.9141 144.035 61.9141H132.286C131.272 61.9141 130.682 62.0381 130.372 62.2766C130.017 62.5487 129.693 63.1659 129.34 64.0382V64.0541C128.775 65.4514 127.635 67.7682 126.408 70.1338C124.918 73.0033 123.307 75.9339 122.446 77.3558C121.312 79.2289 118.721 83.3962 115.783 87.1277C112.34 91.5006 108.239 95.3199 104.41 95.3199C99.1503 95.3199 98.25 91.5543 98.25 86.9395C98.25 86.6848 98.2795 85.7811 98.3083 84.8774C98.3215 84.4579 98.3354 84.0327 98.3354 83.0258C98.3354 82.1358 98.3577 81.2566 98.3831 78.2183C98.428 72.8782 98.4911 65.4068 98.3396 63.5374C98.2443 62.3624 98.1744 61.5328 98.1461 61.4916C97.948 61.2066 98.2409 61.9141 97.7281 61.9141H79.8683C80.9988 63.3742 81.9565 64.8973 82.6686 66.6042C83.5076 68.6171 83.9891 70.8138 83.9891 73.3498C83.9891 75.6096 83.9936 75.9392 83.9986 76.4634C84.0602 82.6339 84.1766 94.2488 83.5367 96.3585C82.2241 100.686 79.442 101.536 76.1247 100.531C72.643 99.4743 68.9655 95.0058 67.9254 93.7419L67.8706 93.6754C67.4968 93.2211 67.2783 92.8987 67.0285 92.5302C66.9499 92.4142 67.2412 92.8416 66.8149 92.2358L66.674 92.0328L60.5292 82.0511L60.4514 81.8946C57.3884 76.4132 56.055 73.012 54.1868 68.2441C53.5038 66.501 53.7344 67.0615 53.2476 65.8335C52.9955 65.1974 52.8863 64.8916 52.7812 64.5942C52.5612 63.9732 52.334 63.3318 52.1159 62.9199C51.8839 62.4811 51.7109 62.2244 51.5714 62.1507C51.2569 61.9841 50.6227 61.9141 49.5781 61.9141C49.0531 61.9141 48.886 61.8952 47.491 61.8737H47.4755C44.346 61.8238 39.1314 61.741 37.2473 61.9564V61.9564ZM30.2745 67.6938C29.6297 65.5516 29.2207 64.192 29.2207 60.9091C29.2207 59.485 29.683 58.2427 30.4068 57.2128C31.1483 56.1594 32.1861 55.3627 33.2459 54.8653C35.6973 53.7156 43.3074 53.8369 47.6002 53.9049C47.8912 53.9095 48.1097 53.9136 49.5781 53.9136C51.9391 53.9136 53.7283 54.2606 55.2904 55.0883C57.0275 56.009 58.1867 57.3266 59.1784 59.2008C59.6751 60.1389 59.999 61.0528 60.3123 61.938L60.6539 62.8961C61.8188 65.8339 61.5429 65.1298 61.6241 65.3376C63.3748 69.8054 64.63 73.0067 67.3354 77.8675L67.3422 77.8634L73.487 87.8451C73.4994 87.8723 73.4919 87.8693 73.6223 88.0613C73.7459 88.2438 73.8543 88.4037 74.0267 88.6131L74.0815 88.6796C74.4311 89.1044 75.2221 90.0656 76.0729 90.9678C76.1357 87.1039 76.0702 80.5646 76.0298 76.5262C76.0071 74.2388 75.9886 74.3597 75.9886 73.3498C75.9886 71.9216 75.7346 70.7261 75.2932 69.6663C74.8151 68.5192 74.1022 67.4526 73.2394 66.3891C71.6176 64.3901 70.9501 62.4803 70.9501 60.7663C70.9501 59.7167 71.1981 58.7469 71.6441 57.8678C72.0719 57.0246 72.6671 56.3095 73.3849 55.7278C74.8536 54.5361 76.8518 53.9136 78.8368 53.9136H97.7281C101.247 53.9136 103.295 54.8948 104.709 56.9289C105.896 58.6362 106.109 60.4635 106.308 62.9123C106.465 64.8467 106.399 72.6813 106.352 78.281C106.343 79.2932 106.336 80.0873 106.336 83.0258C106.336 83.3063 106.306 84.2183 106.277 85.1276L106.256 85.9848C107.197 85.0312 108.343 83.6608 109.501 82.1902C112.162 78.8105 114.553 74.9633 115.602 73.2308C116.434 71.8554 117.946 69.1122 119.313 66.4775C120.42 64.3455 121.44 62.2732 121.934 61.0539L121.939 61.0562C122.803 58.9242 123.846 57.2245 125.528 55.933C127.258 54.6042 129.383 53.9136 132.286 53.9136H144.035C149.62 53.9136 152.066 56.2913 152.718 59.7859C153.199 62.3726 152.228 65.2239 150.899 67.8503L150.563 68.5136C148.252 73.0838 146.809 75.9381 143.571 80.7766L140.934 84.7217L138.333 88.6388C137.285 90.2179 136.425 91.4001 135.701 92.3956C134.358 94.2431 134.036 94.686 135.271 95.9212L135.365 96.0149L145.846 107.191V107.206C146.644 108.059 146.834 108.286 147.242 108.772L147.233 108.78L147.384 108.959H147.399C147.85 109.496 148.29 110.029 148.804 110.67C149.189 111.15 149.628 111.72 150.185 112.462C151.05 113.615 152.155 115.168 153.054 116.774C154.107 118.655 154.963 120.735 155.146 122.751C155.187 123.208 155.177 123.613 155.177 124.076L155.146 124.38C154.932 126.456 153.988 128.246 152.003 129.528C150.539 130.472 148.545 131.029 145.878 131.029H134.589C128.089 131.029 125.251 127.758 122.287 124.342C121.682 123.646 121.07 122.94 120.448 122.326H120.432C119.633 121.535 119.841 121.735 119.764 121.661C118.841 120.77 117.986 119.945 117.052 118.736C116.722 118.307 116.253 117.914 115.77 117.508C115.285 117.101 114.789 116.684 114.178 116.061C112.976 114.833 110.772 112.94 108.506 111.589C107.66 111.085 106.854 110.675 106.191 110.459C105.959 112.887 106.113 115.207 106.248 117.241C106.707 124.154 107.025 128.946 98.8993 130.466C93.7482 131.43 88.3254 131.029 83.1308 129.723C77.3549 128.271 71.8224 125.701 67.2643 122.662V122.647C64.8435 121.032 62.2625 119.055 59.8527 116.898C57.6587 114.934 55.6067 112.819 53.9419 110.689L52.4044 108.733C50.5214 106.353 49.4227 104.964 47.079 101.448C43.1135 95.4987 41.4301 92.4444 38.7383 87.562L36.7443 83.9458C36.3795 83.2908 36.1097 82.6758 35.8459 82.073C35.7027 81.7453 35.5602 81.4206 35.4169 81.1372C34.4838 79.2943 33.7252 77.4011 32.9357 75.4312L32.9073 75.3609L32.9009 75.3292L32.8956 75.3315C32.08 73.2966 31.3569 71.4937 30.7106 69.1621C30.643 68.918 30.4495 68.2751 30.2745 67.6938V67.6938ZM104.41 87.3194C104.516 87.3194 104.644 87.2789 104.792 87.2026C104.109 87.2744 103.603 87.3194 104.41 87.3194Z" fill="#7688A1"/>
</svg>
