<svg width="50" height="50" viewBox="0 0 50 50" fill="none" xmlns="http://www.w3.org/2000/svg">
<path d="M10.4864 0H39.0666C41.9522 0 44.5744 1.1792 46.4741 3.0791C48.3738 4.9788 49.553 7.6011 49.553 10.4868V39.0923C49.553 41.9776 48.3737 44.5997 46.474 46.4993C44.5743 48.399 41.952 49.5782 39.0666 49.5782H10.4864C7.601 49.5782 4.9788 48.399 3.079 46.4993C1.1793 44.5997 0 41.9776 0 39.0923V10.4868C0 7.6011 1.1792 4.9788 3.0789 3.0791C4.9787 1.1792 7.601 0 10.4864 0ZM20.2436 14.6366L20.3432 14.6084C20.891 14.4482 21.5189 14.3722 22.3353 14.3466C23.1611 14.3206 23.6298 14.3075 24.0386 14.3068C24.479 14.3061 24.7445 14.3179 25.1573 14.3416C25.9858 14.39 26.5758 14.468 27.0882 14.6247C27.7626 14.831 28.2186 15.1263 28.6681 15.5754C28.9525 15.8597 29.175 16.1582 29.3512 16.5023C29.5234 16.8381 29.6334 17.1844 29.6967 17.5701C29.9143 17.1303 30.1083 16.7904 30.3103 16.5055C30.6951 15.9634 31.0771 15.6452 31.5692 15.3923C31.8294 15.2579 32.051 15.1778 32.4226 15.1257C32.6094 15.0997 32.8458 15.0856 33.2269 15.0703C33.7088 15.0511 34.7286 15.0407 35.7367 15.0397C36.7496 15.0387 37.733 15.0472 38.1315 15.0655C38.5041 15.0824 38.7306 15.0979 38.9269 15.1315C39.241 15.185 39.4365 15.2572 39.7 15.3785C40.0206 15.5272 40.2989 15.7064 40.5375 15.9191C40.8055 16.1577 41.0222 16.4355 41.1907 16.7548C41.2366 16.8419 41.2743 16.9311 41.3043 17.0216C41.4227 17.3458 41.4915 17.737 41.5076 18.1164C41.5249 18.5295 41.4908 18.9871 41.3989 19.3468C41.3814 19.4158 41.3599 19.4828 41.3349 19.5477C41.1574 20.118 40.8201 20.7931 40.2679 21.6588C39.7063 22.5395 38.9348 23.6199 37.8836 25.0098C37.7006 25.2513 37.541 25.4643 37.4054 25.6481C37.61 25.8582 37.8644 26.1172 38.1772 26.4349C39.1152 27.3873 39.7003 28.0046 40.1316 28.5305C40.6216 29.1278 40.8913 29.5768 41.1674 30.1541C41.3149 30.4609 41.395 30.6416 41.4567 30.9074C41.52 31.1811 41.5246 31.3747 41.5214 31.7068L41.5211 31.7206C41.5112 32.3682 41.4152 32.8624 41.1528 33.3509C40.8839 33.8512 40.5207 34.2049 39.9814 34.5615C39.4694 34.9026 38.923 35.1029 37.9782 35.1989C37.3134 35.2665 36.3699 35.281 34.892 35.2682C33.8963 35.2596 33.3825 35.2543 33.1073 35.2393C32.5964 35.2115 32.4123 35.1592 32.1119 35.059L32.1105 35.0631C31.5144 34.8658 31.0538 34.6427 30.4535 34.1851C30.1 33.9155 29.6232 32.4257 29.1 31.922C28.4713 32.9239 29.4499 34.0509 27.1749 34.3766C26.815 34.428 26.3023 34.4382 25.3347 34.45C24.4657 34.4609 23.7231 34.4534 23.115 34.4276C22.427 34.3983 21.8744 34.3483 21.4657 34.2781C20.7356 34.153 19.9676 33.9107 19.2177 33.576C18.4944 33.2531 17.7829 32.8379 17.1369 32.3544L17.1336 32.3588C16.1032 31.5891 14.8967 30.266 13.6513 28.5767C12.472 26.977 11.2272 25.005 10.0476 22.8386C9.5497 21.9233 9.1395 21.1462 8.8502 20.5723C8.5059 19.8892 8.27 19.375 8.1815 19.1066C8.0521 18.7153 8.0057 18.2664 8.0356 17.8511C8.068 17.3997 8.1964 16.9384 8.4125 16.5674L8.4203 16.5543L8.4193 16.5537C8.5785 16.2843 8.7919 16.0261 9.0224 15.8146C9.2793 15.579 9.5759 15.3802 9.871 15.2564C9.9884 15.2072 10.1081 15.1717 10.2284 15.1491C10.5201 15.0834 10.909 15.0396 11.4281 15.0165C11.9621 14.9927 12.7727 14.9797 13.9329 14.9744L15.8872 14.9657C16.1798 14.9646 16.456 15.0351 16.6992 15.1607L16.7003 15.1586L17.0811 15.3562C17.4706 15.5583 18.7881 19.9399 19.084 20.2247C19.8601 19.2458 16.5919 15.7885 20.2436 14.6366ZM22.4455 17.8606C22.2083 17.868 22.0042 17.8803 21.8277 17.8991C21.8817 17.9563 21.9346 18.018 21.9869 18.0849C22.2548 18.428 22.3921 18.7719 22.5006 19.2459L22.4991 19.2463L22.5006 19.2527C22.5603 19.5179 22.5944 19.7328 22.6125 20.1255L22.614 20.1527C22.6317 20.5639 22.6352 20.975 22.6352 21.6352C22.6352 22.1414 22.6301 22.5572 22.6162 22.9906C22.6008 23.4707 22.5548 23.7711 22.4734 24.0011L22.4695 23.9997L22.4666 24.008C22.4099 24.1654 22.3432 24.311 22.2812 24.4184L22.2782 24.4167C21.9442 24.992 21.4027 25.3498 20.7147 25.3498C20.2474 25.3498 19.7776 25.1344 19.4106 24.7888C19.3608 24.7419 19.2685 24.6465 19.1456 24.5137C18.7447 24.081 18.1998 23.2924 17.6627 22.4003C17.1692 21.5808 16.6455 20.6222 16.2215 19.7404C16.2048 19.7101 16.1889 19.6792 16.1738 19.6476L15.7714 18.7904C15.7496 18.7522 15.7291 18.713 15.7099 18.6727C15.7025 18.6571 15.689 18.6398 15.6702 18.6216C15.6223 18.5752 15.5545 18.5289 15.4687 18.4844L15.4634 18.4816L13.9467 18.4884C13.0019 18.4927 12.2914 18.5035 11.7621 18.5231C11.8271 18.6573 11.9042 18.8129 11.9922 18.9875C12.3039 19.6058 12.6964 20.3524 13.1344 21.1574C14.2263 23.1627 15.3857 24.9977 16.4901 26.4959C17.526 27.9011 18.4815 28.9657 19.242 29.5338L19.2387 29.5383L19.242 29.5407C19.6727 29.8633 20.1547 30.1437 20.6509 30.3652C21.1221 30.5755 21.603 30.7275 22.0583 30.8055C22.3533 30.8562 22.7537 30.8924 23.2528 30.9136C23.8336 30.9383 24.5163 30.9458 25.2933 30.936C25.7113 30.9309 26.0215 30.9264 26.2507 30.9189C26.3225 30.4192 26.371 30.1154 26.4203 29.9054C26.5396 29.3961 26.6883 29.1256 26.9197 28.8671C26.9579 28.82 26.999 28.7744 27.0428 28.7306C27.306 28.4674 27.5531 28.3034 27.9378 28.2115C27.9746 28.202 28.0119 28.1934 28.0498 28.1862C28.5221 28.0955 28.853 28.1627 29.2322 28.3507L29.3134 28.3917C29.478 28.48 29.7816 28.7353 30.1359 29.0737C30.3697 29.297 30.6934 29.6122 31.054 29.969L31.0597 29.9744C31.7878 30.6939 32.2453 31.1252 32.5895 31.3877C32.8089 31.5549 32.9832 31.6385 33.2129 31.7145L33.2115 31.7187L33.2198 31.7214L33.2865 31.7253C33.5886 31.7418 34.0441 31.7467 34.9196 31.7542C36.2521 31.7657 37.0866 31.7544 37.6336 31.6987C37.8224 31.6796 37.9281 31.6636 37.9869 31.6472C37.8385 31.34 37.6882 31.0938 37.4168 30.7629C37.0802 30.3525 36.5492 29.7953 35.6692 28.9017C34.8597 28.0795 34.4151 27.6226 34.1492 27.3179C33.4312 26.4949 33.3727 26.0364 33.5117 25.4141L33.5321 25.3203C33.6022 25.0364 33.8088 24.6462 34.1389 24.1678C34.3861 23.8098 34.7007 23.3782 35.0724 22.8876C36.114 21.5103 36.839 20.5017 37.3051 19.7708C37.6632 19.2092 37.8694 18.8296 37.9575 18.5785C37.5499 18.561 36.6489 18.5528 35.7367 18.5537C34.8083 18.5546 33.849 18.565 33.3647 18.5843L33.1434 18.5941C33.0208 18.781 32.8644 19.0914 32.6459 19.5655C32.3205 20.2689 31.9954 20.9107 31.6454 21.5364C31.2914 22.1692 30.9311 22.7508 30.5391 23.3267C30.2815 23.7042 29.9968 24.0678 29.7653 24.3277C29.5433 24.5768 29.3062 24.7805 29.0602 24.9319C28.8284 25.0901 28.563 25.1896 28.2881 25.2247C27.973 25.2709 27.6543 25.228 27.3436 25.0836C27.2731 25.0518 27.2038 25.015 27.1363 24.973C26.577 24.6235 26.2899 24.0145 26.268 22.9128C26.2549 22.2469 26.2496 21.5888 26.2496 20.8041C26.2496 19.7441 26.2472 19.0756 26.2431 18.8288C26.2362 18.4109 26.2307 18.1687 26.2279 18.1514L26.2291 18.1512L26.2279 18.1445C26.2227 18.1118 26.225 18.1048 26.223 18.1009C26.2202 18.0954 26.2139 18.0958 26.1877 18.0696C26.1435 18.0255 26.1077 17.9991 26.0684 17.9871C25.867 17.9255 25.5199 17.8881 24.9643 17.8556C24.5552 17.8322 24.3132 17.8204 24.0386 17.8208C23.7322 17.8213 23.2761 17.8345 22.4455 17.8606ZM38.0604 31.6662C38.0617 31.6619 38.0594 31.6629 38.0551 31.6661L38.0604 31.6662ZM39.0666 3.5278H10.4864C8.5746 3.5278 6.8351 4.3112 5.5731 5.5733C4.3112 6.8352 3.5278 8.5747 3.5278 10.4868V39.0923C3.5278 41.004 4.3112 42.7432 5.5732 44.0051C6.8352 45.2671 8.5746 46.0504 10.4864 46.0504H39.0666C40.9784 46.0504 42.7179 45.267 43.9798 44.0051C45.2418 42.7432 46.0252 41.004 46.0252 39.0923V10.4868C46.0252 8.5747 45.2418 6.8352 43.9799 5.5733C42.7179 4.3112 40.9785 3.5278 39.0666 3.5278Z" fill="#264B87"/>
</svg>
