<svg width="34" height="25" viewBox="0 0 34 25" fill="none" xmlns="http://www.w3.org/2000/svg">
<path fill-rule="evenodd" clip-rule="evenodd" d="M15.1032 0.0226497C11.9384 0.297608 9.4003 0.940473 6.85454 2.11183C4.7048 3.101 2.68136 4.44347 1.03009 5.97616C0.278464 6.67377 0.0660955 6.99526 0.00968092 7.52056C-0.118913 8.71886 1.05472 9.74466 2.27356 9.49926C2.7323 9.40688 2.98239 9.25919 3.54015 8.75111C7.16059 5.45349 11.7503 3.6806 16.6666 3.6806C21.583 3.6806 26.1727 5.45349 29.7931 8.75111C30.3567 9.26445 30.6031 9.40882 31.0722 9.5007C32.5806 9.79627 33.8278 8.22688 33.1387 6.90031C32.9589 6.5542 31.8698 5.52589 30.8825 4.7701C27.576 2.23898 23.8435 0.715057 19.5981 0.162885C18.6893 0.0446964 15.8642 -0.0434281 15.1032 0.0226497ZM15.2877 6.12698C12.0861 6.38158 8.92156 7.59911 6.37391 9.55645C4.86062 10.7191 4.44083 11.297 4.50109 12.1347C4.5508 12.8265 4.89619 13.3249 5.54007 13.6343C5.87289 13.7942 6.01504 13.8257 6.40062 13.8252C7.01571 13.8244 7.36078 13.6623 8.06765 13.0422C9.72146 11.5912 11.482 10.6633 13.5266 10.165C14.6816 9.88352 15.3792 9.8031 16.6666 9.8031C19.9632 9.8031 22.7854 10.8662 25.2656 13.0422C25.9725 13.6623 26.3176 13.8244 26.9327 13.8252C27.9744 13.8266 28.7609 13.1267 28.8322 12.1347C28.8925 11.297 28.4727 10.7191 26.9594 9.55645C23.6584 7.02032 19.4826 5.79334 15.2877 6.12698ZM16.1129 12.1753C15.0409 12.2455 13.8748 12.4931 12.9164 12.8538C11.3564 13.4409 9.47554 14.7962 9.10872 15.5975C8.89524 16.0638 8.91895 16.6233 9.17328 17.1201C9.48864 17.7359 10.0282 18.0848 10.738 18.1318C11.337 18.1715 11.75 18.0083 12.3627 17.4897C12.9553 16.988 13.3909 16.7061 14.0111 16.4229C15.6185 15.689 17.7148 15.689 19.3222 16.4229C19.9424 16.7061 20.378 16.988 20.9706 17.4897C21.5833 18.0083 21.9963 18.1715 22.5953 18.1318C23.6094 18.0647 24.3618 17.2879 24.3618 16.3078C24.3618 15.726 24.168 15.348 23.5948 14.8116C22.1765 13.4843 20.1178 12.5316 18.0998 12.2685C17.5048 12.191 16.5541 12.1463 16.1129 12.1753ZM16.2744 18.777C14.0079 19.0282 12.7317 21.3787 13.7805 23.37C14.1182 24.0111 14.9446 24.6729 15.6785 24.8898C16.1678 25.0344 17.1613 25.0372 17.6321 24.8952C18.1578 24.7367 18.6236 24.4538 19.0251 24.0491C20.0261 23.0402 20.2097 21.6454 19.5118 20.3531C18.9283 19.2727 17.6068 18.6294 16.2744 18.777Z" fill="#264B87"/>
</svg>
