<svg width="32" height="40" viewBox="0 0 32 40" fill="none" xmlns="http://www.w3.org/2000/svg">
<path fill-rule="evenodd" clip-rule="evenodd" d="M22.0027 20.4C18.1796 20.4 16.1416 19.8813 14.5434 18.4032C11.6917 15.7658 11.8591 10.2633 14.5952 7.64711C16.6345 5.69726 18.867 5.70091 22.0027 5.70091V20.4ZM2.3261 40H8.73651C9.35463 39.821 9.71152 39.8591 10.2582 39.5673C10.8144 39.2704 12.2155 37.4244 12.5524 36.9707C14.1349 34.8395 16.7987 31.8345 18.3426 29.7239C19.2197 28.5252 20.3027 27.2758 21.2361 26.1039L21.9874 26.1009C22.2082 29.1644 22.0087 34.1698 22.0026 37.5782C22.0015 38.1605 21.9154 38.7449 22.3593 39.1971C22.9067 39.7549 23.1933 39.6821 24.0261 40H29.984C31.0001 39.5864 31.7601 39.5271 31.9147 38.5189C32.0332 37.7466 31.9376 36.6645 31.9376 35.8594V3.98436C31.9376 2.72694 32.333 1.20291 31.1332 0.474108C30.6739 0.195185 30.2918 0.203516 29.7725 0H18.4764L18.1585 0.0732831C17.998 0.101921 18.0887 0.086567 17.9451 0.105242C17.8499 0.117601 17.6152 0.134207 17.5198 0.142047C9.26553 0.823211 4.0085 5.09896 2.52819 10.3324C1.50061 13.965 2.12162 17.9889 5.1407 20.9615C6.47883 22.2789 8.123 23.3201 10.1114 24.1967C10.538 24.3848 10.8774 24.4607 11.2798 24.6875L4.61603 32.4529C3.46966 33.7515 2.40811 35.0426 1.25585 36.3234C0.754222 36.881 -0.130157 37.7036 0.0161155 38.5159C0.21675 39.6304 1.56291 39.7895 2.3261 40Z" fill="#B0B5BD"/>
</svg>
