<svg width="234" height="184" viewBox="0 0 234 184" fill="none" xmlns="http://www.w3.org/2000/svg">
<path fill-rule="evenodd" clip-rule="evenodd" d="M100.771 57.61L153.825 90.3154L125.946 108.846L97.7276 127.586C97.7348 103.636 97.7387 79.6848 97.7273 55.7339L100.771 57.61V57.61ZM88.3903 47.3936V134.282H88.399L88.3968 136.282C88.3968 136.489 88.4146 136.717 88.4505 136.96C88.4834 137.184 88.5332 137.408 88.5993 137.628C88.667 137.854 88.7475 138.066 88.8382 138.26C88.9285 138.452 89.0404 138.65 89.1742 138.852C89.5208 139.376 89.9585 139.809 90.4517 140.142C90.9688 140.49 91.5391 140.729 92.1242 140.847C92.716 140.968 93.3384 140.972 93.9515 140.853C94.532 140.74 95.1021 140.512 95.627 140.165L163.338 95.1778L163.33 95.1672L165.021 94.0515C165.173 93.9483 165.309 93.8485 165.425 93.7525C165.544 93.6539 165.668 93.5375 165.795 93.4071C165.896 93.3024 166.005 93.1754 166.12 93.028C166.238 92.8764 166.336 92.7385 166.411 92.6168C166.74 92.0827 166.949 91.5075 167.043 90.9247C167.14 90.3192 167.114 89.6975 166.973 89.0988C166.833 88.5066 166.579 87.9434 166.223 87.449C165.878 86.9705 165.433 86.5488 164.898 86.2184C158.471 82.2567 150.833 77.7942 142.918 73.1692C126.319 63.4702 108.48 53.047 95.8463 43.6447C95.6573 43.5041 95.4448 43.3714 95.2123 43.2505C95.0025 43.1394 94.7732 43.0426 94.5271 42.9613C94.2803 42.8797 94.0388 42.8193 93.8071 42.7822C93.5807 42.7463 93.3302 42.727 93.0569 42.727C92.4163 42.727 91.8123 42.8517 91.268 43.077C90.7056 43.3098 90.192 43.6587 89.7569 44.0937C89.3219 44.5287 88.9731 45.0424 88.7403 45.6048C88.5151 46.149 88.3903 46.753 88.3903 47.3936V47.3936ZM37.7942 9.47967H195.797C197.676 9.47967 199.518 9.66672 201.302 10.0228C203.127 10.3871 204.897 10.9321 206.592 11.6374C208.309 12.3521 209.947 13.2357 211.485 14.266C213.044 15.3115 214.488 16.4978 215.792 17.8018C217.096 19.1053 218.282 20.5488 219.328 22.1086C220.359 23.6457 221.242 25.2841 221.957 27.0019C222.663 28.6963 223.208 30.4666 223.572 32.2906C223.928 34.0749 224.115 35.9167 224.115 37.7963V145.879C224.115 147.759 223.928 149.6 223.572 151.385C223.208 153.209 222.663 154.979 221.957 156.673C221.242 158.391 220.359 160.03 219.328 161.567C218.282 163.127 217.096 164.57 215.792 165.873C214.488 167.177 213.044 168.364 211.485 169.409C209.947 170.44 208.309 171.323 206.592 172.038C204.897 172.743 203.127 173.288 201.302 173.652C199.518 174.009 197.676 174.196 195.797 174.196H37.7942C35.9146 174.196 34.0724 174.009 32.2885 173.652C30.4641 173.288 28.6938 172.743 26.9991 172.038C25.2817 171.323 23.6425 170.439 22.105 169.408C20.5452 168.363 19.1021 167.177 17.7986 165.873C16.495 164.57 15.3082 163.127 14.2628 161.567C13.2321 160.03 12.3485 158.391 11.6338 156.673C10.9282 154.979 10.3832 153.209 10.0193 151.385C9.66284 149.6 9.47565 147.759 9.47565 145.879V37.7963C9.47565 35.9167 9.66284 34.0749 10.0193 32.2906C10.3832 30.4666 10.9282 28.6963 11.6338 27.0019C12.3485 25.2841 13.2321 23.6457 14.2628 22.1086C15.3082 20.5488 16.495 19.1053 17.7986 17.8018C19.1021 16.4982 20.5452 15.3122 22.105 14.2668C23.6425 13.2361 25.2817 12.3525 26.9991 11.6374C28.6938 10.9321 30.4641 10.3871 32.2885 10.0228C34.0724 9.66672 35.9146 9.47967 37.7942 9.47967V9.47967ZM182.502 0.146484H37.7942C35.2827 0.146484 32.8293 0.394432 30.4588 0.865739C28.024 1.35027 25.6728 2.07139 23.4335 3.00191C21.1385 3.95548 18.96 5.12791 16.9259 6.49118C14.8763 7.86428 12.9577 9.44451 11.1995 11.2027C9.44161 12.9606 7.86109 14.8791 6.48761 16.9287C5.12433 18.9629 3.95185 21.1414 2.99789 23.4363C2.06737 25.6757 1.34626 28.0266 0.861722 30.4613C0.390415 32.8318 0.142578 35.2848 0.142578 37.7963V145.879C0.142578 148.391 0.390415 150.843 0.861722 153.214C1.34626 155.649 2.06737 158 2.99789 160.239C3.95185 162.534 5.12433 164.712 6.48761 166.747C7.86109 168.796 9.44161 170.715 11.1995 172.473C12.9577 174.231 14.8763 175.811 16.9259 177.184C18.96 178.547 21.1385 179.72 23.4335 180.673C25.6728 181.604 28.024 182.325 30.4588 182.81C32.8293 183.281 35.2827 183.529 37.7942 183.529H195.797C198.308 183.529 200.761 183.281 203.132 182.81C205.567 182.325 207.918 181.604 210.157 180.673C212.452 179.72 214.631 178.547 216.665 177.184C218.715 175.811 220.633 174.231 222.391 172.473C224.149 170.715 225.73 168.796 227.103 166.747C228.466 164.712 229.639 162.534 230.593 160.239C231.523 158 232.244 155.649 232.729 153.214C233.2 150.843 233.448 148.391 233.448 145.879V37.7963C233.448 35.2848 233.2 32.8318 232.729 30.4613C232.244 28.0266 231.523 25.6757 230.593 23.4363C229.639 21.1414 228.466 18.9629 227.103 16.9287C225.73 14.8791 224.149 12.9606 222.391 11.2027C220.633 9.44451 218.715 7.86428 216.665 6.49118C214.631 5.12791 212.452 3.95548 210.157 3.00191C207.918 2.07139 205.567 1.35027 203.132 0.865739C200.761 0.394432 198.308 0.146484 195.797 0.146484H182.502V0.146484Z" fill="#7688A1"/>
</svg>
